<svg height="1080pt" viewBox="0 0 1920 1080" width="1920pt" xmlns="http://www.w3.org/2000/svg" xmlns:xlink="http://www.w3.org/1999/xlink"><symbol id="a" overflow="visible"><path d="m8.296875-19.53125v-10.90625h9.125c.988281 0 1.921875.058594 2.796875.171875.882812.117187 1.660156.367187 2.328125.75.675781.386719 1.207031.933594 1.59375 1.640625.382813.699219.578125 1.652344.578125 2.859375 0 1.835937-.570312 3.210937-1.703125 4.125-1.136719.90625-3 1.359375-5.59375 1.359375zm-4.546875-14.734375v34.265625h16.546875c1.695313 0 3.191406-.28125 4.484375-.84375 1.300781-.5625 2.390625-1.296875 3.265625-2.203125.882813-.914063 1.550781-1.960937 2-3.140625.445313-1.1875.671875-2.40625.671875-3.65625 0-2.113281-.5625-3.90625-1.6875-5.375-1.117188-1.46875-2.730469-2.425781-4.84375-2.875v-.09375c1.632812-.644531 2.890625-1.628906 3.765625-2.953125.882813-1.332031 1.328125-2.910156 1.328125-4.734375 0-1.726562-.398438-3.179688-1.1875-4.359375-.78125-1.1875-1.730469-2.117187-2.84375-2.796875-.511719-.3125-1.132812-.546875-1.859375-.703125-.71875-.164063-1.496094-.285156-2.328125-.359375-.824219-.082031-1.664062-.128906-2.515625-.140625-.84375-.019531-1.636719-.03125-2.375-.03125zm4.546875 30.421875v-11.859375h10.421875c.957031 0 1.882812.089844 2.78125.265625.894531.179688 1.6875.484375 2.375.921875.6875.429687 1.238281 1.011719 1.65625 1.75.414062.742187.625 1.667969.625 2.78125 0 1.917969-.570312 3.421875-1.703125 4.515625-1.136719 1.085938-2.710937 1.625-4.71875 1.625zm0 0"/></symbol><symbol id="b" overflow="visible"><path d="m7.390625-29.28125v-4.984375h-4.078125v4.984375zm-4.078125 4.46875v24.8125h4.078125v-24.8125zm0 0"/></symbol><symbol id="c" overflow="visible"><path d="m6.046875-12.390625c0-1.5.195313-2.832031.59375-4 .40625-1.164063.957031-2.148437 1.65625-2.953125.707031-.800781 1.53125-1.410156 2.46875-1.828125.945313-.414063 1.953125-.625 3.015625-.625 1.050781 0 2.046875.210937 2.984375.625.945313.417969 1.769531 1.027344 2.46875 1.828125.707031.804688 1.257813 1.789062 1.65625 2.953125.40625 1.167969.609375 2.5.609375 4 0 1.511719-.203125 2.851563-.609375 4.015625-.398437 1.167969-.949219 2.148438-1.65625 2.9375-.699219.78125-1.523437 1.382812-2.46875 1.796875-.9375.40625-1.933594.609375-2.984375.609375-1.0625 0-2.070312-.203125-3.015625-.609375-.9375-.414063-1.761719-1.015625-2.46875-1.796875-.699219-.789062-1.25-1.769531-1.65625-2.9375-.398437-1.164062-.59375-2.503906-.59375-4.015625zm-4.3125 0c0 1.835937.253906 3.539063.765625 5.109375.507812 1.5625 1.273438 2.929688 2.296875 4.09375 1.03125 1.167969 2.296875 2.078125 3.796875 2.734375s3.226562.984375 5.1875.984375c1.976562 0 3.710938-.328125 5.203125-.984375 1.488281-.65625 2.742187-1.566406 3.765625-2.734375 1.019531-1.164062 1.785156-2.53125 2.296875-4.09375.519531-1.570312.78125-3.273438.78125-5.109375 0-1.820313-.261719-3.523437-.78125-5.109375-.511719-1.582031-1.277344-2.957031-2.296875-4.125-1.023438-1.164062-2.277344-2.082031-3.765625-2.75-1.492187-.675781-3.226563-1.015625-5.203125-1.015625-1.960938 0-3.6875.339844-5.1875 1.015625-1.5.667969-2.765625 1.585938-3.796875 2.75-1.023437 1.167969-1.789063 2.542969-2.296875 4.125-.511719 1.585938-.765625 3.289062-.765625 5.109375zm0 0"/></symbol><symbol id="d" overflow="visible"><path d="m3.3125-34.265625v34.265625h4.078125v-34.265625zm0 0"/></symbol><symbol id="e" overflow="visible"><path d="m24.484375-2.109375v-22.703125h-3.84375v3.546875h-.046875c-.742188-1.375-1.765625-2.40625-3.078125-3.09375s-2.75-1.03125-4.3125-1.03125c-2.148437 0-3.960937.414063-5.4375 1.234375-1.46875.8125-2.652344 1.851562-3.546875 3.109375-.898438 1.261719-1.539062 2.667969-1.921875 4.21875-.375 1.554687-.5625 3.070313-.5625 4.546875 0 1.6875.226563 3.292969.6875 4.8125.46875 1.523438 1.164063 2.851562 2.09375 3.984375.925781 1.136719 2.078125 2.042969 3.453125 2.71875 1.375.6679688 2.988281 1 4.84375 1 1.601562 0 3.113281-.359375 4.53125-1.078125 1.425781-.71875 2.492188-1.84375 3.203125-3.375h.09375v1.625c0 1.375-.136719 2.6328125-.40625 3.78125-.273437 1.15625-.714844 2.140625-1.328125 2.953125-.605469.820313-1.371094 1.460937-2.296875 1.921875-.929687.46875-2.0625.703125-3.40625.703125-.679687 0-1.386719-.074219-2.125-.21875-.730469-.136719-1.40625-.367187-2.03125-.6875-.625-.324219-1.15625-.742187-1.59375-1.25-.429687-.511719-.65625-1.136719-.6875-1.875h-4.078125c.0625 1.34375.410156 2.476563 1.046875 3.40625.644531.925781 1.453125 1.675781 2.421875 2.25.976562.582031 2.066406 1 3.265625 1.25 1.207031.257813 2.382813.390625 3.53125.390625 3.96875 0 6.878906-1.011719 8.734375-3.03125 1.863281-2.011719 2.796875-5.046875 2.796875-9.109375zm-11.421875-1.203125c-1.34375 0-2.464844-.273438-3.359375-.828125-.898437-.5625-1.621094-1.300781-2.171875-2.21875-.542969-.914063-.929688-1.929687-1.15625-3.046875-.21875-1.125-.328125-2.242188-.328125-3.359375 0-1.1875.132813-2.320313.40625-3.40625.269531-1.09375.703125-2.050781 1.296875-2.875.59375-.832031 1.351562-1.5 2.28125-2 .925781-.5 2.046875-.75 3.359375-.75 1.28125 0 2.367187.261719 3.265625.78125.894531.511719 1.625 1.1875 2.1875 2.03125s.96875 1.796875 1.21875 2.859375c.257812 1.054688.390625 2.125.390625 3.21875 0 1.148438-.140625 2.296875-.421875 3.453125-.273438 1.148437-.695312 2.179687-1.265625 3.09375-.574219.917969-1.335937 1.65625-2.28125 2.21875-.9375.554687-2.078125.828125-3.421875.828125zm0 0"/></symbol><symbol id="f" overflow="visible"><path d="m19.921875-16.84375h4.21875c-.15625-1.476562-.542969-2.75-1.15625-3.8125-.605469-1.070312-1.382813-1.960938-2.328125-2.671875-.9375-.707031-2.027344-1.226563-3.265625-1.5625-1.230469-.332031-2.546875-.5-3.953125-.5-1.949219 0-3.664062.34375-5.140625 1.03125-1.46875.6875-2.695313 1.632813-3.671875 2.828125-.96875 1.199219-1.695312 2.609375-2.171875 4.234375-.480469 1.617187-.71875 3.351563-.71875 5.203125 0 1.855469.242187 3.558594.734375 5.109375.5 1.554687 1.234375 2.890625 2.203125 4.015625.976563 1.117188 2.195313 1.980469 3.65625 2.59375 1.457031.601562 3.128906.90625 5.015625.90625 3.164062 0 5.664062-.832031 7.5-2.5 1.84375-1.664062 2.988281-4.035156 3.4375-7.109375h-4.171875c-.25 1.929687-.949219 3.417969-2.09375 4.46875-1.136719 1.054687-2.710937 1.578125-4.71875 1.578125-1.28125 0-2.386719-.253906-3.3125-.765625-.929687-.507813-1.683594-1.1875-2.265625-2.03125-.574219-.851563-.996094-1.820313-1.265625-2.90625-.273437-1.09375-.40625-2.210937-.40625-3.359375 0-1.25.125-2.457031.375-3.625.257813-1.164062.6875-2.195312 1.28125-3.09375.59375-.894531 1.382813-1.613281 2.375-2.15625.988281-.550781 2.222656-.828125 3.703125-.828125 1.726562 0 3.101562.433594 4.125 1.296875 1.019531.867188 1.691406 2.085938 2.015625 3.65625zm0 0"/></symbol><symbol id="g" overflow="visible"><path d="m25.0625-.09375c-.710938.414062-1.6875.625-2.9375.625-1.054688 0-1.890625-.296875-2.515625-.890625s-.9375-1.5625-.9375-2.90625c-1.125 1.34375-2.433594 2.3125-3.921875 2.90625-1.480469.59375-3.085938.890625-4.8125.890625-1.125 0-2.195312-.132812-3.203125-.390625-1-.25-1.871094-.644531-2.609375-1.1875-.730469-.550781-1.3125-1.265625-1.75-2.140625-.429688-.882812-.640625-1.953125-.640625-3.203125 0-1.40625.238281-2.554687.71875-3.453125.476563-.894531 1.109375-1.617188 1.890625-2.171875.78125-.5625 1.675781-.988281 2.6875-1.28125 1.007812-.289063 2.039062-.53125 3.09375-.71875 1.125-.226563 2.1875-.394531 3.1875-.5 1.007812-.113281 1.898438-.273437 2.671875-.484375.769531-.207031 1.378906-.507812 1.828125-.90625.445312-.40625.671875-.988281.671875-1.75 0-.90625-.171875-1.628906-.515625-2.171875-.335938-.539063-.765625-.953125-1.296875-1.234375-.523437-.289062-1.109375-.484375-1.765625-.578125-.65625-.101563-1.308594-.15625-1.953125-.15625-1.71875 0-3.15625.328125-4.3125.984375s-1.78125 1.898438-1.875 3.71875h-4.078125c.0625-1.53125.378906-2.820312.953125-3.875.582031-1.0625 1.351563-1.921875 2.3125-2.578125.957031-.65625 2.050781-1.125 3.28125-1.40625 1.238281-.289063 2.5625-.4375 3.96875-.4375 1.113281 0 2.222656.085937 3.328125.25 1.101562.15625 2.101562.484375 3 .984375.894531.492188 1.613281 1.183594 2.15625 2.078125.550781.898437.828125 2.0625.828125 3.5v12.765625c0 .960938.050781 1.664062.15625 2.109375.113281.449219.492187.671875 1.140625.671875.351562 0 .769531-.078125 1.25-.234375zm-6.625-12.71875c-.523438.386719-1.199219.667969-2.03125.84375-.824219.167969-1.695312.308594-2.609375.421875-.90625.117187-1.828125.246094-2.765625.390625-.929688.148438-1.761719.382812-2.5.703125-.730469.3125-1.328125.765625-1.796875 1.359375-.460937.59375-.6875 1.402344-.6875 2.421875 0 .679687.132813 1.25.40625 1.71875.269531.460937.617187.835937 1.046875 1.125.4375.28125.941406.484375 1.515625.609375.582031.125 1.191406.1875 1.828125.1875 1.34375 0 2.492188-.179688 3.453125-.546875.96875-.363281 1.753906-.828125 2.359375-1.390625.601562-.5625 1.050781-1.171875 1.34375-1.828125.289062-.65625.4375-1.269531.4375-1.84375zm0 0"/></symbol><symbol id="h" overflow="visible"/><symbol id="i" overflow="visible"><path d="m11.515625-30.4375v30.4375h4.5625v-30.4375h11.421875v-3.828125h-27.40625v3.828125zm0 0"/></symbol><symbol id="j" overflow="visible"><path d="m9.75-13.0625-9.3125 13.0625h4.9375l6.90625-10.265625 6.921875 10.265625h5.234375l-9.609375-13.390625 8.546875-11.421875h-4.890625l-6.203125 8.6875-5.9375-8.6875h-5.234375zm0 0"/></symbol><symbol id="k" overflow="visible"><path d="m3.078125-24.8125v24.8125h4.078125v-14.015625c0-1.125.148438-2.15625.453125-3.09375.300781-.945313.753906-1.769531 1.359375-2.46875.613281-.707031 1.375-1.253906 2.28125-1.640625.914062-.382812 2-.578125 3.25-.578125 1.5625 0 2.789062.449219 3.6875 1.34375.894531.898437 1.34375 2.117187 1.34375 3.65625v16.796875h4.078125v-16.3125c0-1.351562-.136719-2.578125-.40625-3.671875-.273437-1.101563-.746094-2.054687-1.421875-2.859375-.667969-.800781-1.546875-1.425781-2.640625-1.875-1.085937-.445312-2.4375-.671875-4.0625-.671875-3.6875 0-6.375 1.507813-8.0625 4.515625h-.109375v-3.9375zm0 0"/></symbol><symbol id="l" overflow="visible"><path d="m27.84375-23.953125h4.5625c-.261719-1.820313-.808594-3.425781-1.640625-4.8125-.835937-1.394531-1.875-2.554687-3.125-3.484375-1.242187-.925781-2.664063-1.628906-4.265625-2.109375-1.605469-.488281-3.304688-.734375-5.09375-.734375-2.617188 0-4.945312.476562-6.984375 1.421875-2.03125.949219-3.730469 2.242187-5.09375 3.875-1.355469 1.625-2.386719 3.539063-3.09375 5.734375-.699219 2.1875-1.046875 4.527344-1.046875 7.015625 0 2.5.328125 4.839844.984375 7.015625.65625 2.179688 1.640625 4.070312 2.953125 5.671875 1.3125 1.59375 2.957031 2.851563 4.9375 3.765625 1.988281.90625 4.3125 1.359375 6.96875 1.359375 4.382812 0 7.835938-1.195313 10.359375-3.59375 2.53125-2.40625 4.019531-5.765625 4.46875-10.078125h-4.5625c-.09375 1.40625-.382813 2.71875-.859375 3.9375-.480469 1.210938-1.148438 2.257812-2 3.140625-.84375.875-1.851562 1.5625-3.015625 2.0625-1.167969.492187-2.507813.734375-4.015625.734375-2.042969 0-3.804688-.378906-5.28125-1.140625-1.46875-.769531-2.679688-1.800781-3.625-3.09375-.9375-1.300781-1.632812-2.820313-2.078125-4.5625-.449219-1.75-.671875-3.597656-.671875-5.546875 0-1.789062.222656-3.519531.671875-5.1875.445313-1.664062 1.140625-3.144531 2.078125-4.4375.945312-1.289062 2.148438-2.320312 3.609375-3.09375 1.457031-.769531 3.207031-1.15625 5.25-1.15625 2.40625 0 4.476563.609375 6.21875 1.828125 1.75 1.21875 2.878906 3.042969 3.390625 5.46875zm0 0"/></symbol><symbol id="m" overflow="visible"><path d="m3.078125-34.265625v34.265625h4.078125v-14.015625c0-1.125.148438-2.15625.453125-3.09375.300781-.945313.753906-1.769531 1.359375-2.46875.613281-.707031 1.375-1.253906 2.28125-1.640625.914062-.382812 2-.578125 3.25-.578125 1.5625 0 2.789062.449219 3.6875 1.34375.894531.898437 1.34375 2.117187 1.34375 3.65625v16.796875h4.078125v-16.3125c0-1.351562-.136719-2.578125-.40625-3.671875-.273437-1.101563-.746094-2.054687-1.421875-2.859375-.667969-.800781-1.546875-1.425781-2.640625-1.875-1.085937-.445312-2.4375-.671875-4.0625-.671875-.742187 0-1.507813.085937-2.296875.25-.78125.15625-1.53125.402344-2.25.734375-.71875.335938-1.367188.765625-1.9375 1.296875-.574219.53125-1.023438 1.179687-1.34375 1.9375h-.09375v-13.09375zm0 0"/></symbol><symbol id="n" overflow="visible"><path d="m20.296875-14.78125h-14.25c.0625-.957031.269531-1.859375.625-2.703125.351563-.851563.832031-1.597656 1.4375-2.234375.613281-.644531 1.34375-1.148438 2.1875-1.515625.84375-.375 1.796875-.5625 2.859375-.5625 1.019531 0 1.953125.1875 2.796875.5625.851563.367187 1.59375.859375 2.21875 1.484375s1.117187 1.371094 1.484375 2.234375c.363281.867187.578125 1.777344.640625 2.734375zm3.9375 6.90625h-4.03125c-.34375 1.636719-1.070313 2.855469-2.171875 3.65625-1.105469.792969-2.523438 1.1875-4.25 1.1875-1.34375 0-2.515625-.222656-3.515625-.671875-.992187-.445313-1.808594-1.046875-2.453125-1.796875-.636719-.75-1.101562-1.609375-1.390625-2.578125-.28125-.976563-.40625-2.015625-.375-3.109375h18.578125c.0625-1.5-.074219-3.082031-.40625-4.75-.335938-1.664062-.945312-3.203125-1.828125-4.609375-.875-1.40625-2.042969-2.5625-3.5-3.46875-1.460937-.914063-3.292969-1.375-5.5-1.375-1.699219 0-3.261719.324219-4.6875.96875-1.417969.636719-2.648437 1.53125-3.6875 2.6875-1.042969 1.148437-1.851563 2.507813-2.421875 4.078125-.574219 1.5625-.859375 3.289062-.859375 5.171875.0625 1.898437.335937 3.648437.828125 5.25.5 1.59375 1.242188 2.96875 2.234375 4.125.988281 1.148437 2.210937 2.042969 3.671875 2.6875 1.457031.632813 3.175781.953125 5.15625.953125 2.820312 0 5.160156-.703125 7.015625-2.109375 1.851563-1.414063 3.050781-3.515625 3.59375-6.296875zm0 0"/></symbol><symbol id="o" overflow="visible"><path d="m3.078125-24.8125v24.8125h4.078125v-15.453125c0-.476563.117188-1.078125.359375-1.796875.238281-.726562.617187-1.425781 1.140625-2.09375.53125-.675781 1.21875-1.253906 2.0625-1.734375.851562-.476563 1.875-.71875 3.0625-.71875.925781 0 1.679688.140625 2.265625.421875.59375.273438 1.066406.65625 1.421875 1.15625.351562.492188.601562 1.074219.75 1.75.144531.667969.21875 1.402344.21875 2.203125v16.265625h4.078125v-15.453125c0-1.925781.570313-3.460937 1.71875-4.609375 1.15625-1.15625 2.738281-1.734375 4.75-1.734375 1 0 1.8125.148437 2.4375.4375.625.292969 1.109375.6875 1.453125 1.1875.351562.492187.59375 1.074219.71875 1.75.132812.667969.203125 1.386719.203125 2.15625v16.265625h4.078125v-18.1875c0-1.28125-.203125-2.375-.609375-3.28125-.398437-.914062-.953125-1.660156-1.671875-2.234375-.71875-.582031-1.585938-1.007813-2.59375-1.28125-1.011719-.269531-2.140625-.40625-3.390625-.40625-1.625 0-3.121094.371094-4.484375 1.109375-1.355469.730469-2.449219 1.765625-3.28125 3.109375-.511719-1.53125-1.390625-2.613281-2.640625-3.25-1.25-.644531-2.640625-.96875-4.171875-.96875-3.492188 0-6.164062 1.40625-8.015625 4.21875h-.109375v-3.640625zm0 0"/></symbol><symbol id="p" overflow="visible"><path d="m23.5625-24.234375h4.328125c-.0625-1.894531-.421875-3.519531-1.078125-4.875-.65625-1.363281-1.554688-2.492187-2.6875-3.390625-1.136719-.894531-2.460938-1.550781-3.96875-1.96875-1.5-.414062-3.132812-.625-4.890625-.625-1.574219 0-3.105469.203125-4.59375.609375-1.480469.398437-2.808594 1.007813-3.984375 1.828125-1.167969.8125-2.105469 1.855469-2.8125 3.125-.699219 1.261719-1.046875 2.75-1.046875 4.46875 0 1.574219.3125 2.882812.9375 3.921875.625 1.042969 1.457031 1.890625 2.5 2.546875 1.039063.65625 2.21875 1.183594 3.53125 1.578125 1.3125.398437 2.644531.75 4 1.0625 1.363281.304687 2.703125.601563 4.015625.890625 1.3125.28125 2.484375.65625 3.515625 1.125 1.039063.460938 1.875 1.058594 2.5 1.796875.625.730469.9375 1.6875.9375 2.875 0 1.25-.257813 2.277344-.765625 3.078125-.511719.804688-1.183594 1.4375-2.015625 1.90625-.835937.460938-1.773437.78125-2.8125.96875-1.042969.1875-2.074219.28125-3.09375.28125-1.28125 0-2.53125-.15625-3.75-.46875-1.210937-.320312-2.273437-.816406-3.1875-1.484375-.90625-.675781-1.640625-1.535156-2.203125-2.578125-.5625-1.039062-.84375-2.28125-.84375-3.71875h-4.3125c0 2.085938.375 3.886719 1.125 5.40625.75 1.523438 1.769531 2.773438 3.0625 3.75 1.300781.96875 2.804688 1.695312 4.515625 2.171875 1.71875.476563 3.535156.71875 5.453125.71875 1.5625 0 3.132812-.1875 4.71875-.5625 1.59375-.363281 3.023438-.953125 4.296875-1.765625 1.28125-.8125 2.328125-1.863281 3.140625-3.15625.820312-1.300781 1.234375-2.863281 1.234375-4.6875 0-1.695312-.3125-3.101562-.9375-4.21875-.625-1.125-1.460937-2.050781-2.5-2.78125-1.03125-.738281-2.203125-1.320312-3.515625-1.75-1.3125-.4375-2.652344-.816406-4.015625-1.140625-1.367187-.320313-2.703125-.617187-4.015625-.890625-1.304688-.269531-2.476562-.613281-3.515625-1.03125-1.042969-.414062-1.875-.953125-2.5-1.609375s-.9375-1.507813-.9375-2.5625c0-1.125.210937-2.0625.640625-2.8125.4375-.75 1.015625-1.347656 1.734375-1.796875.71875-.445312 1.539063-.765625 2.46875-.953125.925781-.195313 1.875-.296875 2.84375-.296875 2.363281 0 4.304687.554688 5.828125 1.65625 1.519531 1.105469 2.40625 2.890625 2.65625 5.359375zm0 0"/></symbol><symbol id="q" overflow="visible"><path d="m8.734375-24.8125v-7.4375h-4.078125v7.4375h-4.21875v3.59375h4.21875v15.796875c0 1.148437.109375 2.074219.328125 2.78125.226563.710937.570313 1.257813 1.03125 1.640625.46875.375 1.078125.636719 1.828125.78125.75.1484375 1.65625.21875 2.71875.21875h3.125v-3.59375h-1.875c-.648438 0-1.171875-.023438-1.578125-.078125-.398437-.050781-.710937-.15625-.9375-.3125-.21875-.15625-.371094-.378906-.453125-.671875-.074219-.289062-.109375-.675781-.109375-1.15625v-15.40625h4.953125v-3.59375zm0 0"/></symbol><symbol id="r" overflow="visible"><path d="m2.921875-24.8125v24.8125h4.09375v-11.046875c0-1.59375.15625-3.003906.46875-4.234375.320313-1.238281.832031-2.289062 1.53125-3.15625.707031-.863281 1.632813-1.519531 2.78125-1.96875 1.15625-.445312 2.550781-.671875 4.1875-.671875v-4.3125c-2.210937-.0625-4.03125.386719-5.46875 1.34375-1.4375.960937-2.65625 2.449219-3.65625 4.46875h-.09375v-5.234375zm0 0"/></symbol><symbol id="s" overflow="visible"><path d="m23.609375 0v-24.8125h-4.078125v14.015625c0 1.117187-.152344 2.148437-.453125 3.09375-.304687.949219-.761719 1.777344-1.375 2.484375-.605469.699219-1.367187 1.242188-2.28125 1.625-.90625.375-1.984375.5625-3.234375.5625-1.5625 0-2.792969-.445312-3.6875-1.34375-.898438-.894531-1.34375-2.109375-1.34375-3.640625v-16.796875h-4.078125v16.3125c0 1.34375.132813 2.570312.40625 3.671875.269531 1.105469.738281 2.058594 1.40625 2.859375.675781.804688 1.554687 1.421875 2.640625 1.859375 1.09375.425781 2.453125.640625 4.078125.640625 1.832031 0 3.421875-.359375 4.765625-1.078125s2.445312-1.847656 3.3125-3.390625h.09375v3.9375zm0 0"/></symbol><symbol id="t" overflow="visible"><path d="m3.75-34.265625v34.265625h4.546875v-14.640625h11.140625c1.125 0 2.019531.171875 2.6875.515625.675781.335938 1.222656.78125 1.640625 1.34375.414063.554688.71875 1.203125.90625 1.953125s.347656 1.542969.484375 2.375c.15625.835937.25 1.683594.28125 2.546875.03125.867188.0625 1.671875.09375 2.421875s.101562 1.433594.21875 2.046875c.113281.605469.332031 1.085938.65625 1.4375h5.078125c-.480469-.570312-.839844-1.234375-1.078125-1.984375-.242188-.757813-.429688-1.550781-.5625-2.375-.125-.832031-.203125-1.679687-.234375-2.546875-.03125-.863281-.078125-1.710938-.140625-2.546875-.09375-.832031-.230469-1.632813-.40625-2.40625-.179688-.769531-.449219-1.460937-.8125-2.078125-.367188-.625-.859375-1.160156-1.484375-1.609375-.625-.445313-1.433594-.769531-2.421875-.96875v-.09375c2.070312-.570313 3.578125-1.640625 4.515625-3.203125.945313-1.570312 1.421875-3.398438 1.421875-5.484375 0-2.78125-.921875-4.96875-2.765625-6.5625-1.835937-1.601563-4.382813-2.40625-7.640625-2.40625zm14.0625 15.78125h-9.515625v-11.953125h11.328125c2.144531 0 3.695312.546875 4.65625 1.640625.96875 1.085937 1.453125 2.492187 1.453125 4.21875 0 1.25-.21875 2.265625-.65625 3.046875-.429687.78125-1.007813 1.40625-1.734375 1.875-.71875.46875-1.558594.78125-2.515625.9375-.960937.15625-1.964844.234375-3.015625.234375zm0 0"/></symbol><symbol id="u" overflow="visible"><path d="m4.75-21.21875v21.21875h4.078125v-21.21875h4.796875v-3.59375h-4.796875v-3.453125c0-1.09375.269531-1.832031.8125-2.21875.550781-.382813 1.320313-.578125 2.3125-.578125.351563 0 .738281.027344 1.15625.078125.414063.054687.796875.140625 1.140625.265625v-3.546875c-.375-.132813-.8125-.234375-1.3125-.296875s-.945312-.09375-1.328125-.09375c-2.242187 0-3.945313.523438-5.109375 1.5625-1.167969 1.042969-1.75 2.570312-1.75 4.578125v3.703125h-4.171875v3.59375zm0 0"/></symbol><symbol id="v" overflow="visible"><path d="m31.109375-12.390625v-21.875h-4.5625v21.875c0 3.074219-.761719 5.402344-2.28125 6.984375-1.523437 1.585938-3.742187 2.375-6.65625 2.375-3.0625 0-5.414063-.789062-7.046875-2.375-1.636719-1.582031-2.453125-3.910156-2.453125-6.984375v-21.875h-4.5625v21.875c0 4.585937 1.238281 7.921875 3.71875 10.015625 2.476563 2.09375 5.925781 3.140625 10.34375 3.140625 4.320313 0 7.648437-1.09375 9.984375-3.28125 2.34375-2.195313 3.515625-5.488281 3.515625-9.875zm0 0"/></symbol><symbol id="w" overflow="visible"><path d="m5.5625-7.828125h-4.078125c.0625 1.542969.378906 2.851563.953125 3.921875.582031 1.074219 1.351562 1.9375 2.3125 2.59375.957031.648438 2.0625 1.117188 3.3125 1.40625s2.5625.4375 3.9375.4375c1.25 0 2.503906-.121094 3.765625-.359375 1.257813-.2382812 2.394531-.660156 3.40625-1.265625 1.007813-.613281 1.828125-1.414062 2.453125-2.40625.625-.988281.9375-2.238281.9375-3.75 0-1.1875-.234375-2.175781-.703125-2.96875-.460937-.800781-1.070313-1.46875-1.828125-2-.75-.53125-1.617188-.953125-2.59375-1.265625-.96875-.320313-1.964844-.59375-2.984375-.8125-.960937-.226563-1.921875-.445313-2.890625-.65625-.960938-.207031-1.824219-.460937-2.59375-.765625-.761719-.300781-1.390625-.679688-1.890625-1.140625-.492187-.46875-.734375-1.054687-.734375-1.765625 0-.632812.15625-1.148438.46875-1.546875.320312-.40625.738281-.726563 1.25-.96875.507812-.238281 1.078125-.40625 1.703125-.5.625-.101563 1.238281-.15625 1.84375-.15625.675781 0 1.34375.074219 2 .21875.65625.148437 1.253906.382813 1.796875.703125.539062.3125.988281.734375 1.34375 1.265625.351562.53125.5625 1.199219.625 2h4.078125c-.09375-1.507813-.414063-2.765625-.953125-3.765625-.542969-1.007812-1.273438-1.8125-2.1875-2.40625-.917969-.59375-1.96875-1.007812-3.15625-1.25-1.179688-.238281-2.46875-.359375-3.875-.359375-1.09375 0-2.195312.136719-3.296875.40625-1.09375.273437-2.085937.6875-2.96875 1.25-.875.5625-1.59375 1.292969-2.15625 2.1875-.5625.898437-.84375 1.964844-.84375 3.203125 0 1.605469.398437 2.855469 1.203125 3.75.800781.898438 1.800781 1.59375 3 2.09375 1.195312.492188 2.5.875 3.90625 1.15625 1.40625.273438 2.707031.574219 3.90625.90625 1.207031.335938 2.207031.777344 3 1.328125.800781.542969 1.203125 1.339844 1.203125 2.390625 0 .773438-.195313 1.40625-.578125 1.90625-.375.492188-.859375.867188-1.453125 1.125-.59375.25-1.246094.421875-1.953125.515625-.699219.09375-1.371094.140625-2.015625.140625-.835937 0-1.640625-.078125-2.421875-.234375s-1.484375-.414063-2.109375-.78125c-.625-.375-1.132813-.875-1.515625-1.5-.386719-.625-.59375-1.382813-.625-2.28125zm0 0"/></symbol><symbol id="x" overflow="visible"><path d="m6.046875-12.1875c0-1.21875.125-2.398438.375-3.546875.257813-1.15625.675781-2.179687 1.25-3.078125.582031-.894531 1.351563-1.613281 2.3125-2.15625.957031-.550781 2.125-.828125 3.5-.828125 1.40625 0 2.601563.265625 3.59375.796875 1 .53125 1.8125 1.230469 2.4375 2.09375.625.867188 1.078125 1.867188 1.359375 3 .289062 1.136719.4375 2.308594.4375 3.515625 0 1.15625-.136719 2.296875-.40625 3.421875-.273438 1.117188-.714844 2.117188-1.328125 3-.605469.875-1.386719 1.585938-2.34375 2.125-.960937.542969-2.125.8125-3.5.8125-1.3125 0-2.460937-.253906-3.4375-.765625-.980469-.507813-1.78125-1.195313-2.40625-2.0625-.625-.863281-1.089844-1.847656-1.390625-2.953125-.304688-1.101562-.453125-2.226562-.453125-3.375zm19.203125 12.1875v-34.265625h-4.078125v12.765625h-.09375c-.449219-.738281-1-1.351562-1.65625-1.84375-.65625-.5-1.355469-.898438-2.09375-1.203125-.742187-.3125-1.480469-.53125-2.21875-.65625-.730469-.125-1.414063-.1875-2.046875-.1875-1.898438 0-3.558594.34375-4.984375 1.03125-1.417969.6875-2.601563 1.617187-3.546875 2.78125-.9375 1.167969-1.640625 2.539063-2.109375 4.109375-.460937 1.5625-.6875 3.226562-.6875 4.984375 0 1.761719.238281 3.429687.71875 5 .476563 1.5625 1.1875 2.9375 2.125 4.125.945313 1.1875 2.128906 2.136719 3.546875 2.84375 1.425781.695313 3.101562 1.046875 5.03125 1.046875 1.726562 0 3.3125-.304688 4.75-.90625 1.4375-.613281 2.492188-1.609375 3.171875-2.984375h.09375v3.359375zm0 0"/></symbol><symbol id="y" overflow="visible"><path d="m3.984375-5.328125v5.328125h2.828125c.03125.382812.003906.800781-.078125 1.25-.074219.445312-.226563.882812-.453125 1.3125-.21875.4375-.515625.835938-.890625 1.203125-.367187.363281-.820313.644531-1.359375.84375v2.40625c1.851562-.554687 3.195312-1.484375 4.03125-2.796875.832031-1.3125 1.25-2.882812 1.25-4.703125v-4.84375zm0 0"/></symbol><symbol id="z" overflow="visible"><path d="m12.8125 3.3125c-.480469 1.21875-.953125 2.238281-1.421875 3.0625-.460937.832031-.96875 1.515625-1.53125 2.046875-.554687.53125-1.179687.914063-1.875 1.15625-.6875.238281-1.480469.359375-2.375.359375-.480469 0-.960937-.03125-1.4375-.09375-.480469-.0625-.945313-.179688-1.390625-.34375v-3.734375c.351562.15625.757812.289063 1.21875.40625.46875.113281.863281.171875 1.1875.171875.832031 0 1.523438-.203125 2.078125-.609375.5625-.398437.988281-.964844 1.28125-1.703125l1.671875-4.171875-9.828125-24.671875h4.59375l7.25 20.296875h.109375l6.953125-20.296875h4.3125zm0 0"/></symbol><symbol id="A" overflow="visible"><path d="m9.640625-14.15625 5.8125-15.984375h.09375l5.71875 15.984375zm3.421875-20.109375-13.34375 34.265625h4.65625l3.828125-10.3125h14.5l3.75 10.3125h5.03125l-13.390625-34.265625zm0 0"/></symbol><symbol id="B" overflow="visible"><path d="m14.25 0 9.078125-24.8125h-4.265625l-6.78125 20.6875h-.09375l-6.953125-20.6875h-4.5625l9.21875 24.8125zm0 0"/></symbol><symbol id="C" overflow="visible"><path d="m3.21875-34.265625v34.265625h4.078125v-3.3125h.09375c.445313.742188 1 1.359375 1.65625 1.859375.65625.492187 1.347656.882813 2.078125 1.171875.738281.28125 1.484375.484375 2.234375.609375.757813.132813 1.441406.203125 2.046875.203125 1.882812 0 3.539062-.335938 4.96875-1 1.425781-.675781 2.609375-1.597656 3.546875-2.765625.945313-1.164063 1.648437-2.535156 2.109375-4.109375.46875-1.570312.703125-3.238281.703125-5 0-1.75-.242187-3.410156-.71875-4.984375-.480469-1.570313-1.195313-2.957031-2.140625-4.15625-.9375-1.195313-2.121094-2.144531-3.546875-2.84375-1.429687-.707031-3.101563-1.0625-5.015625-1.0625-1.730469 0-3.3125.3125-4.75.9375s-2.496094 1.625-3.171875 3h-.09375v-12.8125zm19.203125 21.640625c0 1.21875-.132813 2.40625-.390625 3.5625-.261719 1.148438-.679688 2.167969-1.25 3.0625-.574219.898438-1.335938 1.617188-2.28125 2.15625-.9375.542969-2.117188.8125-3.53125.8125-1.40625 0-2.605469-.257812-3.59375-.78125-.992188-.53125-1.796875-1.226562-2.421875-2.09375-.625-.863281-1.085937-1.863281-1.375-3-.28125-1.132812-.421875-2.3125-.421875-3.53125 0-1.144531.132812-2.273438.40625-3.390625.269531-1.125.707031-2.125 1.3125-3 .613281-.882813 1.398438-1.597656 2.359375-2.140625.957031-.550781 2.125-.828125 3.5-.828125 1.3125 0 2.453125.261719 3.421875.78125.976562.511719 1.78125 1.199219 2.40625 2.0625.625.867187 1.085938 1.851563 1.390625 2.953125.3125 1.09375.46875 2.21875.46875 3.375zm0 0"/></symbol><symbol id="D" overflow="visible"><path d="m3.703125-34.265625v34.265625h4.3125v-27.5h.09375l17.90625 27.5h5v-34.265625h-4.328125v27.78125h-.09375l-18.046875-27.78125zm0 0"/></symbol><symbol id="E" overflow="visible"><path d="m8.296875-17.859375v-12.578125h8.9375c2.59375 0 4.488281.539062 5.6875 1.609375 1.195313 1.074219 1.796875 2.636719 1.796875 4.6875 0 2.042969-.601562 3.609375-1.796875 4.703125-1.199219 1.085938-3.09375 1.609375-5.6875 1.578125zm-4.546875-16.40625v34.265625h4.546875v-14.015625h10.46875c3.457031.03125 6.070313-.847656 7.84375-2.640625 1.78125-1.789062 2.671875-4.285156 2.671875-7.484375 0-3.195313-.890625-5.679687-2.671875-7.453125-1.773437-1.78125-4.386719-2.671875-7.84375-2.671875zm0 0"/></symbol><symbol id="F" overflow="visible"><path d="m8.296875-3.84375v-26.59375h7.6875c2.113281 0 3.890625.296875 5.328125.890625s2.609375 1.460937 3.515625 2.59375c.914063 1.136719 1.570313 2.511719 1.96875 4.125.40625 1.617187.609375 3.449219.609375 5.5 0 2.117187-.21875 3.917969-.65625 5.40625-.429688 1.480469-.980469 2.71875-1.65625 3.71875-.667969.992187-1.429688 1.777344-2.28125 2.359375-.84375.574219-1.699219 1.011719-2.5625 1.3125-.867188.304688-1.683594.496094-2.453125.578125-.761719.074219-1.398437.109375-1.90625.109375zm-4.546875-30.421875v34.265625h11.75c2.851562 0 5.316406-.398438 7.390625-1.203125 2.082031-.800781 3.796875-1.957031 5.140625-3.46875 1.34375-1.519531 2.332031-3.390625 2.96875-5.609375.644531-2.226562.96875-4.785156.96875-7.671875 0-5.5-1.429688-9.59375-4.28125-12.28125-2.84375-2.6875-6.90625-4.03125-12.1875-4.03125zm0 0"/></symbol><path d="m0 0h1920v1080h-1920z" fill="#fff"/><path d="m1550.949219 591.617188h8.820312v-151.179688h-8.820312zm18.226562 0h27.042969v-151.179688h-27.042969zm35.863281-151.179688v151.175781h27.039063v-151.175781zm0 0" fill="#900"/><path d="m1768.53125 591.628906h8.820312v-151.191406h-8.820312zm18.230469-151.191406v151.191406h8.816406v-151.191406zm-145.570313 151.191406h8.820313v-151.191406h-8.820313zm18.226563-151.191406v151.183594h8.820312v-151.183594zm0 0" fill="#396"/><path d="m1677.347656 591.628906h27.046875v-151.191406h-27.046875zm35.863282 0h9.402343v-151.191406h-9.402343zm18.222656-151.191406v151.183594h27.042968v-151.183594zm0 0" fill="#069"/><path d="m1782.144531 608.269531 13.914063 31.351563h-8.394532l-2.582031-6.191406h-14.023437l-2.335938 6.191406h-8.28125l12.632813-31.351563zm.628907 19.683594-5.050782-12.1875-4.601562 12.1875zm-18.226563-19.683594v5.746094h-11.355469v25.605469h-7.808594v-25.605469h-11.355468v-5.746094zm-40.394531 0 13.914062 31.351563h-8.394531l-2.578125-6.191406h-14.027344l-2.335937 6.191406h-8.28125l12.636719-31.351563zm.628906 19.683594-5.050781-12.1875-4.601563 12.1875zm-53.390625-19.683594h13.824219c5.339844 0 9.558594 1.464844 12.65625 4.398438 3.113281 2.917969 4.667968 6.695312 4.667968 11.335937 0 4.859375-1.578124 8.683594-4.734374 11.464844-3.144532 2.769531-7.628907 4.152344-13.464844 4.152344h-12.949219zm7.808594 5.746094v19.859375h5.09375c3.308593 0 5.835937-.902344 7.585937-2.714844 1.75-1.824218 2.625-4.226562 2.625-7.203125 0-3.082031-.890625-5.503906-2.667968-7.269531-1.765626-1.78125-4.308594-2.671875-7.632813-2.671875zm-15.035157-5.746094v31.351563h-7.8125v-31.351563zm-14.792968 0-10.210938 14.722657 13.847656 16.628906h-9.785156l-12.410156-14.699219v14.699219h-7.808594v-31.351563h7.808594v14.117188l9.964844-14.117188zm-33.59375 0v31.351563h-7.808594v-31.351563zm-38.464844 11.3125-9.695312 20.445313h-3.367188l-13.78125-31.757813h8.28125l7.382812 17.324219 8.058594-17.324219h6.285156l8.054688 17.324219 7.339844-17.324219h8.28125l-13.734375 31.757813h-3.367188z" fill="#484848"/><path d="m7.673188 0h56.464843" style="fill:none;stroke-width:6;stroke-linecap:round;stroke-linejoin:round;stroke:#929292;stroke-dasharray:.006 18;stroke-dashoffset:.5" transform="translate(1417.319 540)"/><path d="m1478.460938 552 24-12-24-12zm0 0" fill="#929292"/><path d="m1417.320312 528 12 12-12 12zm0 0" fill="#929292"/><path d="m7.6737 0h56.464844" style="fill:none;stroke-width:6;stroke-linecap:round;stroke-linejoin:round;stroke:#929292;stroke-dasharray:.006 18;stroke-dashoffset:.5" transform="translate(451.2013 540)"/><path d="m512.339844 552 24-12-24-12zm0 0" fill="#929292"/><path d="m451.203125 528 12 12-12 12zm0 0" fill="#929292"/><g fill="#900"><use x="607.0463" xlink:href="#a" y="553.9591"/><use x="639.9263" xlink:href="#b" y="553.9591"/><use x="650.5823" xlink:href="#c" y="553.9591"/><use x="678.1343" xlink:href="#d" y="553.9591"/><use x="688.7903" xlink:href="#c" y="553.9591"/><use x="716.3423" xlink:href="#e" y="553.9591"/><use x="743.8943" xlink:href="#b" y="553.9591"/><use x="754.5503" xlink:href="#f" y="553.9591"/><use x="780.3263" xlink:href="#g" y="553.9591"/><use x="806.1023" xlink:href="#d" y="553.9591"/><use x="816.7583" xlink:href="#h" y="553.9591"/><use x="648.3503" xlink:href="#i" y="605.3935"/><use x="670.5743" xlink:href="#g" y="605.3935"/><use x="696.3503" xlink:href="#j" y="605.3935"/><use x="721.2143" xlink:href="#c" y="605.3935"/><use x="748.7663" xlink:href="#k" y="605.3935"/></g><g fill="#069"><use x="1126.289" xlink:href="#l" y="553.9591"/><use x="1160.945" xlink:href="#m" y="553.9591"/><use x="1187.633" xlink:href="#n" y="553.9591"/><use x="1213.409" xlink:href="#o" y="553.9591"/><use x="1254.353" xlink:href="#b" y="553.9591"/><use x="1265.009" xlink:href="#f" y="553.9591"/><use x="1290.785" xlink:href="#g" y="553.9591"/><use x="1316.561" xlink:href="#d" y="553.9591"/><use x="1327.217" xlink:href="#h" y="553.9591"/><use x="1128.065" xlink:href="#p" y="605.3935"/><use x="1159.169" xlink:href="#q" y="605.3935"/><use x="1174.289" xlink:href="#r" y="605.3935"/><use x="1190.273" xlink:href="#s" y="605.3935"/><use x="1216.961" xlink:href="#f" y="605.3935"/><use x="1242.737" xlink:href="#q" y="605.3935"/><use x="1257.857" xlink:href="#s" y="605.3935"/><use x="1284.545" xlink:href="#r" y="605.3935"/><use x="1299.665" xlink:href="#n" y="605.3935"/></g><g fill="#396"><path d="m1011.21875 498.757812-38.507812 15.082032-.058594.011718c-3.472656 1.550782-6.019532 4.304688-7.574219 8.167969-1.390625 3.460938-1.5 6.707031-1.5 7.621094v1.800781l63.976563-24.722656-3.023438-1.476562-56.023438 21.65625c1.703126-2.3125 4.46875-4.332032 8.269532-6.027344l44.050781-17.429688-3-1.464844-41.980469 16.605469-.042968.019531c-4.152344 1.851563-7.234376 4.097657-9.203126 6.71875.777344-3.175781 2.628907-7.230468 7.027344-9.203124l40.597656-15.894532zm-98.738281.011719-3.023438 1.464844 40.550781 15.882813c4.398438 1.972656 6.25 6.027343 7.03125 9.203124-1.972656-2.621093-5.050781-4.871093-9.203124-6.71875l-41.992188-16.613281-3.007812 1.464844 44.023437 17.417969c3.804687 1.695312 6.570313 3.714844 8.273437 6.027344l-56.003906-21.644532-3.03125 1.476563 63.960938 24.710937v-1.800781c0-.914063-.105469-4.160156-1.5-7.621094-1.554688-3.863281-4.097656-6.617187-7.574219-8.167969zm-25.015625 11.050781v99.15625l60.289062 23.609376v-99.144532zm148.722656 0-60.292969 23.621094v99.144532l60.292969-23.609376zm-84.515625 26.082032v100.554687h20.308594v-100.554687zm0 0"/><use x="851.112" xlink:href="#t" y="698.5502"/><use x="883.992" xlink:href="#n" y="698.5502"/><use x="909.768" xlink:href="#u" y="698.5502"/><use x="923.976" xlink:href="#n" y="698.5502"/><use x="949.752" xlink:href="#r" y="698.5502"/><use x="964.872" xlink:href="#n" y="698.5502"/><use x="990.648" xlink:href="#k" y="698.5502"/><use x="1017.336" xlink:href="#f" y="698.5502"/><use x="1043.112" xlink:href="#n" y="698.5502"/></g><path d="m20.999625.00089375h98.21875" fill="none" stroke="#929292" stroke-width="6" transform="translate(889.891 422.9327)"/><path d="m1006.109375 434.933594 24-12-24-12zm0 0" fill="#929292"/><path d="m913.890625 410.933594-24 12 24 12zm0 0" fill="#929292"/><path d="m712.191406 371.492188c-5.6875 9.828124-9.449218 19.105468-11.738281 27.789062 2.878906 2.511719 5.539063 5.171875 7.976563 7.941406.554687-1.109375 3.761718-7.351562 3.761718-7.351562s3.222656 6.242187 3.777344 7.351562c2.398438-2.769531 5.058594-5.429687 7.976562-7.941406-2.328124-8.683594-6.066406-17.960938-11.753906-27.789062zm-32.023437 17.074218c-.589844 7.648438-.375 14.550782.4375 20.792969.039062 0 2.667969 7.574219 10.277343 14.1875 1.957032 1.734375 5.128907 4.800781 7.640626 8.3125.445312-1.550781 2.84375-10.53125 8.714843-22.316406-6.316406-7.425781-15.027343-14.660157-27.070312-20.976563zm64.011719 0c-12.042969 6.316406-20.789063 13.550782-27.070313 20.976563 5.875 11.820312 8.273437 20.765625 8.714844 22.316406 2.511719-3.511719 5.6875-6.578125 7.644531-8.3125 7.609375-6.648437 10.273438-14.1875 10.273438-14.1875.8125-6.242187 1.03125-13.144531.4375-20.792969zm-86.996094 11.925782c.480468 5.691406 1.035156 13.078124 6.097656 20.871093 2.878906 1.148438 6.652344 3.078125 9.535156 4.851563 1.105469-9.421875 4.5-16.855469 4.5-16.855469-6.945312-2.992187-12.003906-2.289063-20.132812-8.867187zm109.980468 0c-8.125 6.578124-13.1875 5.875-20.132812 8.867187 0 0 3.394531 7.433594 4.503906 16.855469 2.882813-1.773438 6.652344-3.703125 9.535156-4.851563 5.0625-7.792969 5.613282-15.179687 6.09375-20.871093zm-54.972656 4.433593c-17.914062 34.613281-14.992187 49.46875-9.121094 58.148438 4.582032 6.761719 13.671876 6.761719 18.253907 0 5.871093-8.679688 8.785156-23.535157-9.132813-58.148438zm-33.164062 6.695313c-3.878906 10.160156-10.6875 36.085937 8.816406 50.863281 4.101562 3.140625 8.945312 2.996094 12.308594.300781-3.179688-5.429687-5.804688-13.1875-2.367188-27.890625-7.460937-10.714843-12.960937-10.785156-18.757812-23.273437zm66.261718 0c-5.761718 12.523437-11.261718 12.558594-18.722656 23.273437 3.433594 14.703125.808594 22.460938-2.367187 27.890625 3.398437 2.660156 8.203125 2.839844 12.304687-.300781 19.46875-14.8125 12.699219-40.703125 8.785156-50.863281zm31.769532 8.601562c-9.300782.324219-17.929688 4.011719-25.1875 8.609375.957031 10.269531-.558594 22.457031-9.722656 31.875 1.070312-.035156 2.179687-.183593 3.324218-.402343 23.199219-4.398438 14.710938-22.386719 41.085938-39.195313-3.222656-.726563-6.398438-.996094-9.5-.886719zm-129.734375.035156c-3.097657-.105468-6.265625.15625-9.488281.886719 26.375 16.773438 17.875 34.796875 41.074218 39.195313 1.144532.21875 2.253906.339844 3.324219.414062-9.160156-9.457031-10.679687-21.652344-9.71875-31.886718-7.261719-4.625-15.890625-8.296876-25.191406-8.609376zm9.085937 24.53125c-4.726562.21875-10.226562 1.660157-16.324218 5.355469 5.0625 3.066407 9.714843 4.582031 13.890624 5.136719-3.472656 1.957031-9.125 5.839844-10.898437 11.417969 4.652344-2.363281 10.75-2.148438 14.1875-1.742188-2.4375 2.363281-4.839844 5.363281-7.019531 9.128907 11.007812 1.625 18.757812-.773438 24.117187-4.246094-1.035156 2.992187-3.875 6.757812-10.820312 8.53125 10.53125 3.285156 22.5 2.292968 30.664062-2.066406 2.585938 7.496093 9.671875 12.847656 18.019531 12.847656 8.347657 0 15.445313-5.386719 18.03125-12.847656 8.164063 4.359374 20.132813 5.351562 30.664063 2.066406-6.910156-1.773438-9.796875-5.578125-10.832031-8.53125 5.359375 3.507812 13.121094 5.871094 24.128906 4.246094-2.214844-3.765626-4.582031-6.765626-7.019531-9.128907 3.4375-.40625 9.535156-.621093 14.1875 1.742188-1.808594-5.578125-7.425781-9.496094-10.898438-11.417969 4.140625-.554688 8.792969-2.070312 13.890625-5.136719-6.171875-3.695312-11.675781-5.136719-16.40625-5.355469-4.097656 7.644532-9.789062 18.105469-28.410156 18.367188-4.101562 3.914062-10.371094 5.972656-16.578125 1.800781-2.585937 3.398438-6.46875 5.539063-10.792969 5.539063-4.320312 0-8.195312-2.140625-10.78125-5.539063-6.207031 4.171875-12.527344 2.113281-16.589844-1.800781-18.65625-.261719-24.347656-10.722656-28.410156-18.367188zm0 0" fill="#900"/><path d="m1171.859375 365.710938c-3.316406 0-6.675781.851562-9.753906 2.632812-9.3125 5.398438-12.480469 17.320312-7.082031 26.636719 3.617187 6.234375 10.15625 9.714843 16.882812 9.714843 1.613281 0 3.238281-.195312 4.835938-.609374l7.328124 12.644531c-3.417968 3.511719-5.527343 8.304687-5.527343 13.59375 0 5.285156 2.109375 10.078125 5.527343 13.589843l-7.328124 12.65625c-1.597657-.410156-3.222657-.621093-4.835938-.621093-6.726562 0-13.265625 3.480469-16.882812 9.71875-5.398438 9.3125-2.230469 21.246093 7.082031 26.644531 3.078125 1.785156 6.4375 2.621094 9.753906 2.621094 6.726563 0 13.265625-3.476563 16.882813-9.714844 4.480468-7.734375 3.050781-17.265625-2.894532-23.367188l7.332032-12.644531c1.550781.398438 3.179687.609375 4.855468.609375 8.941406 0 16.46875-6.019531 18.769532-14.226562h19.890624c2.296876 8.207031 9.828126 14.226562 18.765626 14.226562 1.675781 0 3.304687-.210937 4.859374-.609375l7.328126 12.644531c-5.945313 6.101563-7.375 15.632813-2.890626 23.367188 3.613282 6.238281 10.15625 9.714844 16.878907 9.714844 3.316406 0 6.675781-.835938 9.753906-2.621094 9.3125-5.398438 12.492187-17.332031 7.09375-26.644531-3.617187-6.238281-10.15625-9.71875-16.882813-9.71875-1.613281 0-3.234374.210937-4.832031.621093l-7.34375-12.65625c3.417969-3.511718 5.527344-8.304687 5.527344-13.589843 0-5.289063-2.109375-10.082031-5.527344-13.59375l7.34375-12.644531c1.597657.414062 3.21875.609374 4.832031.609374 6.726563 0 13.265626-3.480468 16.882813-9.714843 5.398437-9.316407 2.21875-21.238281-7.09375-26.636719-3.078125-1.78125-6.4375-2.632812-9.753906-2.632812-6.722657 0-13.265625 3.480468-16.878907 9.714843-4.484374 7.734375-3.054687 17.265625 2.890626 23.371094l-7.328126 12.640625c-1.554687-.398438-3.183593-.605469-4.859374-.605469-8.9375 0-16.46875 6.019531-18.765626 14.222657h-19.890624c-2.300782-8.203126-9.828126-14.222657-18.769532-14.222657-1.675781 0-3.304687.207031-4.855468.605469l-7.332032-12.640625c5.949219-6.105469 7.375-15.636719 2.894532-23.371094-3.617188-6.234375-10.15625-9.714843-16.882813-9.714843zm.011719 10.535156c3.191406 0 6.164062 1.707031 7.761718 4.460937 1.199219 2.070313 1.515626 4.492188.902344 6.800781-.617187 2.3125-2.085937 4.246094-4.15625 5.445313-1.386718.804687-2.890625 1.207031-4.472656 1.207031-3.195312 0-6.175781-1.707031-7.773438-4.460937-1.199218-2.070313-1.515624-4.492188-.902343-6.800781.617187-2.3125 2.085937-4.246094 4.15625-5.445313 1.386719-.804687 2.902343-1.207031 4.484375-1.207031zm109.765625 0c1.582031 0 3.085937.402344 4.472656 1.207031 2.070313 1.199219 3.554687 3.132813 4.167969 5.445313.617187 2.308593.285156 4.730468-.914063 6.800781-1.597656 2.753906-4.566406 4.460937-7.761719 4.460937-1.582031 0-3.085937-.402344-4.46875-1.207031-2.070312-1.199219-3.554687-3.132813-4.167968-5.445313-.617188-2.308593-.289063-4.730468.910156-6.800781 1.597656-2.753906 4.570312-4.460937 7.761719-4.460937zm-109.730469 90.242187c1.582031 0 3.085938.402344 4.472656 1.203125 2.070313 1.199219 3.539063 3.144532 4.15625 5.457032.613282 2.3125.296875 4.71875-.902344 6.789062-1.597656 2.757812-4.570312 4.472656-7.761718 4.472656-1.582032 0-3.097656-.414062-4.484375-1.21875-2.070313-1.199218-3.539063-3.128906-4.15625-5.441406-.613281-2.3125-.296875-4.722656.902343-6.792969 1.597657-2.753906 4.582032-4.46875 7.773438-4.46875zm109.695312 0c3.195313 0 6.164063 1.714844 7.761719 4.46875 1.203125 2.070313 1.53125 4.480469.914063 6.792969-.613282 2.3125-2.097656 4.242188-4.167969 5.441406-1.386719.804688-2.890625 1.207032-4.472656 1.207032-3.191407 0-6.164063-1.703126-7.761719-4.460938-1.199219-2.070312-1.527344-4.476562-.910156-6.789062.613281-2.3125 2.097656-4.257813 4.167968-5.457032 1.382813-.800781 2.886719-1.203125 4.46875-1.203125zm0 0" fill="#069"/><path d="m7.6726-.001375h55.742187" style="fill:none;stroke-width:6;stroke-linecap:round;stroke-linejoin:round;stroke:#929292;stroke-dasharray:.006 18;stroke-dashoffset:.5" transform="matrix(0 1 -1 0 961.983 425.3899)"/><path d="m949.984375 485.804688 12 24 12-24zm0 0" fill="#929292"/><path d="m973.984375 425.390625-12 12-12-12zm0 0" fill="#929292"/><use x="68.3061" xlink:href="#v" y="801.4645"/><use x="102.9621" xlink:href="#k" y="801.4645"/><use x="129.6501" xlink:href="#w" y="801.4645"/><use x="153.6501" xlink:href="#q" y="801.4645"/><use x="168.7701" xlink:href="#r" y="801.4645"/><use x="184.7541" xlink:href="#s" y="801.4645"/><use x="211.4421" xlink:href="#f" y="801.4645"/><use x="237.2181" xlink:href="#q" y="801.4645"/><use x="252.3381" xlink:href="#s" y="801.4645"/><use x="279.0261" xlink:href="#r" y="801.4645"/><use x="294.1461" xlink:href="#n" y="801.4645"/><use x="319.9221" xlink:href="#x" y="801.4645"/><use x="348.3861" xlink:href="#y" y="801.4645"/><use x="361.7301" xlink:href="#h" y="801.4645"/><use x="58.4901" xlink:href="#r" y="852.8989"/><use x="73.6101" xlink:href="#n" y="852.8989"/><use x="99.3861" xlink:href="#x" y="852.8989"/><use x="127.8501" xlink:href="#s" y="852.8989"/><use x="154.5381" xlink:href="#k" y="852.8989"/><use x="181.2261" xlink:href="#x" y="852.8989"/><use x="209.6901" xlink:href="#g" y="852.8989"/><use x="235.4661" xlink:href="#k" y="852.8989"/><use x="262.1541" xlink:href="#q" y="852.8989"/><use x="277.2741" xlink:href="#h" y="852.8989"/><use x="290.6181" xlink:href="#g" y="852.8989"/><use x="316.3941" xlink:href="#k" y="852.8989"/><use x="343.0821" xlink:href="#x" y="852.8989"/><use x="371.5461" xlink:href="#h" y="852.8989"/><use x="104.3301" xlink:href="#k" y="904.3333"/><use x="131.0181" xlink:href="#c" y="904.3333"/><use x="158.5701" xlink:href="#b" y="904.3333"/><use x="169.2261" xlink:href="#w" y="904.3333"/><use x="193.2261" xlink:href="#z" y="904.3333"/><use x="217.2261" xlink:href="#h" y="904.3333"/><use x="230.5701" xlink:href="#x" y="904.3333"/><use x="259.0341" xlink:href="#g" y="904.3333"/><use x="284.8101" xlink:href="#q" y="904.3333"/><use x="299.9301" xlink:href="#g" y="904.3333"/><g fill="#929292"><path d="m219.207031 428.054688c-13.238281 0-25.699219 1.828124-35.035156 5.179687-8.800781 3.144531-13.847656 7.324219-13.847656 11.460937 0 4.132813 5.046875 8.324219 13.847656 11.46875 9.335937 3.324219 21.796875 5.175782 35.035156 5.175782 13.242188 0 25.695313-1.828125 35.027344-5.175782 8.804687-3.144531 13.847656-7.335937 13.847656-11.46875 0-4.136718-5.042969-8.316406-13.847656-11.460937-9.332031-3.324219-21.785156-5.179687-35.027344-5.179687zm-50.097656 20.984374v6.5625c0 9.867188 22.445313 17.882813 50.144531 17.882813 27.699219 0 50.097656-7.992187 50.097656-17.882813v-6.5625c-2.15625 3.625-7.023437 6.917969-14.253906 9.480469-9.613281 3.421875-22.347656 5.300781-35.867187 5.300781s-26.277344-1.878906-35.867188-5.300781c-7.230469-2.589843-12.097656-5.855469-14.253906-9.480469zm-.054687 13.109376v4.488281c0 9.867187 22.453124 17.882812 50.152343 17.882812s50.144531-7.992187 50.144531-17.882812v-4.488281c-.660156.8125-1.417968 1.601562-2.332031 2.363281-2.738281 2.332031-6.621093 4.382812-11.515625 6.132812-9.742187 3.476563-22.625 5.375-36.296875 5.375s-26.5625-1.898437-36.304687-5.375c-4.894532-1.75-8.742188-3.800781-11.507813-6.132812-.914062-.761719-1.679687-1.550781-2.339843-2.363281zm0 11.035156v4.484375c0 9.867187 22.453124 17.882812 50.152343 17.882812s50.144531-7.988281 50.144531-17.882812v-4.484375c-.660156.8125-1.417968 1.601562-2.332031 2.363281-2.738281 2.332031-6.621093 4.382813-11.515625 6.132813-9.742187 3.476562-22.625 5.375-36.296875 5.375s-26.5625-1.898438-36.304687-5.375c-4.894532-1.75-8.742188-3.800782-11.507813-6.132813-.914062-.761719-1.679687-1.550781-2.339843-2.363281zm0 11.035156v4.484375c0 9.867187 22.453124 17.882813 50.152343 17.882813s50.144531-7.992188 50.144531-17.882813v-4.484375c-.660156.808594-1.417968 1.597656-2.332031 2.359375-2.738281 2.335937-6.621093 4.386719-11.515625 6.136719-9.742187 3.472656-22.625 5.375-36.296875 5.375s-26.5625-1.902344-36.304687-5.375c-4.894532-1.75-8.742188-3.800782-11.507813-6.136719-.914062-.761719-1.679687-1.550781-2.339843-2.359375zm0 11.03125v4.488281c0 9.867188 22.453124 17.882813 50.152343 17.882813s50.144531-7.992188 50.144531-17.882813v-4.488281c-.660156.8125-1.417968 1.601562-2.332031 2.363281-2.738281 2.332031-6.621093 4.382813-11.515625 6.136719-9.742187 3.472656-22.625 5.371094-36.296875 5.371094s-26.5625-1.898438-36.304687-5.371094c-4.894532-1.753906-8.742188-3.804688-11.507813-6.136719-.914062-.761719-1.679687-1.550781-2.339843-2.363281zm0 11.035156v4.484375c0 9.867188 22.453124 17.882813 50.152343 17.882813s50.144531-8.015625 50.144531-17.882813v-4.484375c-.660156.8125-1.417968 1.601563-2.332031 2.363282-2.738281 2.332031-6.621093 4.382812-11.515625 6.132812-9.742187 3.476562-22.625 5.375-36.296875 5.375s-26.5625-1.898438-36.304687-5.375c-4.894532-1.75-8.742188-3.800781-11.507813-6.132812-.914062-.761719-1.679687-1.550782-2.339843-2.363282zm0 0"/><use x="39.20371" xlink:href="#A" y="586.7711"/><use x="69.44371" xlink:href="#B" y="586.7711"/><use x="93.44371" xlink:href="#g" y="586.7711"/><use x="119.21971" xlink:href="#b" y="586.7711"/><use x="129.87571" xlink:href="#d" y="586.7711"/><use x="140.53171" xlink:href="#g" y="586.7711"/><use x="166.30771" xlink:href="#C" y="586.7711"/><use x="194.77171" xlink:href="#d" y="586.7711"/><use x="205.42771" xlink:href="#n" y="586.7711"/><use x="231.20371" xlink:href="#h" y="586.7711"/><use x="244.54771" xlink:href="#D" y="586.7711"/><use x="279.20371" xlink:href="#g" y="586.7711"/><use x="304.97971" xlink:href="#q" y="586.7711"/><use x="320.09971" xlink:href="#s" y="586.7711"/><use x="346.78771" xlink:href="#r" y="586.7711"/><use x="362.77171" xlink:href="#g" y="586.7711"/><use x="388.54771" xlink:href="#d" y="586.7711"/><use x="399.20371" xlink:href="#h" y="586.7711"/><use x="77.38771" xlink:href="#E" y="638.2055"/><use x="108.49171" xlink:href="#r" y="638.2055"/><use x="123.61171" xlink:href="#c" y="638.2055"/><use x="151.16371" xlink:href="#x" y="638.2055"/><use x="179.62771" xlink:href="#s" y="638.2055"/><use x="206.31571" xlink:href="#f" y="638.2055"/><use x="232.09171" xlink:href="#q" y="638.2055"/><use x="247.21171" xlink:href="#h" y="638.2055"/><use x="260.55571" xlink:href="#F" y="638.2055"/><use x="294.34771" xlink:href="#g" y="638.2055"/><use x="320.12371" xlink:href="#q" y="638.2055"/><use x="335.24371" xlink:href="#g" y="638.2055"/><path d="m97.945312 428.054688c-13.242187 0-25.703124 1.828124-35.035156 5.179687-8.804687 3.144531-13.847656 7.324219-13.847656 11.460937 0 4.132813 5.042969 8.324219 13.847656 11.46875 9.332032 3.324219 21.792969 5.175782 35.035156 5.175782 13.238282 0 25.691407-1.828125 35.027344-5.175782 8.800782-3.144531 13.847656-7.335937 13.847656-11.46875 0-4.136718-5.046874-8.316406-13.847656-11.460937-9.335937-3.324219-21.789062-5.179687-35.027344-5.179687zm-50.097656 20.984374v6.5625c0 9.867188 22.445313 17.882813 50.144532 17.882813 27.699218 0 50.097656-7.992187 50.097656-17.882813v-6.5625c-2.15625 3.625-7.023438 6.917969-14.253906 9.480469-9.613282 3.421875-22.347657 5.300781-35.867188 5.300781s-26.28125-1.878906-35.867188-5.300781c-7.230468-2.589843-12.097656-5.855469-14.253906-9.480469zm-.054687 13.109376v4.488281c0 9.867187 22.453125 17.882812 50.152343 17.882812 27.699219 0 50.144532-7.992187 50.144532-17.882812v-4.488281c-.660156.8125-1.417969 1.601562-2.332032 2.363281-2.738281 2.332031-6.621093 4.382812-11.515624 6.132812-9.742188 3.476563-22.625 5.375-36.296876 5.375-13.671874 0-26.566406-1.898437-36.304687-5.375-4.894531-1.75-8.746094-3.800781-11.511719-6.132812-.910156-.761719-1.675781-1.550781-2.335937-2.363281zm0 11.035156v4.484375c0 9.867187 22.453125 17.882812 50.152343 17.882812 27.699219 0 50.144532-7.988281 50.144532-17.882812v-4.484375c-.660156.8125-1.417969 1.601562-2.332032 2.363281-2.738281 2.332031-6.621093 4.382813-11.515624 6.132813-9.742188 3.476562-22.625 5.375-36.296876 5.375-13.671874 0-26.566406-1.898438-36.304687-5.375-4.894531-1.75-8.746094-3.800782-11.511719-6.132813-.910156-.761719-1.675781-1.550781-2.335937-2.363281zm0 11.035156v4.484375c0 9.867187 22.453125 17.882813 50.152343 17.882813 27.699219 0 50.144532-7.992188 50.144532-17.882813v-4.484375c-.660156.808594-1.417969 1.597656-2.332032 2.359375-2.738281 2.335937-6.621093 4.386719-11.515624 6.136719-9.742188 3.472656-22.625 5.375-36.296876 5.375-13.671874 0-26.566406-1.902344-36.304687-5.375-4.894531-1.75-8.746094-3.800782-11.511719-6.136719-.910156-.761719-1.675781-1.550781-2.335937-2.359375zm0 11.03125v4.488281c0 9.867188 22.453125 17.882813 50.152343 17.882813 27.699219 0 50.144532-7.992188 50.144532-17.882813v-4.488281c-.660156.8125-1.417969 1.601562-2.332032 2.363281-2.738281 2.332031-6.621093 4.382813-11.515624 6.136719-9.742188 3.472656-22.625 5.371094-36.296876 5.371094-13.671874 0-26.566406-1.898438-36.304687-5.371094-4.894531-1.753906-8.746094-3.804688-11.511719-6.136719-.910156-.761719-1.675781-1.550781-2.335937-2.363281zm0 11.035156v4.484375c0 9.867188 22.453125 17.882813 50.152343 17.882813 27.699219 0 50.144532-8.015625 50.144532-17.882813v-4.484375c-.660156.8125-1.417969 1.601563-2.332032 2.363282-2.738281 2.332031-6.621093 4.382812-11.515624 6.132812-9.742188 3.476562-22.625 5.375-36.296876 5.375-13.671874 0-26.566406-1.898438-36.304687-5.375-4.894531-1.75-8.746094-3.800781-11.511719-6.132812-.910156-.761719-1.675781-1.550782-2.335937-2.363282zm0 0"/><path d="m340.472656 428.054688c-13.242187 0-25.703125 1.828124-35.039062 5.179687-8.800782 3.144531-13.847656 7.324219-13.847656 11.460937 0 4.132813 5.046874 8.324219 13.847656 11.46875 9.335937 3.324219 21.796875 5.175782 35.039062 5.175782 13.238282 0 25.691406-1.828125 35.027344-5.175782 8.800781-3.144531 13.847656-7.335937 13.847656-11.46875 0-4.136718-5.046875-8.316406-13.847656-11.460937-9.335938-3.324219-21.789062-5.179687-35.027344-5.179687zm-50.097656 20.984374v6.5625c0 9.867188 22.445312 17.882813 50.144531 17.882813s50.09375-7.992187 50.09375-17.882813v-6.5625c-2.152343 3.625-7.019531 6.917969-14.25 9.480469-9.613281 3.421875-22.347656 5.300781-35.867187 5.300781-13.519532 0-26.28125-1.878906-35.871094-5.300781-7.226562-2.589843-12.09375-5.855469-14.25-9.480469zm-.054688 13.109376v4.488281c0 9.867187 22.453126 17.882812 50.152344 17.882812 27.699219 0 50.140625-7.992187 50.140625-17.882812v-4.488281c-.65625.8125-1.414062 1.601562-2.328125 2.363281-2.738281 2.332031-6.621094 4.382812-11.519531 6.132812-9.738281 3.476563-22.621094 5.375-36.292969 5.375s-26.566406-1.898437-36.304687-5.375c-4.894531-1.75-8.746094-3.800781-11.511719-6.132812-.910156-.761719-1.675781-1.550781-2.335938-2.363281zm0 11.035156v4.484375c0 9.867187 22.453126 17.882812 50.152344 17.882812 27.699219 0 50.140625-7.988281 50.140625-17.882812v-4.484375c-.65625.8125-1.414062 1.601562-2.328125 2.363281-2.738281 2.332031-6.621094 4.382813-11.519531 6.132813-9.738281 3.476562-22.621094 5.375-36.292969 5.375s-26.566406-1.898438-36.304687-5.375c-4.894531-1.75-8.746094-3.800782-11.511719-6.132813-.910156-.761719-1.675781-1.550781-2.335938-2.363281zm0 11.035156v4.484375c0 9.867187 22.453126 17.882813 50.152344 17.882813 27.699219 0 50.140625-7.992188 50.140625-17.882813v-4.484375c-.65625.808594-1.414062 1.597656-2.328125 2.359375-2.738281 2.335937-6.621094 4.386719-11.519531 6.136719-9.738281 3.472656-22.621094 5.375-36.292969 5.375s-26.566406-1.902344-36.304687-5.375c-4.894531-1.75-8.746094-3.800782-11.511719-6.136719-.910156-.761719-1.675781-1.550781-2.335938-2.359375zm0 11.03125v4.488281c0 9.867188 22.453126 17.882813 50.152344 17.882813 27.699219 0 50.140625-7.992188 50.140625-17.882813v-4.488281c-.65625.8125-1.414062 1.601562-2.328125 2.363281-2.738281 2.332031-6.621094 4.382813-11.519531 6.136719-9.738281 3.472656-22.621094 5.371094-36.292969 5.371094s-26.566406-1.898438-36.304687-5.371094c-4.894531-1.753906-8.746094-3.804688-11.511719-6.136719-.910156-.761719-1.675781-1.550781-2.335938-2.363281zm0 11.035156v4.484375c0 9.867188 22.453126 17.882813 50.152344 17.882813 27.699219 0 50.140625-8.015625 50.140625-17.882813v-4.484375c-.65625.8125-1.414062 1.601563-2.328125 2.363282-2.738281 2.332031-6.621094 4.382812-11.519531 6.132812-9.738281 3.476562-22.621094 5.375-36.292969 5.375s-26.566406-1.898438-36.304687-5.375c-4.894531-1.75-8.746094-3.800781-11.511719-6.132812-.910156-.761719-1.675781-1.550782-2.335938-2.363282zm0 0"/></g><use x="823.968" xlink:href="#l" y="827.1817"/><use x="858.624" xlink:href="#d" y="827.1817"/><use x="869.28" xlink:href="#n" y="827.1817"/><use x="895.056" xlink:href="#g" y="827.1817"/><use x="920.832" xlink:href="#k" y="827.1817"/><use x="947.52" xlink:href="#n" y="827.1817"/><use x="973.296" xlink:href="#x" y="827.1817"/><use x="1001.76" xlink:href="#h" y="827.1817"/><use x="1015.104" xlink:href="#g" y="827.1817"/><use x="1040.88" xlink:href="#k" y="827.1817"/><use x="1067.568" xlink:href="#x" y="827.1817"/><use x="1096.032" xlink:href="#h" y="827.1817"/><use x="770.136" xlink:href="#x" y="878.6161"/><use x="798.6" xlink:href="#c" y="878.6161"/><use x="826.152" xlink:href="#f" y="878.6161"/><use x="851.928" xlink:href="#s" y="878.6161"/><use x="878.616" xlink:href="#o" y="878.6161"/><use x="919.56" xlink:href="#n" y="878.6161"/><use x="945.336" xlink:href="#k" y="878.6161"/><use x="972.024" xlink:href="#q" y="878.6161"/><use x="987.144" xlink:href="#n" y="878.6161"/><use x="1012.92" xlink:href="#x" y="878.6161"/><use x="1041.384" xlink:href="#h" y="878.6161"/><use x="1054.728" xlink:href="#x" y="878.6161"/><use x="1083.192" xlink:href="#g" y="878.6161"/><use x="1108.968" xlink:href="#q" y="878.6161"/><use x="1124.088" xlink:href="#g" y="878.6161"/><use x="1515.308" xlink:href="#l" y="801.4645"/><use x="1549.964" xlink:href="#c" y="801.4645"/><use x="1577.516" xlink:href="#d" y="801.4645"/><use x="1588.172" xlink:href="#d" y="801.4645"/><use x="1598.828" xlink:href="#g" y="801.4645"/><use x="1624.604" xlink:href="#C" y="801.4645"/><use x="1653.068" xlink:href="#c" y="801.4645"/><use x="1680.62" xlink:href="#r" y="801.4645"/><use x="1696.604" xlink:href="#g" y="801.4645"/><use x="1722.38" xlink:href="#q" y="801.4645"/><use x="1737.5" xlink:href="#b" y="801.4645"/><use x="1748.156" xlink:href="#B" y="801.4645"/><use x="1772.156" xlink:href="#n" y="801.4645"/><use x="1797.932" xlink:href="#d" y="801.4645"/><use x="1808.588" xlink:href="#z" y="801.4645"/><use x="1832.588" xlink:href="#h" y="801.4645"/><use x="1545.02" xlink:href="#f" y="852.8989"/><use x="1570.796" xlink:href="#s" y="852.8989"/><use x="1597.484" xlink:href="#r" y="852.8989"/><use x="1613.468" xlink:href="#g" y="852.8989"/><use x="1639.244" xlink:href="#q" y="852.8989"/><use x="1654.364" xlink:href="#n" y="852.8989"/><use x="1680.14" xlink:href="#x" y="852.8989"/><use x="1708.604" xlink:href="#h" y="852.8989"/><use x="1721.948" xlink:href="#g" y="852.8989"/><use x="1747.724" xlink:href="#k" y="852.8989"/><use x="1774.412" xlink:href="#x" y="852.8989"/><use x="1802.876" xlink:href="#h" y="852.8989"/><use x="1510.34" xlink:href="#w" y="904.3333"/><use x="1534.34" xlink:href="#q" y="904.3333"/><use x="1549.46" xlink:href="#r" y="904.3333"/><use x="1565.444" xlink:href="#s" y="904.3333"/><use x="1592.132" xlink:href="#f" y="904.3333"/><use x="1617.908" xlink:href="#q" y="904.3333"/><use x="1633.028" xlink:href="#s" y="904.3333"/><use x="1659.716" xlink:href="#r" y="904.3333"/><use x="1674.836" xlink:href="#n" y="904.3333"/><use x="1700.612" xlink:href="#x" y="904.3333"/><use x="1729.076" xlink:href="#h" y="904.3333"/><use x="1742.42" xlink:href="#x" y="904.3333"/><use x="1770.884" xlink:href="#g" y="904.3333"/><use x="1796.66" xlink:href="#q" y="904.3333"/><use x="1811.78" xlink:href="#g" y="904.3333"/></svg>