<svg height="318.23497pt" viewBox="0 0 544.3652 318.23497" width="544.3652pt" xmlns="http://www.w3.org/2000/svg" xmlns:xlink="http://www.w3.org/1999/xlink"><clipPath id="a"><path d="m0 0h544.363281v318.234375h-544.363281zm0 0"/></clipPath><clipPath id="b"><path d="m0 73h544.363281v2h-544.363281zm0 0"/></clipPath><clipPath id="c"><path d="m142.636719 34.414062h401.726562v26.414063h-401.726562zm0 0"/></clipPath><clipPath id="d"><path d="m0 152h544.363281v2h-544.363281zm0 0"/></clipPath><clipPath id="e"><path d="m142.636719 113.65625h401.726562v26.414062h-401.726562zm0 0"/></clipPath><clipPath id="f"><path d="m142.636719 192.898438h401.726562v26.414062h-401.726562zm0 0"/></clipPath><clipPath id="g"><path d="m142.636719 223.515625h401.726562v36.019531h-401.726562zm0 0"/></clipPath><clipPath id="h"><path d="m142.636719 263.738281h401.726562v54.496094h-401.726562zm0 0"/></clipPath><clipPath id="i"><path d="m0 0h126v318.234375h-126zm0 0"/></clipPath><symbol id="j" overflow="visible"><path d="m.78125-4.15625v-.578125c.539062-.050781.914062-.132813 1.125-.25.207031-.125.363281-.414063.46875-.875h.578125v5.859375h-.78125v-4.15625zm0 0"/></symbol><symbol id="k" overflow="visible"/><symbol id="l" overflow="visible"><path d="m.546875-4.390625h.703125v.75c.050781-.144531.191406-.320313.421875-.53125.226563-.207031.488281-.316406.78125-.328125.007813 0 .03125.007812.0625.015625.03125 0 .085937.007813.171875.015625v.78125c-.054688-.007812-.09375-.015625-.125-.015625-.03125-.007813-.074219-.015625-.125-.015625-.375 0-.664062.121094-.859375.359375-.199219.242187-.296875.515625-.296875.828125v2.53125h-.734375zm0 0"/></symbol><symbol id="m" overflow="visible"><path d="m2.375-4.5c.3125.011719.613281.085938.90625.21875.289062.148438.515625.339844.671875.578125.144531.21875.242187.476563.296875.765625.039062.210938.0625.53125.0625.96875h-3.21875c.007812.460938.113281.820312.3125 1.078125.1875.273437.488281.40625.90625.40625.382812 0 .695312-.125.9375-.375.125-.15625.210938-.328125.265625-.515625h.734375c-.023438.15625-.085938.335938-.1875.53125-.117188.210938-.242188.371094-.375.484375-.21875.21875-.496094.3671875-.828125.453125-.179687.039062-.382813.0625-.609375.0625-.542969 0-1.007812-.1953125-1.390625-.59375-.375-.394531-.5625-.953125-.5625-1.671875 0-.707031.191406-1.28125.578125-1.71875.375-.4375.875-.660156 1.5-.671875zm1.171875 1.953125c-.03125-.320313-.101563-.578125-.203125-.765625-.210938-.351562-.546875-.53125-1.015625-.53125-.34375 0-.632813.121094-.859375.359375-.230469.25-.351562.5625-.359375.9375zm0 0"/></symbol><symbol id="n" overflow="visible"><path d="m.71875-5.0625c.019531-.300781.078125-.523438.171875-.671875.164063-.25.5-.375 1-.375h.140625c.050781 0 .109375.007813.171875.015625v.671875c-.085937-.007813-.140625-.015625-.171875-.015625-.042969 0-.074219 0-.09375 0-.230469 0-.367188.058594-.40625.171875-.042969.125-.0625.421875-.0625.890625h.734375v.578125h-.75v3.796875h-.734375v-3.796875h-.609375v-.578125h.609375zm0 0"/></symbol><symbol id="o" overflow="visible"><path d="m.53125-4.390625h.703125v.625c.195313-.257813.414063-.445313.65625-.5625.226563-.101563.488281-.160156.78125-.171875.613281 0 1.03125.21875 1.25.65625.125.242188.1875.585938.1875 1.03125v2.8125h-.75v-2.765625c0-.269531-.042969-.488281-.125-.65625-.125-.269531-.359375-.40625-.703125-.40625-.179688 0-.324219.015625-.4375.046875-.210938.0625-.386719.183594-.53125.359375-.125.15625-.203125.308594-.234375.453125-.042969.15625-.0625.382812-.0625.671875v2.296875h-.734375zm0 0"/></symbol><symbol id="p" overflow="visible"><path d="m2.21875-4.515625c.5 0 .90625.121094 1.21875.359375.300781.242188.484375.652344.546875 1.234375h-.71875c-.042969-.269531-.140625-.492187-.296875-.671875-.15625-.175781-.40625-.265625-.75-.265625-.46875 0-.804688.230469-1 .6875-.136719.304687-.203125.671875-.203125 1.109375s.09375.808594.28125 1.109375c.175781.304687.46875.453125.875.453125.300781 0 .546875-.09375.734375-.28125.175781-.1875.296875-.445312.359375-.78125h.71875c-.074219.59375-.277344 1.023438-.609375 1.28125-.335938.2734375-.757812.40625-1.265625.40625-.574219 0-1.03125-.2070312-1.375-.625-.34375-.425781-.515625-.953125-.515625-1.578125 0-.769531.1875-1.367187.5625-1.796875.375-.425781.851562-.640625 1.4375-.640625zm0 0"/></symbol><symbol id="q" overflow="visible"><path d="m.71875-6.03125h4.390625v.734375h-3.59375v1.84375h3.328125v.6875h-3.328125v2.046875h3.65625v.71875h-4.453125zm0 0"/></symbol><symbol id="r" overflow="visible"><path d="m3.28125-4.390625h.828125c-.117187.28125-.351563.921875-.703125 1.921875-.261719.761719-.484375 1.375-.671875 1.84375-.429687 1.125-.730469 1.8125-.90625 2.0625-.179687.238281-.476563.359375-.890625.359375-.117188 0-.199219 0-.25 0-.054688-.011719-.121094-.027344-.203125-.046875v-.671875c.125.03125.21875.050781.28125.0625.050781.007813.101563.015625.15625.015625.125 0 .222656-.027344.296875-.078125.0625-.042969.113281-.09375.15625-.15625.007812-.023437.0625-.136719.15625-.34375.082031-.199219.144531-.351563.1875-.453125l-1.625-4.515625h.828125l1.1875 3.578125zm0 0"/></symbol><symbol id="s" overflow="visible"><path d="m.6875-5.625h.75v1.234375h.703125v.59375h-.703125v2.875c0 .15625.050781.261719.15625.3125.050781.023437.144531.03125.28125.03125.039062.011719.082031.011719.125 0h.140625v.578125c-.09375.0195312-.183594.0351562-.265625.046875-.09375.0195312-.195312.0234375-.296875.015625-.34375 0-.578125-.0859375-.703125-.265625-.125-.164063-.1875-.390625-.1875-.671875v-2.921875h-.59375v-.59375h.59375zm0 0"/></symbol><symbol id="t" overflow="visible"><path d="m.53125-6.046875h.734375v2.25c.175781-.226563.332031-.382813.46875-.46875.238281-.15625.535156-.234375.890625-.234375.632812 0 1.066406.226562 1.296875.671875.125.242187.1875.578125.1875 1.015625v2.8125h-.765625v-2.765625c0-.320313-.039062-.5625-.109375-.71875-.148437-.238281-.402344-.359375-.765625-.359375-.304688 0-.578125.105469-.828125.3125-.25.21875-.375.621094-.375 1.203125v2.328125h-.734375zm0 0"/></symbol><symbol id="u" overflow="visible"><path d="m.53125-4.375h.75v4.375h-.75zm0-1.65625h.75v.84375h-.75zm0 0"/></symbol><symbol id="v" overflow="visible"><path d="m1.09375-1.171875c0 .21875.078125.386719.234375.5.15625.125.335937.1875.546875.1875.257812 0 .515625-.054687.765625-.171875.40625-.195312.609375-.523438.609375-.984375v-.59375c-.09375.0625-.210938.109375-.34375.140625-.148438.042969-.289062.070312-.421875.078125l-.453125.0625c-.261719.042969-.460938.101563-.59375.171875-.230469.125-.34375.328125-.34375.609375zm1.78125-1.484375c.164062-.019531.28125-.09375.34375-.21875.03125-.0625.046875-.15625.046875-.28125 0-.25-.089844-.429688-.265625-.546875-.179688-.113281-.433594-.171875-.765625-.171875-.386719 0-.664063.105469-.828125.3125-.085938.117188-.140625.289062-.171875.515625h-.6875c.007813-.539063.1875-.921875.53125-1.140625.332031-.207031.722656-.3125 1.171875-.3125.507812 0 .929688.101562 1.265625.296875.3125.199219.46875.507813.46875.921875v2.53125c0 .074219.019531.132812.0625.171875.019531.054687.082031.078125.1875.078125.03125 0 .066406-.003906.109375-.015625.039062 0 .085938-.003906.140625-.015625v.546875c-.117187.03125-.203125.0507812-.265625.0625-.0625.0078125-.148438.015625-.25.015625-.25 0-.433594-.08984375-.546875-.265625-.0625-.09375-.109375-.226563-.140625-.40625-.148438.199219-.359375.371094-.640625.515625-.28125.1328125-.59375.203125-.9375.203125-.40625.007813-.742187-.109375-1-.359375-.25-.25-.375-.5625-.375-.9375 0-.40625.125-.722656.375-.953125.25-.21875.582031-.351563 1-.40625zm0 0"/></symbol><symbol id="w" overflow="visible"><path d="m1.015625-2.140625c-.011719.46875.085937.859375.296875 1.171875.195312.324219.515625.484375.953125.484375.34375 0 .625-.148437.84375-.453125.21875-.28125.328125-.703125.328125-1.265625 0-.550781-.109375-.960937-.328125-1.234375-.230469-.257812-.511719-.390625-.84375-.390625-.375 0-.679687.140625-.90625.421875-.242187.292969-.355469.714844-.34375 1.265625zm1.109375-2.328125c.332031 0 .613281.070312.84375.203125.125.085937.273438.230469.453125.4375v-2.21875h.703125v6.046875h-.671875v-.609375c-.167969.273437-.371094.464844-.609375.578125-.230469.125-.496094.1875-.796875.1875-.5 0-.929687-.2070312-1.28125-.625-.355469-.40625-.53125-.953125-.53125-1.640625 0-.632813.160156-1.1875.484375-1.65625.320312-.46875.789062-.703125 1.40625-.703125zm0 0"/></symbol><symbol id="x" overflow="visible"><path d="m1.28125-4.390625v2.90625c0 .230469.035156.417969.109375.5625.125.261719.367187.390625.734375.390625.507812 0 .859375-.226562 1.046875-.6875.101563-.25.15625-.585938.15625-1.015625v-2.15625h.734375v4.390625h-.703125l.015625-.65625c-.09375.179688-.214844.324219-.359375.4375-.28125.2265625-.625.34375-1.03125.34375-.625 0-1.054687-.2109375-1.28125-.640625-.117187-.21875-.171875-.515625-.171875-.890625v-2.984375zm0 0"/></symbol><symbol id="y" overflow="visible"><path d="m.546875-6.03125h.734375v6.03125h-.734375zm0 0"/></symbol><symbol id="z" overflow="visible"><path d="m.96875-1.375c.019531.242188.082031.429688.1875.5625.175781.242188.5.359375.96875.359375.269531 0 .507812-.0625.71875-.1875.207031-.113281.3125-.296875.3125-.546875 0-.1875-.085938-.332031-.25-.4375-.105469-.050781-.320312-.117188-.640625-.203125l-.578125-.140625c-.375-.09375-.652344-.195312-.828125-.3125-.324219-.195312-.484375-.472656-.484375-.828125 0-.414063.148438-.753906.453125-1.015625.300781-.257812.703125-.390625 1.203125-.390625.664062 0 1.144531.199219 1.4375.59375.175781.25.265625.515625.265625.796875h-.703125c-.011719-.164062-.070312-.320312-.171875-.46875-.167969-.1875-.460937-.28125-.875-.28125-.28125 0-.496094.054688-.640625.15625-.148438.105469-.21875.246094-.21875.421875 0 .199219.09375.351563.28125.453125.113281.074219.273438.136719.484375.1875l.5.125c.519531.125.875.25 1.0625.375.289063.1875.4375.484375.4375.890625 0 .386719-.152344.71875-.453125 1-.304688.2890625-.757812.4375-1.359375.4375-.65625 0-1.121094-.1523438-1.390625-.453125-.273438-.289062-.417969-.65625-.4375-1.09375zm0 0"/></symbol><symbol id="A" overflow="visible"><path d="m3.734375-2.46875-.921875-2.671875-.96875 2.671875zm-1.34375-3.5625h.921875l2.1875 6.03125h-.890625l-.609375-1.8125h-2.390625l-.65625 1.8125h-.828125zm0 0"/></symbol><symbol id="B" overflow="visible"><path d="m.53125-6.03125h.703125v3.5l1.890625-1.859375h.953125l-1.6875 1.640625 1.78125 2.75h-.953125l-1.359375-2.21875-.625.5625v1.65625h-.703125zm0 0"/></symbol><symbol id="C" overflow="visible"><path d="m2.28125-.46875c.488281 0 .828125-.1875 1.015625-.5625.175781-.363281.265625-.773438.265625-1.234375 0-.40625-.0625-.738281-.1875-1-.21875-.40625-.578125-.609375-1.078125-.609375-.449219 0-.777344.171875-.984375.515625-.210938.34375-.3125.761719-.3125 1.25 0 .46875.101562.859375.3125 1.171875.195312.3125.519531.46875.96875.46875zm.03125-4.046875c.570312 0 1.050781.1875 1.4375.5625.382812.375.582031.929687.59375 1.65625 0 .71875-.171875 1.308594-.515625 1.765625-.355469.46875-.890625.695312-1.609375.6875-.605469 0-1.085938-.203125-1.4375-.609375-.367188-.40625-.546875-.957031-.546875-1.65625 0-.726563.1875-1.3125.5625-1.75s.878906-.65625 1.515625-.65625zm0 0"/></symbol><symbol id="D" overflow="visible"><path d="m.34375-2.71875h2.0625v.75h-2.0625zm0 0"/></symbol><symbol id="E" overflow="visible"><path d="m2.90625-3.484375c.34375 0 .609375-.046875.796875-.140625.300781-.144531.453125-.414062.453125-.8125 0-.394531-.15625-.660156-.46875-.796875-.1875-.070313-.460938-.109375-.8125-.109375h-1.453125v1.859375zm.28125 2.78125c.5.011719.851562-.132813 1.0625-.4375.132812-.175781.203125-.394531.203125-.65625 0-.4375-.199219-.734375-.59375-.890625-.210937-.082031-.480469-.125-.8125-.125h-1.625v2.109375zm-2.5625-5.328125h2.578125c.707031 0 1.210937.214844 1.515625.640625.175781.25.265625.539063.265625.859375 0 .375-.109375.6875-.328125.9375-.117188.125-.277344.242188-.484375.34375.300781.125.53125.261719.6875.40625.269531.261719.40625.621094.40625 1.078125 0 .398437-.121094.75-.359375 1.0625-.367188.46875-.945312.703125-1.734375.703125h-2.546875zm0 0"/></symbol><symbol id="F" overflow="visible"><path d="m2.078125-4.46875c.34375 0 .644531.085938.90625.25.132813.09375.273437.234375.421875.421875v-.5625h.6875v4c0 .5625-.085938 1.003906-.25 1.328125-.3125.59375-.890625.890625-1.734375.890625-.480469 0-.882813-.105469-1.203125-.3125-.324219-.210937-.5-.542969-.53125-1h.75c.03125.195313.097656.347656.203125.453125.164063.164062.429687.25.796875.25.5625 0 .929688-.199219 1.109375-.59375.101563-.242188.148437-.66015625.140625-1.265625-.148438.230469-.324219.398437-.53125.5-.210938.11328125-.484375.1640625-.828125.15625-.46875.0078125-.886719-.15625-1.25-.5-.355469-.332031-.53125-.890625-.53125-1.671875 0-.738281.179687-1.316406.546875-1.734375.351562-.40625.785156-.609375 1.296875-.609375zm1.328125 2.25c0-.539062-.109375-.941406-.328125-1.203125-.230469-.269531-.515625-.40625-.859375-.40625-.53125 0-.890625.246094-1.078125.734375-.105469.261719-.152344.605469-.140625 1.03125 0 .492188.097656.867188.296875 1.125.195313.261719.46875.390625.8125.390625.53125 0 .90625-.238281 1.125-.71875.113281-.269531.171875-.585937.171875-.953125zm0 0"/></symbol><symbol id="G" overflow="visible"><path d="m.71875-6.03125h2.71875c.53125 0 .960938.152344 1.296875.453125.320313.304687.484375.730469.484375 1.28125 0 .46875-.148438.875-.4375 1.21875-.292969.355469-.742188.53125-1.34375.53125h-1.90625v2.546875h-.8125zm3.671875 1.734375c0-.4375-.164063-.738281-.484375-.90625-.1875-.082031-.4375-.125-.75-.125h-1.625v2.09375h1.625c.363281 0 .664062-.078125.90625-.234375.21875-.15625.328125-.429688.328125-.828125zm0 0"/></symbol><symbol id="H" overflow="visible"><path d="m5.03125-6.03125v.71875h-2.03125v5.3125h-.828125v-5.3125h-2.03125v-.71875zm0 0"/></symbol><symbol id="I" overflow="visible"><path d="m3.1875-6.1875c.757812 0 1.347656.199219 1.765625.59375.425781.40625.660156.867188.703125 1.375h-.796875c-.09375-.382812-.273437-.691406-.53125-.921875-.273437-.226563-.652344-.34375-1.140625-.34375-.59375 0-1.074219.210937-1.4375.625-.367188.417969-.546875 1.058594-.546875 1.921875 0 .710938.164063 1.28125.5 1.71875.320313.4375.8125.65625 1.46875.65625.601563 0 1.0625-.226562 1.375-.6875.164063-.25.289063-.570312.375-.96875h.796875c-.074219.636719-.308594 1.167969-.703125 1.59375-.480469.523438-1.125.78125-1.9375.78125-.710937 0-1.296875-.2109375-1.765625-.640625-.636719-.5625-.949219-1.425781-.9375-2.59375-.011719-.882813.222656-1.613281.703125-2.1875.507813-.613281 1.210937-.921875 2.109375-.921875zm0 0"/></symbol><symbol id="J" overflow="visible"><path d="m.71875-.890625h.859375v.890625h-.859375zm0 0"/></symbol><symbol id="K" overflow="visible"><path d="m1.109375-1.421875c.019531.40625.179687.6875.484375.84375.144531.085937.3125.125.5.125.351562 0 .65625-.144531.90625-.4375.25-.289063.425781-.890625.53125-1.796875-.167969.261719-.371094.445312-.609375.546875-.242187.105469-.5.15625-.78125.15625-.574219 0-1.023437-.175781-1.34375-.53125-.335937-.34375-.5-.796875-.5-1.359375 0-.53125.160156-1 .484375-1.40625.320312-.40625.804688-.609375 1.453125-.609375.851563 0 1.441406.386719 1.765625 1.15625.175781.429687.265625.960937.265625 1.59375 0 .730469-.105469 1.371094-.3125 1.921875-.367187.929688-.976563 1.390625-1.828125 1.390625-.574219 0-1.011719-.1523438-1.3125-.453125-.304688-.300781-.449219-.679688-.4375-1.140625zm1.125-1.203125c.289063 0 .5625-.097656.8125-.296875.238281-.1875.359375-.519531.359375-1 0-.4375-.109375-.757813-.328125-.96875-.21875-.207031-.496094-.316406-.828125-.328125-.367188 0-.652344.121094-.859375.359375-.21875.25-.328125.578125-.328125.984375 0 .386719.09375.6875.28125.90625.1875.230469.484375.34375.890625.34375zm0 0"/></symbol><symbol id="L" overflow="visible"><path d="m1.015625-1.5c.050781.429688.25.71875.59375.875.175781.085938.378906.125.609375.125.4375 0 .757812-.140625.96875-.421875.207031-.269531.3125-.578125.3125-.921875 0-.40625-.125-.722656-.375-.953125-.25-.226563-.546875-.34375-.890625-.34375-.261719 0-.480469.054687-.65625.15625-.1875.09375-.34375.230469-.46875.40625l-.640625-.03125.453125-3.171875h3.046875v.71875h-2.5l-.25 1.625c.132812-.09375.265625-.171875.390625-.234375.21875-.082031.472656-.125.765625-.125.53125 0 .984375.171875 1.359375.515625.375.355469.5625.796875.5625 1.328125 0 .554687-.167969 1.042969-.5 1.46875-.355469.4179688-.90625.625-1.65625.625-.480469 0-.902344-.13671875-1.265625-.40625-.367188-.257813-.574219-.671875-.625-1.234375zm0 0"/></symbol><symbol id="M" overflow="visible"><path d="m4.375-5.78125v.640625c-.1875.1875-.4375.511719-.75.96875-.3125.449219-.589844.9375-.828125 1.46875-.242187.511719-.421875.976563-.546875 1.390625-.074219.273438-.171875.710938-.296875 1.3125h-.828125c.1875-1.113281.597656-2.226562 1.234375-3.34375.375-.65625.769531-1.21875 1.1875-1.6875h-3.25v-.75zm0 0"/></symbol><symbol id="N" overflow="visible"><path d="m2.4375-5.90625c.65625 0 1.113281.171875 1.375.515625.257812.34375.390625.695313.390625 1.046875h-.734375c-.042969-.226562-.109375-.410156-.203125-.546875-.179687-.238281-.449219-.359375-.8125-.359375-.417969 0-.746094.1875-.984375.5625-.242188.386719-.375.933594-.40625 1.640625.164062-.25.378906-.429687.640625-.546875.226563-.113281.492187-.171875.796875-.171875.488281 0 .914062.15625 1.28125.46875.363281.324219.546875.792969.546875 1.40625 0 .542969-.171875 1.015625-.515625 1.421875-.355469.4179688-.851562.625-1.484375.625-.554687 0-1.027344-.2070312-1.421875-.625-.40625-.414062-.609375-1.117188-.609375-2.109375 0-.726563.085937-1.347656.265625-1.859375.34375-.96875.96875-1.457031 1.875-1.46875zm-.046875 5.40625c.382813 0 .675781-.132812.875-.40625.1875-.25.28125-.554688.28125-.921875 0-.289063-.085937-.578125-.25-.859375-.179687-.269531-.492187-.40625-.9375-.40625-.324219 0-.605469.105469-.84375.3125-.242187.21875-.359375.539062-.359375.953125 0 .375.109375.6875.328125.9375.21875.261719.519531.390625.90625.390625zm0 0"/></symbol><symbol id="O" overflow="visible"><path d="m2.28125-3.421875c.320312.011719.578125-.078125.765625-.265625s.28125-.40625.28125-.65625c0-.207031-.089844-.40625-.265625-.59375-.179688-.1875-.445312-.28125-.796875-.28125-.367187 0-.625.09375-.78125.28125s-.234375.402344-.234375.640625c0 .273437.101562.484375.3125.640625.207031.15625.445312.234375.71875.234375zm.046875 2.921875c.34375 0 .628906-.09375.859375-.28125.21875-.1875.328125-.460938.328125-.828125 0-.375-.117187-.660156-.34375-.859375-.242187-.195312-.539063-.296875-.890625-.296875-.355469 0-.640625.101563-.859375.296875-.230469.199219-.34375.476562-.34375.828125 0 .3125.101563.578125.3125.796875.195313.230469.507813.34375.9375.34375zm-1.046875-2.625c-.210938-.09375-.371094-.195312-.484375-.3125-.21875-.21875-.328125-.503906-.328125-.859375 0-.4375.160156-.8125.484375-1.125.3125-.3125.757813-.46875 1.34375-.46875.5625 0 1.003906.148437 1.328125.4375.320312.304687.484375.652344.484375 1.046875 0 .367188-.09375.664062-.28125.890625-.105469.125-.265625.25-.484375.375.238281.117187.429688.246094.578125.390625.257813.273438.390625.625.390625 1.0625 0 .523438-.179688.960938-.53125 1.3125-.34375.3671875-.835938.546875-1.46875.546875-.574219 0-1.058594-.15625-1.453125-.46875-.398437-.3125-.59375-.765625-.59375-1.359375 0-.34375.085937-.640625.265625-.890625.164062-.25.414062-.441406.75-.578125zm0 0"/></symbol><symbol id="P" overflow="visible"><path d="m.53125-4.390625h.71875v.625c.175781-.21875.335938-.378906.484375-.484375.238281-.164062.515625-.25.828125-.25.34375 0 .625.089844.84375.265625.113281.09375.222656.242187.328125.4375.164063-.238281.359375-.414063.578125-.53125.21875-.101563.46875-.160156.75-.171875.59375 0 .992188.214844 1.203125.640625.113281.230469.171875.542969.171875.9375v2.921875h-.765625v-3.046875c0-.289063-.074219-.492187-.21875-.609375-.148437-.113281-.324219-.171875-.53125-.171875-.292969.011719-.542969.109375-.75.296875-.210937.199219-.3125.523438-.3125.96875v2.5625h-.75v-2.875c-.011719-.289062-.046875-.503906-.109375-.640625-.117188-.207031-.324219-.3125-.625-.3125-.28125 0-.539062.109375-.765625.328125-.230469.21875-.34375.609375-.34375 1.171875v2.328125h-.734375zm0 0"/></symbol><symbol id="Q" overflow="visible"><path d="m2.1875.15625c-.699219 0-1.203125-.1914062-1.515625-.578125-.3125-.375-.46875-.835937-.46875-1.390625h.765625c.03125.386719.101562.664062.21875.828125.1875.3125.53125.46875 1.03125.46875.394531 0 .707031-.101563.9375-.3125.238281-.207031.359375-.472656.359375-.796875 0-.40625-.125-.691406-.375-.859375-.25-.15625-.59375-.234375-1.03125-.234375-.054687 0-.101563 0-.140625 0-.0625 0-.117188 0-.15625 0v-.640625c.070312 0 .132812.007813.1875.015625h.171875c.269531 0 .492187-.046875.671875-.140625.3125-.144531.46875-.414063.46875-.8125 0-.289063-.105469-.515625-.3125-.671875-.210938-.164062-.449219-.25-.71875-.25-.492188 0-.835938.167969-1.03125.5-.105469.1875-.164062.445312-.171875.765625h-.734375c0-.425781.085938-.796875.265625-1.109375.300781-.539062.832031-.816406 1.59375-.828125.59375 0 1.054687.136719 1.390625.40625.320312.273437.484375.65625.484375 1.15625 0 .367187-.09375.65625-.28125.875-.125.148437-.28125.257813-.46875.328125.300781.09375.539063.261719.71875.5.175781.242188.265625.539062.265625.890625 0 .5625-.1875 1.015625-.5625 1.359375-.367188.3554688-.886719.53125-1.5625.53125zm0 0"/></symbol><symbol id="R" overflow="visible"><path d="m.109375-4.390625h.953125l1.015625 1.546875 1.015625-1.546875.90625.015625-1.484375 2.125 1.546875 2.25h-.953125l-1.078125-1.65625-1.0625 1.65625h-.9375l1.546875-2.25zm0 0"/></symbol><symbol id="S" overflow="visible"><path d="m2.390625-.5c.351563 0 .644531-.144531.875-.4375.21875-.28125.328125-.707031.328125-1.28125 0-.351562-.046875-.65625-.140625-.90625-.199219-.488281-.554687-.734375-1.0625-.734375-.511719 0-.859375.257813-1.046875.765625-.105469.28125-.15625.632812-.15625 1.046875 0 .34375.050781.636719.15625.875.195312.449219.546875.671875 1.046875.671875zm-1.90625-3.875h.71875v.578125c.144531-.195313.304687-.347656.484375-.453125.25-.164062.539062-.25.875-.25.5 0 .921875.1875 1.265625.5625.351563.386719.53125.933594.53125 1.640625 0 .960937-.25 1.648437-.75 2.0625-.324219.25-.695313.375-1.109375.375-.335938 0-.617188-.0703125-.84375-.203125-.125-.082031-.273438-.226562-.4375-.4375v2.25h-.734375zm0 0"/></symbol><symbol id="T" overflow="visible"><path d="m.625-6.03125h1.171875l1.71875 5.09375 1.71875-5.09375h1.171875v6.03125h-.78125v-3.5625c0-.125 0-.328125 0-.609375.007812-.28125.015625-.582031.015625-.90625l-1.71875 5.078125h-.8125l-1.734375-5.078125v.171875c0 .15625.003906.382812.015625.671875 0 .3125.003906.539063.015625.671875v3.5625h-.78125zm0 0"/></symbol><symbol id="U" overflow="visible"><path d="m1.09375-6.03125 1.734375 5.140625 1.71875-5.140625h.90625l-2.1875 6.03125h-.875l-2.1875-6.03125zm0 0"/></symbol><symbol id="V" overflow="visible"><path d="m.8125-6.03125h.828125v6.03125h-.828125zm0 0"/></symbol><symbol id="W" overflow="visible"><path d="m1.171875-1.953125c.019531.34375.101563.625.25.84375.257813.398437.734375.59375 1.421875.59375.3125 0 .59375-.039063.84375-.125.488281-.164063.734375-.472656.734375-.921875 0-.320312-.105469-.550781-.3125-.6875-.210937-.132812-.539063-.253906-.984375-.359375l-.8125-.1875c-.53125-.113281-.90625-.25-1.125-.40625-.386719-.25-.578125-.625-.578125-1.125 0-.539063.1875-.984375.5625-1.328125.375-.351562.90625-.53125 1.59375-.53125.625 0 1.160156.15625 1.609375.46875.4375.304688.65625.789062.65625 1.453125h-.765625c-.042969-.320313-.132813-.566406-.265625-.734375-.25-.3125-.671875-.46875-1.265625-.46875-.480469 0-.824219.101562-1.03125.296875-.210937.210937-.3125.445313-.3125.703125 0 .304688.117187.523438.359375.65625.15625.085938.519531.195312 1.09375.328125l.84375.1875c.40625.09375.722656.21875.953125.375.375.292969.566406.703125.578125 1.234375 0 .667969-.246094 1.148438-.734375 1.4375-.492187.28125-1.054687.421875-1.6875.421875-.761719 0-1.351563-.1875-1.765625-.5625-.429688-.382813-.636719-.90625-.625-1.5625zm0 0"/></symbol><symbol id="X" overflow="visible"><path d="m.640625-6.03125h.96875l3.046875 4.890625v-4.890625h.765625v6.03125h-.90625l-3.09375-4.875v4.875h-.78125zm0 0"/></symbol><symbol id="Y" overflow="visible"><path d="m.703125.859375c.1875-.03125.316406-.167969.390625-.40625.039062-.117187.0625-.230469.0625-.34375 0-.0234375 0-.0429688 0-.0625 0-.0117188-.007812-.0273438-.015625-.046875h-.4375v-.890625h.875v.828125c0 .320312-.070313.609375-.203125.859375-.125.238281-.351562.390625-.671875.453125zm0 0"/></symbol><symbol id="Z" overflow="visible"><path d="m2.953125-.703125c.269531 0 .5-.023437.6875-.078125.3125-.101562.570313-.3125.78125-.625.15625-.238281.269531-.546875.34375-.921875.039063-.226563.0625-.441406.0625-.640625 0-.738281-.148437-1.316406-.4375-1.734375-.304687-.414063-.78125-.625-1.4375-.625h-1.453125v4.625zm-2.28125-5.328125h2.453125c.820312 0 1.460938.296875 1.921875.890625.40625.53125.609375 1.210937.609375 2.03125 0 .648437-.121094 1.226563-.359375 1.734375-.429687.917969-1.15625 1.375-2.1875 1.375h-2.4375zm0 0"/></symbol><symbol id="aa" overflow="visible"><path d="m.890625-4.390625 1.171875 3.578125 1.21875-3.578125h.8125l-1.65625 4.390625h-.78125l-1.625-4.390625zm0 0"/></symbol><symbol id="ab" overflow="visible"><path d="m.328125-3.609375v-.65625h1.578125v-1.765625h.796875v1.765625h1.59375v.65625h-1.59375v4.953125h-.796875v-4.953125zm0 0"/></symbol><symbol id="ac" overflow="visible"><path d="m.90625-1.28125c.019531.230469.078125.40625.171875.53125.175781.21875.476563.328125.90625.328125.25 0 .472656-.054687.671875-.171875.1875-.101562.28125-.269531.28125-.5 0-.175781-.078125-.3125-.234375-.40625-.09375-.050781-.289063-.113281-.578125-.1875l-.546875-.140625c-.355469-.082031-.609375-.179687-.765625-.296875-.304688-.1875-.453125-.441406-.453125-.765625 0-.382813.140625-.695313.421875-.9375.28125-.238281.65625-.359375 1.125-.359375.613281 0 1.054688.183594 1.328125.546875.164063.230469.25.476563.25.734375h-.65625c-.011719-.15625-.0625-.296875-.15625-.421875-.15625-.175781-.433594-.265625-.828125-.265625-.25 0-.445312.046875-.578125.140625-.136719.105469-.203125.234375-.203125.390625 0 .1875.085938.335938.265625.4375.101563.0625.253906.117188.453125.15625l.453125.109375c.488281.125.816406.246094.984375.359375.257812.167969.390625.4375.390625.8125s-.136719.695312-.40625.953125c-.28125.2578125-.699219.390625-1.25.390625-.617187 0-1.046875-.140625-1.296875-.421875-.25-.269531-.386719-.609375-.40625-1.015625zm0 0"/></symbol><symbol id="ad" overflow="visible"><path d="m.640625-5.21875h.6875v1.140625h.65625v.5625h-.65625v2.65625c0 .148437.050781.242187.15625.28125.039063.03125.128906.046875.265625.046875h.09375c.039062 0 .085938-.003906.140625-.015625v.546875c-.085937.0195312-.167969.0351562-.25.046875-.085937.0078125-.171875.015625-.265625.015625-.324219 0-.542969-.0820312-.65625-.25-.117188-.15625-.171875-.363281-.171875-.625v-2.703125h-.546875v-.5625h.546875zm0 0"/></symbol><symbol id="ae" overflow="visible"><path d="m1.03125-1.078125c0 .199219.070312.355469.21875.46875.144531.105469.316406.15625.515625.15625.226563 0 .457031-.050781.6875-.15625.382813-.1875.578125-.488281.578125-.90625v-.5625c-.085938.0625-.195312.109375-.328125.140625-.136719.03125-.265625.058594-.390625.078125l-.40625.046875c-.25.03125-.4375.085938-.5625.15625-.210938.117188-.3125.308594-.3125.578125zm1.65625-1.390625c.15625-.019531.257812-.085938.3125-.203125.03125-.0625.046875-.148437.046875-.265625 0-.226562-.085937-.394531-.25-.5-.167969-.101562-.402344-.15625-.703125-.15625-.367188 0-.621094.09375-.765625.28125-.085937.117188-.140625.277344-.171875.484375h-.640625c.007813-.507813.175781-.863281.5-1.0625.3125-.1875.671875-.28125 1.078125-.28125.476562 0 .867188.089844 1.171875.265625.300781.1875.453125.476562.453125.859375v2.34375c0 .074219.015625.132813.046875.171875.019531.042969.078125.0625.171875.0625h.109375c.039063 0 .082031-.003906.125-.015625v.5c-.105469.03125-.1875.0507812-.25.0625-.054687.0078125-.125.015625-.21875.015625-.242187 0-.414063-.0859375-.515625-.25-.0625-.09375-.105469-.222656-.125-.390625-.148438.1875-.34375.351563-.59375.484375-.273438.1328125-.5625.203125-.875.203125-.375 0-.683594-.1171875-.921875-.34375-.242187-.226563-.359375-.515625-.359375-.859375 0-.382812.117188-.679688.359375-.890625.226563-.195313.535156-.320313.921875-.375zm0 0"/></symbol><symbol id="af" overflow="visible"><path d="m2.203125-4.171875c.289063 0 .570313.070313.84375.203125.269531.136719.472656.3125.609375.53125.144531.210938.238281.449219.28125.71875.039062.1875.0625.492188.0625.90625h-2.984375c.007813.40625.101563.734375.28125.984375.1875.25.472656.375.859375.375.351562 0 .632812-.113281.84375-.34375.125-.144531.210938-.304687.265625-.484375h.671875c-.023438.15625-.078125.324219-.171875.5-.105469.1875-.21875.339844-.34375.453125-.210937.210937-.464844.34375-.765625.40625-.167969.050781-.355469.070313-.5625.0625-.511719 0-.945312-.1796875-1.296875-.546875-.355469-.363281-.527344-.878906-.515625-1.546875 0-.65625.175781-1.191406.53125-1.609375.351562-.40625.816406-.609375 1.390625-.609375zm1.09375 1.8125c-.03125-.300781-.101563-.539063-.203125-.71875-.1875-.332031-.5-.5-.9375-.5-.3125.011719-.578125.125-.796875.34375-.210937.230469-.320313.523437-.328125.875zm0 0"/></symbol><symbol id="ag" overflow="visible"><path d="m.9375-1.984375c0 .4375.09375.804687.28125 1.09375.1875.292969.484375.4375.890625.4375.3125 0 .570313-.132813.78125-.40625.195313-.269531.296875-.660156.296875-1.171875 0-.519531-.105469-.90625-.3125-1.15625-.210938-.238281-.46875-.359375-.78125-.359375-.34375 0-.621094.132813-.828125.390625-.21875.261719-.328125.652344-.328125 1.171875zm1.03125-2.171875c.3125 0 .570312.070312.78125.203125.125.074219.265625.210937.421875.40625v-2.0625h.65625v5.609375h-.625v-.5625c-.15625.25-.34375.433594-.5625.546875-.21875.1015625-.46875.15625-.75.15625-.460937.007813-.851563-.1796875-1.171875-.578125-.335938-.375-.5-.878906-.5-1.515625 0-.59375.148438-1.109375.453125-1.546875.300781-.4375.734375-.65625 1.296875-.65625zm0 0"/></symbol><symbol id="ah" overflow="visible"/><symbol id="ai" overflow="visible"><path d="m.5-4.0625h.703125v4.0625h-.703125zm0-1.53125h.703125v.78125h-.703125zm0 0"/></symbol><symbol id="aj" overflow="visible"><path d="m.5-4.078125h.65625v.578125c.1875-.238281.390625-.410156.609375-.515625.21875-.101563.457031-.15625.71875-.15625.582031 0 .972656.203125 1.171875.609375.113281.21875.171875.539062.171875.953125v2.609375h-.703125v-2.5625c0-.25-.039062-.453125-.109375-.609375-.117187-.25-.335937-.375-.65625-.375-.167969 0-.304687.015625-.40625.046875-.1875.054688-.351563.164062-.484375.328125-.117188.136719-.195312.277344-.234375.421875-.03125.148438-.046875.351562-.046875.609375v2.140625h-.6875zm0 0"/></symbol><g clip-path="url(#a)"><path d="m0 0h544.3652v318.23497h-544.3652z" fill="#f6f6f6"/><g fill="#fff"><path d="m0 0h544.3652v318.23497h-544.3652z"/><path d="m0 0h544.3652v318.23497h-544.3652z"/></g></g><g clip-path="url(#b)"><path d="m-.238281 73.433594h546.289062v.601562h-546.289062zm0 0" fill="#eaecf0"/></g><g fill="#72777d"><use x="142.636753" xlink:href="#j" y="30.212186"/><use x="147.307969" xlink:href="#k" y="30.212186"/><use x="149.634212" xlink:href="#l" y="30.212186"/><use x="152.429486" xlink:href="#m" y="30.212186"/><use x="157.100762" xlink:href="#n" y="30.212186"/><use x="159.427005" xlink:href="#m" y="30.212186"/><use x="164.098221" xlink:href="#l" y="30.212186"/><use x="166.893435" xlink:href="#m" y="30.212186"/><use x="171.564711" xlink:href="#o" y="30.212186"/><use x="176.235988" xlink:href="#p" y="30.212186"/><use x="180.438233" xlink:href="#m" y="30.212186"/></g><g fill="#0645ad"><use x="141.436111" xlink:href="#q" y="9.801278"/><use x="147.035964" xlink:href="#l" y="9.801278"/><use x="149.831237" xlink:href="#r" y="9.801278"/><use x="154.033483" xlink:href="#s" y="9.801278"/><use x="156.359726" xlink:href="#t" y="9.801278"/><use x="161.030942" xlink:href="#l" y="9.801278"/><use x="163.826216" xlink:href="#u" y="9.801278"/><use x="165.692794" xlink:href="#o" y="9.801278"/><use x="170.36407" xlink:href="#v" y="9.801278"/><use x="175.035346" xlink:href="#k" y="9.801278"/><use x="177.361589" xlink:href="#m" y="9.801278"/><use x="182.032805" xlink:href="#w" y="9.801278"/><use x="186.704022" xlink:href="#x" y="9.801278"/><use x="191.375298" xlink:href="#y" y="9.801278"/><use x="193.241935" xlink:href="#u" y="9.801278"/><use x="195.108513" xlink:href="#z" y="9.801278"/></g><g clip-path="url(#c)"><path d="m142.636719 34.414062h403.414062v26.414063h-403.414062zm0 0" fill="#f8f9fa"/></g><g fill="#0645ad"><use x="148.639961" xlink:href="#ac" y="45.820526"/><use x="152.542046" xlink:href="#ad" y="45.820526"/><use x="154.708844" xlink:href="#ae" y="45.820526"/><use x="159.04238" xlink:href="#ad" y="45.820526"/><use x="161.209178" xlink:href="#af" y="45.820526"/><use x="165.542713" xlink:href="#ag" y="45.820526"/><use x="169.876309" xlink:href="#ah" y="45.820526"/><use x="172.043107" xlink:href="#ai" y="45.820526"/><use x="173.769029" xlink:href="#aj" y="45.820526"/><use x="259.098988" xlink:href="#A" y="46.420847"/><use x="264.69884" xlink:href="#y" y="46.420847"/><use x="266.565478" xlink:href="#B" y="46.420847"/><use x="270.767724" xlink:href="#v" y="46.420847"/><use x="275.439" xlink:href="#y" y="46.420847"/><use x="277.305577" xlink:href="#C" y="46.420847"/><use x="281.976853" xlink:href="#u" y="46.420847"/><use x="283.843491" xlink:href="#w" y="46.420847"/><use x="288.514707" xlink:href="#D" y="46.420847"/><use x="291.309921" xlink:href="#E" y="46.420847"/><use x="296.909833" xlink:href="#m" y="46.420847"/><use x="301.58105" xlink:href="#v" y="46.420847"/><use x="306.252326" xlink:href="#l" y="46.420847"/><use x="309.04754" xlink:href="#u" y="46.420847"/><use x="310.914177" xlink:href="#o" y="46.420847"/><use x="315.585453" xlink:href="#F" y="46.420847"/><use x="320.25667" xlink:href="#k" y="46.420847"/><use x="322.582913" xlink:href="#G" y="46.420847"/><use x="328.182765" xlink:href="#y" y="46.420847"/><use x="330.049403" xlink:href="#v" y="46.420847"/><use x="334.720679" xlink:href="#o" y="46.420847"/><use x="339.391895" xlink:href="#s" y="46.420847"/><use x="341.718138" xlink:href="#z" y="46.420847"/><use x="345.920384" xlink:href="#k" y="46.420847"/><use x="348.246627" xlink:href="#v" y="46.420847"/><use x="352.917843" xlink:href="#o" y="46.420847"/><use x="357.589119" xlink:href="#w" y="46.420847"/><use x="362.260395" xlink:href="#k" y="46.420847"/><use x="364.586639" xlink:href="#H" y="46.420847"/><use x="369.71746" xlink:href="#t" y="46.420847"/><use x="374.388737" xlink:href="#m" y="46.420847"/><use x="379.059953" xlink:href="#u" y="46.420847"/><use x="380.92659" xlink:href="#l" y="46.420847"/><use x="259.098988" xlink:href="#I" y="56.02598"/><use x="265.167871" xlink:href="#C" y="56.02598"/><use x="269.839087" xlink:href="#o" y="56.02598"/><use x="274.510364" xlink:href="#s" y="56.02598"/><use x="276.836607" xlink:href="#v" y="56.02598"/><use x="281.507823" xlink:href="#u" y="56.02598"/><use x="283.37446" xlink:href="#o" y="56.02598"/><use x="288.045737" xlink:href="#m" y="56.02598"/><use x="292.716953" xlink:href="#w" y="56.02598"/><use x="297.388169" xlink:href="#k" y="56.02598"/><use x="299.714412" xlink:href="#A" y="56.02598"/><use x="305.314325" xlink:href="#y" y="56.02598"/><use x="307.180962" xlink:href="#B" y="56.02598"/><use x="311.383208" xlink:href="#v" y="56.02598"/><use x="316.054424" xlink:href="#y" y="56.02598"/><use x="317.921061" xlink:href="#C" y="56.02598"/><use x="322.592278" xlink:href="#u" y="56.02598"/><use x="324.458915" xlink:href="#w" y="56.02598"/><use x="329.130131" xlink:href="#z" y="56.02598"/><use x="333.332377" xlink:href="#J" y="56.02598"/><use x="335.65862" xlink:href="#k" y="56.02598"/><use x="337.984863" xlink:href="#j" y="56.02598"/><use x="342.656139" xlink:href="#K" y="56.02598"/><use x="347.327416" xlink:href="#L" y="56.02598"/><use x="351.998632" xlink:href="#M" y="56.02598"/><use x="356.669848" xlink:href="#D" y="56.02598"/><use x="359.465122" xlink:href="#j" y="56.02598"/><use x="364.136398" xlink:href="#K" y="56.02598"/><use x="368.807614" xlink:href="#N" y="56.02598"/><use x="373.47883" xlink:href="#O" y="56.02598"/></g><g clip-path="url(#d)"><path d="m-.238281 152.675781h546.289062v.601563h-546.289062zm0 0" fill="#eaecf0"/></g><g fill="#72777d"><use x="142.636753" xlink:href="#j" y="109.454531"/><use x="147.307969" xlink:href="#k" y="109.454531"/><use x="149.634212" xlink:href="#l" y="109.454531"/><use x="152.429486" xlink:href="#m" y="109.454531"/><use x="157.100762" xlink:href="#n" y="109.454531"/><use x="159.427005" xlink:href="#m" y="109.454531"/><use x="164.098221" xlink:href="#l" y="109.454531"/><use x="166.893435" xlink:href="#m" y="109.454531"/><use x="171.564711" xlink:href="#o" y="109.454531"/><use x="176.235988" xlink:href="#p" y="109.454531"/><use x="180.438233" xlink:href="#m" y="109.454531"/></g><g fill="#0645ad"><use x="141.436111" xlink:href="#q" y="89.043624"/><use x="147.035964" xlink:href="#l" y="89.043624"/><use x="149.831237" xlink:href="#r" y="89.043624"/><use x="154.033483" xlink:href="#s" y="89.043624"/><use x="156.359726" xlink:href="#t" y="89.043624"/><use x="161.030942" xlink:href="#l" y="89.043624"/><use x="163.826216" xlink:href="#u" y="89.043624"/><use x="165.692794" xlink:href="#o" y="89.043624"/><use x="170.36407" xlink:href="#v" y="89.043624"/><use x="175.035346" xlink:href="#k" y="89.043624"/><use x="177.361589" xlink:href="#z" y="89.043624"/><use x="181.563835" xlink:href="#P" y="89.043624"/><use x="188.561294" xlink:href="#u" y="89.043624"/><use x="190.427931" xlink:href="#s" y="89.043624"/><use x="192.754175" xlink:href="#t" y="89.043624"/><use x="197.425391" xlink:href="#u" y="89.043624"/><use x="199.292028" xlink:href="#v" y="89.043624"/><use x="203.963245" xlink:href="#o" y="89.043624"/><use x="208.634521" xlink:href="#v" y="89.043624"/></g><g clip-path="url(#e)"><path d="m142.636719 113.65625h403.414062v26.414062h-403.414062zm0 0" fill="#f8f9fa"/></g><g fill="#0645ad"><use x="148.639961" xlink:href="#ac" y="125.062872"/><use x="152.542046" xlink:href="#ad" y="125.062872"/><use x="154.708844" xlink:href="#ae" y="125.062872"/><use x="159.04238" xlink:href="#ad" y="125.062872"/><use x="161.209178" xlink:href="#af" y="125.062872"/><use x="165.542713" xlink:href="#ag" y="125.062872"/><use x="169.876309" xlink:href="#ah" y="125.062872"/><use x="172.043107" xlink:href="#ai" y="125.062872"/><use x="173.769029" xlink:href="#aj" y="125.062872"/><use x="259.098988" xlink:href="#A" y="125.663193"/><use x="264.69884" xlink:href="#y" y="125.663193"/><use x="266.565478" xlink:href="#B" y="125.663193"/><use x="270.767724" xlink:href="#v" y="125.663193"/><use x="275.439" xlink:href="#y" y="125.663193"/><use x="277.305577" xlink:href="#C" y="125.663193"/><use x="281.976853" xlink:href="#u" y="125.663193"/><use x="283.843491" xlink:href="#w" y="125.663193"/><use x="288.514707" xlink:href="#D" y="125.663193"/><use x="291.309921" xlink:href="#E" y="125.663193"/><use x="296.909833" xlink:href="#m" y="125.663193"/><use x="301.58105" xlink:href="#v" y="125.663193"/><use x="306.252326" xlink:href="#l" y="125.663193"/><use x="309.04754" xlink:href="#u" y="125.663193"/><use x="310.914177" xlink:href="#o" y="125.663193"/><use x="315.585453" xlink:href="#F" y="125.663193"/><use x="320.25667" xlink:href="#k" y="125.663193"/><use x="322.582913" xlink:href="#G" y="125.663193"/><use x="328.182765" xlink:href="#y" y="125.663193"/><use x="330.049403" xlink:href="#v" y="125.663193"/><use x="334.720679" xlink:href="#o" y="125.663193"/><use x="339.391895" xlink:href="#s" y="125.663193"/><use x="341.718138" xlink:href="#z" y="125.663193"/><use x="345.920384" xlink:href="#k" y="125.663193"/><use x="348.246627" xlink:href="#v" y="125.663193"/><use x="352.917843" xlink:href="#o" y="125.663193"/><use x="357.589119" xlink:href="#w" y="125.663193"/><use x="362.260395" xlink:href="#k" y="125.663193"/><use x="364.586639" xlink:href="#H" y="125.663193"/><use x="369.71746" xlink:href="#t" y="125.663193"/><use x="374.388737" xlink:href="#m" y="125.663193"/><use x="379.059953" xlink:href="#u" y="125.663193"/><use x="380.92659" xlink:href="#l" y="125.663193"/><use x="259.098988" xlink:href="#I" y="135.268326"/><use x="265.167871" xlink:href="#C" y="135.268326"/><use x="269.839087" xlink:href="#o" y="135.268326"/><use x="274.510364" xlink:href="#s" y="135.268326"/><use x="276.836607" xlink:href="#v" y="135.268326"/><use x="281.507823" xlink:href="#u" y="135.268326"/><use x="283.37446" xlink:href="#o" y="135.268326"/><use x="288.045737" xlink:href="#m" y="135.268326"/><use x="292.716953" xlink:href="#w" y="135.268326"/><use x="297.388169" xlink:href="#k" y="135.268326"/><use x="299.714412" xlink:href="#A" y="135.268326"/><use x="305.314325" xlink:href="#y" y="135.268326"/><use x="307.180962" xlink:href="#B" y="135.268326"/><use x="311.383208" xlink:href="#v" y="135.268326"/><use x="316.054424" xlink:href="#y" y="135.268326"/><use x="317.921061" xlink:href="#C" y="135.268326"/><use x="322.592278" xlink:href="#u" y="135.268326"/><use x="324.458915" xlink:href="#w" y="135.268326"/><use x="329.130131" xlink:href="#z" y="135.268326"/><use x="333.332377" xlink:href="#J" y="135.268326"/><use x="335.65862" xlink:href="#k" y="135.268326"/><use x="337.984863" xlink:href="#j" y="135.268326"/><use x="342.656139" xlink:href="#K" y="135.268326"/><use x="347.327416" xlink:href="#L" y="135.268326"/><use x="351.998632" xlink:href="#M" y="135.268326"/><use x="356.669848" xlink:href="#D" y="135.268326"/><use x="359.465122" xlink:href="#j" y="135.268326"/><use x="364.136398" xlink:href="#K" y="135.268326"/><use x="368.807614" xlink:href="#N" y="135.268326"/><use x="373.47883" xlink:href="#O" y="135.268326"/></g><g fill="#72777d"><use x="142.636753" xlink:href="#Q" y="188.696877"/><use x="147.307969" xlink:href="#k" y="188.696877"/><use x="149.634212" xlink:href="#l" y="188.696877"/><use x="152.429486" xlink:href="#m" y="188.696877"/><use x="157.100762" xlink:href="#n" y="188.696877"/><use x="159.427005" xlink:href="#m" y="188.696877"/><use x="164.098221" xlink:href="#l" y="188.696877"/><use x="166.893435" xlink:href="#m" y="188.696877"/><use x="171.564711" xlink:href="#o" y="188.696877"/><use x="176.235988" xlink:href="#p" y="188.696877"/><use x="180.438233" xlink:href="#m" y="188.696877"/><use x="185.109449" xlink:href="#z" y="188.696877"/></g><g fill="#0645ad"><use x="141.436111" xlink:href="#q" y="168.28597"/><use x="147.035964" xlink:href="#l" y="168.28597"/><use x="149.831237" xlink:href="#r" y="168.28597"/><use x="154.033483" xlink:href="#s" y="168.28597"/><use x="156.359726" xlink:href="#t" y="168.28597"/><use x="161.030942" xlink:href="#l" y="168.28597"/><use x="163.826216" xlink:href="#u" y="168.28597"/><use x="165.692794" xlink:href="#o" y="168.28597"/><use x="170.36407" xlink:href="#v" y="168.28597"/><use x="175.035346" xlink:href="#k" y="168.28597"/><use x="177.361589" xlink:href="#v" y="168.28597"/><use x="182.032805" xlink:href="#P" y="168.28597"/><use x="189.030265" xlink:href="#m" y="168.28597"/><use x="193.701541" xlink:href="#l" y="168.28597"/><use x="196.496815" xlink:href="#u" y="168.28597"/><use x="198.363392" xlink:href="#p" y="168.28597"/><use x="202.565638" xlink:href="#v" y="168.28597"/><use x="207.236914" xlink:href="#o" y="168.28597"/><use x="211.90813" xlink:href="#v" y="168.28597"/></g><g clip-path="url(#f)"><path d="m142.636719 192.898438h403.414062v26.414062h-403.414062zm0 0" fill="#f8f9fa"/></g><g fill="#0645ad"><use x="148.639961" xlink:href="#ac" y="204.305218"/><use x="152.542046" xlink:href="#ad" y="204.305218"/><use x="154.708844" xlink:href="#ae" y="204.305218"/><use x="159.04238" xlink:href="#ad" y="204.305218"/><use x="161.209178" xlink:href="#af" y="204.305218"/><use x="165.542713" xlink:href="#ag" y="204.305218"/><use x="169.876309" xlink:href="#ah" y="204.305218"/><use x="172.043107" xlink:href="#ai" y="204.305218"/><use x="173.769029" xlink:href="#aj" y="204.305218"/><use x="259.098988" xlink:href="#A" y="204.905538"/><use x="264.69884" xlink:href="#y" y="204.905538"/><use x="266.565478" xlink:href="#B" y="204.905538"/><use x="270.767724" xlink:href="#v" y="204.905538"/><use x="275.439" xlink:href="#y" y="204.905538"/><use x="277.305577" xlink:href="#C" y="204.905538"/><use x="281.976853" xlink:href="#u" y="204.905538"/><use x="283.843491" xlink:href="#w" y="204.905538"/><use x="288.514707" xlink:href="#z" y="204.905538"/><use x="292.716953" xlink:href="#k" y="204.905538"/><use x="295.043196" xlink:href="#n" y="204.905538"/><use x="297.369439" xlink:href="#l" y="204.905538"/><use x="300.164653" xlink:href="#C" y="204.905538"/><use x="304.835929" xlink:href="#P" y="204.905538"/><use x="311.833448" xlink:href="#k" y="204.905538"/><use x="314.159691" xlink:href="#z" y="204.905538"/><use x="318.361937" xlink:href="#u" y="204.905538"/><use x="320.228514" xlink:href="#R" y="204.905538"/><use x="324.43076" xlink:href="#k" y="204.905538"/><use x="326.757003" xlink:href="#q" y="204.905538"/><use x="332.356856" xlink:href="#l" y="204.905538"/><use x="335.152129" xlink:href="#r" y="204.905538"/><use x="339.354375" xlink:href="#s" y="204.905538"/><use x="341.680618" xlink:href="#t" y="204.905538"/><use x="346.351894" xlink:href="#l" y="204.905538"/><use x="349.147108" xlink:href="#u" y="204.905538"/><use x="351.013745" xlink:href="#o" y="204.905538"/><use x="355.684962" xlink:href="#v" y="204.905538"/><use x="360.356238" xlink:href="#k" y="204.905538"/><use x="362.682481" xlink:href="#z" y="204.905538"/><use x="366.884727" xlink:href="#S" y="204.905538"/><use x="371.555943" xlink:href="#m" y="204.905538"/><use x="376.227219" xlink:href="#p" y="204.905538"/><use x="380.429465" xlink:href="#u" y="204.905538"/><use x="382.296102" xlink:href="#m" y="204.905538"/><use x="386.967318" xlink:href="#z" y="204.905538"/><use x="259.098988" xlink:href="#m" y="214.510671"/><use x="263.770204" xlink:href="#o" y="214.510671"/><use x="268.44148" xlink:href="#w" y="214.510671"/><use x="273.112757" xlink:href="#m" y="214.510671"/><use x="277.783973" xlink:href="#P" y="214.510671"/><use x="284.781432" xlink:href="#u" y="214.510671"/><use x="286.64807" xlink:href="#p" y="214.510671"/><use x="290.850315" xlink:href="#k" y="214.510671"/><use x="293.176558" xlink:href="#s" y="214.510671"/><use x="295.502802" xlink:href="#C" y="214.510671"/><use x="300.174078" xlink:href="#k" y="214.510671"/><use x="302.500321" xlink:href="#T" y="214.510671"/><use x="309.49778" xlink:href="#m" y="214.510671"/><use x="314.169056" xlink:href="#R" y="214.510671"/><use x="318.371302" xlink:href="#u" y="214.510671"/><use x="320.237939" xlink:href="#p" y="214.510671"/><use x="324.440185" xlink:href="#C" y="214.510671"/></g><g clip-path="url(#g)"><path d="m142.636719 223.515625h403.414062v36.019531h-403.414062zm0 0" fill="#f8f9fa"/></g><g fill="#0645ad"><use x="148.639961" xlink:href="#ac" y="234.921578"/><use x="152.542046" xlink:href="#ad" y="234.921578"/><use x="154.708844" xlink:href="#ae" y="234.921578"/><use x="159.04238" xlink:href="#ad" y="234.921578"/><use x="161.209178" xlink:href="#af" y="234.921578"/><use x="165.542713" xlink:href="#ag" y="234.921578"/><use x="169.876309" xlink:href="#ah" y="234.921578"/><use x="172.043107" xlink:href="#ai" y="234.921578"/><use x="173.769029" xlink:href="#aj" y="234.921578"/><use x="259.098988" xlink:href="#q" y="235.521899"/><use x="264.69884" xlink:href="#l" y="235.521899"/><use x="267.494114" xlink:href="#r" y="235.521899"/><use x="271.69636" xlink:href="#s" y="235.521899"/><use x="274.022603" xlink:href="#t" y="235.521899"/><use x="278.693819" xlink:href="#l" y="235.521899"/><use x="281.489093" xlink:href="#u" y="235.521899"/><use x="283.35567" xlink:href="#o" y="235.521899"/><use x="288.026947" xlink:href="#v" y="235.521899"/><use x="292.698223" xlink:href="#k" y="235.521899"/><use x="295.024466" xlink:href="#A" y="235.521899"/><use x="300.624318" xlink:href="#y" y="235.521899"/><use x="302.490896" xlink:href="#B" y="235.521899"/><use x="306.693141" xlink:href="#v" y="235.521899"/><use x="311.364418" xlink:href="#y" y="235.521899"/><use x="313.231055" xlink:href="#C" y="235.521899"/><use x="317.902271" xlink:href="#u" y="235.521899"/><use x="319.768909" xlink:href="#w" y="235.521899"/><use x="324.440185" xlink:href="#z" y="235.521899"/><use x="328.642431" xlink:href="#J" y="235.521899"/><use x="330.968674" xlink:href="#k" y="235.521899"/><use x="333.294917" xlink:href="#U" y="235.521899"/><use x="338.894769" xlink:href="#V" y="235.521899"/><use x="341.221012" xlink:href="#V" y="235.521899"/><use x="343.547256" xlink:href="#V" y="235.521899"/><use x="345.873499" xlink:href="#J" y="235.521899"/><use x="348.199742" xlink:href="#k" y="235.521899"/><use x="350.525985" xlink:href="#W" y="235.521899"/><use x="356.125837" xlink:href="#s" y="235.521899"/><use x="358.45208" xlink:href="#x" y="235.521899"/><use x="363.123297" xlink:href="#w" y="235.521899"/><use x="367.794573" xlink:href="#u" y="235.521899"/><use x="369.66121" xlink:href="#m" y="235.521899"/><use x="374.332427" xlink:href="#z" y="235.521899"/><use x="378.534672" xlink:href="#k" y="235.521899"/><use x="380.860915" xlink:href="#C" y="235.521899"/><use x="385.532191" xlink:href="#o" y="235.521899"/><use x="259.098988" xlink:href="#s" y="245.127032"/><use x="261.425231" xlink:href="#t" y="245.127032"/><use x="266.096447" xlink:href="#m" y="245.127032"/><use x="270.767724" xlink:href="#k" y="245.127032"/><use x="273.093967" xlink:href="#I" y="245.127032"/><use x="279.16285" xlink:href="#C" y="245.127032"/><use x="283.834066" xlink:href="#o" y="245.127032"/><use x="288.505342" xlink:href="#z" y="245.127032"/><use x="292.707588" xlink:href="#s" y="245.127032"/><use x="295.033831" xlink:href="#u" y="245.127032"/><use x="296.900468" xlink:href="#s" y="245.127032"/><use x="299.226711" xlink:href="#x" y="245.127032"/><use x="303.897928" xlink:href="#s" y="245.127032"/><use x="306.224171" xlink:href="#u" y="245.127032"/><use x="308.090808" xlink:href="#C" y="245.127032"/><use x="312.762025" xlink:href="#o" y="245.127032"/><use x="317.433301" xlink:href="#k" y="245.127032"/><use x="319.759544" xlink:href="#C" y="245.127032"/><use x="324.43076" xlink:href="#n" y="245.127032"/><use x="326.757003" xlink:href="#k" y="245.127032"/><use x="329.083246" xlink:href="#q" y="245.127032"/><use x="334.683099" xlink:href="#l" y="245.127032"/><use x="337.478372" xlink:href="#r" y="245.127032"/><use x="341.680618" xlink:href="#s" y="245.127032"/><use x="344.006861" xlink:href="#t" y="245.127032"/><use x="348.678137" xlink:href="#l" y="245.127032"/><use x="351.473351" xlink:href="#v" y="245.127032"/><use x="356.144567" xlink:href="#P" y="245.127032"/><use x="363.142087" xlink:href="#u" y="245.127032"/><use x="365.008724" xlink:href="#o" y="245.127032"/><use x="369.67994" xlink:href="#m" y="245.127032"/><use x="374.351217" xlink:href="#k" y="245.127032"/><use x="376.67746" xlink:href="#v" y="245.127032"/><use x="381.348676" xlink:href="#o" y="245.127032"/><use x="386.019952" xlink:href="#w" y="245.127032"/><use x="259.098988" xlink:href="#q" y="254.732165"/><use x="264.69884" xlink:href="#l" y="254.732165"/><use x="267.494114" xlink:href="#r" y="254.732165"/><use x="271.69636" xlink:href="#s" y="254.732165"/><use x="274.022603" xlink:href="#t" y="254.732165"/><use x="278.693819" xlink:href="#l" y="254.732165"/><use x="281.489093" xlink:href="#v" y="254.732165"/><use x="286.160309" xlink:href="#y" y="254.732165"/><use x="288.026947" xlink:href="#u" y="254.732165"/><use x="289.893584" xlink:href="#o" y="254.732165"/><use x="294.5648" xlink:href="#m" y="254.732165"/></g><g clip-path="url(#h)"><path d="m142.636719 263.738281h403.414062v55.226563h-403.414062zm0 0" fill="#f8f9fa"/></g><g fill="#0645ad"><use x="148.639961" xlink:href="#ac" y="275.143072"/><use x="152.542046" xlink:href="#ad" y="275.143072"/><use x="154.708844" xlink:href="#ae" y="275.143072"/><use x="159.04238" xlink:href="#ad" y="275.143072"/><use x="161.209178" xlink:href="#af" y="275.143072"/><use x="165.542713" xlink:href="#ag" y="275.143072"/><use x="169.876309" xlink:href="#ah" y="275.143072"/><use x="172.043107" xlink:href="#ai" y="275.143072"/><use x="173.769029" xlink:href="#aj" y="275.143072"/><use x="259.098988" xlink:href="#U" y="275.743393"/><use x="264.69884" xlink:href="#v" y="275.743393"/><use x="269.370117" xlink:href="#l" y="275.743393"/><use x="272.16533" xlink:href="#u" y="275.743393"/><use x="274.031968" xlink:href="#v" y="275.743393"/><use x="278.703184" xlink:href="#s" y="275.743393"/><use x="281.029427" xlink:href="#u" y="275.743393"/><use x="282.896065" xlink:href="#C" y="275.743393"/><use x="287.567341" xlink:href="#o" y="275.743393"/><use x="292.238557" xlink:href="#k" y="275.743393"/><use x="294.5648" xlink:href="#C" y="275.743393"/><use x="299.236076" xlink:href="#n" y="275.743393"/><use x="301.56232" xlink:href="#k" y="275.743393"/><use x="303.888563" xlink:href="#H" y="275.743393"/><use x="309.019385" xlink:href="#C" y="275.743393"/><use x="313.690661" xlink:href="#s" y="275.743393"/><use x="316.016904" xlink:href="#v" y="275.743393"/><use x="320.68818" xlink:href="#y" y="275.743393"/><use x="322.554758" xlink:href="#k" y="275.743393"/><use x="324.881001" xlink:href="#X" y="275.743393"/><use x="330.949884" xlink:href="#u" y="275.743393"/><use x="332.816521" xlink:href="#s" y="275.743393"/><use x="335.142764" xlink:href="#l" y="275.743393"/><use x="337.937978" xlink:href="#C" y="275.743393"/><use x="342.609254" xlink:href="#F" y="275.743393"/><use x="347.280471" xlink:href="#m" y="275.743393"/><use x="351.951747" xlink:href="#o" y="275.743393"/><use x="356.622963" xlink:href="#Y" y="275.743393"/><use x="358.949206" xlink:href="#k" y="275.743393"/><use x="361.275449" xlink:href="#X" y="275.743393"/><use x="367.344332" xlink:href="#C" y="275.743393"/><use x="372.015608" xlink:href="#o" y="275.743393"/><use x="376.686825" xlink:href="#D" y="275.743393"/><use x="259.098988" xlink:href="#S" y="285.348526"/><use x="263.770204" xlink:href="#l" y="285.348526"/><use x="266.565478" xlink:href="#C" y="285.348526"/><use x="271.236754" xlink:href="#s" y="285.348526"/><use x="273.562997" xlink:href="#m" y="285.348526"/><use x="278.234214" xlink:href="#u" y="285.348526"/><use x="280.100851" xlink:href="#o" y="285.348526"/><use x="284.772067" xlink:href="#k" y="285.348526"/><use x="287.09831" xlink:href="#X" y="285.348526"/><use x="293.167193" xlink:href="#u" y="285.348526"/><use x="295.033831" xlink:href="#s" y="285.348526"/><use x="297.360074" xlink:href="#l" y="285.348526"/><use x="300.155288" xlink:href="#C" y="285.348526"/><use x="304.826564" xlink:href="#F" y="285.348526"/><use x="309.49778" xlink:href="#m" y="285.348526"/><use x="314.169056" xlink:href="#o" y="285.348526"/><use x="318.840273" xlink:href="#k" y="285.348526"/><use x="321.166516" xlink:href="#I" y="285.348526"/><use x="327.235399" xlink:href="#C" y="285.348526"/><use x="331.906615" xlink:href="#o" y="285.348526"/><use x="336.577891" xlink:href="#s" y="285.348526"/><use x="338.904134" xlink:href="#m" y="285.348526"/><use x="343.575411" xlink:href="#o" y="285.348526"/><use x="348.246627" xlink:href="#s" y="285.348526"/><use x="350.57287" xlink:href="#Y" y="285.348526"/><use x="352.899113" xlink:href="#k" y="285.348526"/><use x="355.225356" xlink:href="#v" y="285.348526"/><use x="359.896572" xlink:href="#o" y="285.348526"/><use x="364.567849" xlink:href="#w" y="285.348526"/><use x="259.098988" xlink:href="#H" y="294.953658"/><use x="264.22987" xlink:href="#r" y="294.953658"/><use x="268.432115" xlink:href="#S" y="294.953658"/><use x="273.103332" xlink:href="#m" y="294.953658"/><use x="277.774608" xlink:href="#z" y="294.953658"/><use x="281.976853" xlink:href="#k" y="294.953658"/><use x="284.303097" xlink:href="#C" y="294.953658"/><use x="288.974313" xlink:href="#n" y="294.953658"/><use x="291.300556" xlink:href="#k" y="294.953658"/><use x="293.626799" xlink:href="#A" y="294.953658"/><use x="299.226711" xlink:href="#y" y="294.953658"/><use x="301.093289" xlink:href="#B" y="294.953658"/><use x="305.295535" xlink:href="#v" y="294.953658"/><use x="309.966811" xlink:href="#y" y="294.953658"/><use x="311.833448" xlink:href="#C" y="294.953658"/><use x="316.504665" xlink:href="#u" y="294.953658"/><use x="318.371302" xlink:href="#w" y="294.953658"/><use x="323.042518" xlink:href="#z" y="294.953658"/><use x="327.244764" xlink:href="#k" y="294.953658"/><use x="329.571007" xlink:href="#v" y="294.953658"/><use x="334.242283" xlink:href="#s" y="294.953658"/><use x="336.568526" xlink:href="#k" y="294.953658"/><use x="338.894769" xlink:href="#Z" y="294.953658"/><use x="344.963592" xlink:href="#u" y="294.953658"/><use x="346.83023" xlink:href="#n" y="294.953658"/><use x="349.156473" xlink:href="#n" y="294.953658"/><use x="351.482716" xlink:href="#m" y="294.953658"/><use x="356.153992" xlink:href="#l" y="294.953658"/><use x="358.949206" xlink:href="#m" y="294.953658"/><use x="363.620482" xlink:href="#o" y="294.953658"/><use x="368.291699" xlink:href="#s" y="294.953658"/><use x="259.098988" xlink:href="#W" y="304.558791"/><use x="264.69884" xlink:href="#s" y="304.558791"/><use x="267.025084" xlink:href="#v" y="304.558791"/><use x="271.69636" xlink:href="#F" y="304.558791"/><use x="276.367576" xlink:href="#m" y="304.558791"/><use x="281.038852" xlink:href="#z" y="304.558791"/><use x="285.241098" xlink:href="#k" y="304.558791"/><use x="287.567341" xlink:href="#C" y="304.558791"/><use x="292.238557" xlink:href="#n" y="304.558791"/><use x="294.5648" xlink:href="#k" y="304.558791"/><use x="296.891043" xlink:href="#Z" y="304.558791"/><use x="302.959926" xlink:href="#m" y="304.558791"/><use x="307.631203" xlink:href="#aa" y="304.558791"/><use x="311.833448" xlink:href="#m" y="304.558791"/><use x="316.504665" xlink:href="#y" y="304.558791"/><use x="318.371302" xlink:href="#C" y="304.558791"/><use x="323.042518" xlink:href="#S" y="304.558791"/><use x="327.713794" xlink:href="#P" y="304.558791"/><use x="334.711254" xlink:href="#m" y="304.558791"/><use x="339.38253" xlink:href="#o" y="304.558791"/><use x="344.053746" xlink:href="#s" y="304.558791"/><use x="346.379989" xlink:href="#k" y="304.558791"/><use x="348.706232" xlink:href="#u" y="304.558791"/><use x="350.57287" xlink:href="#o" y="304.558791"/><use x="355.244086" xlink:href="#q" y="304.558791"/><use x="360.843999" xlink:href="#l" y="304.558791"/><use x="363.639212" xlink:href="#r" y="304.558791"/><use x="367.841458" xlink:href="#s" y="304.558791"/><use x="370.167701" xlink:href="#t" y="304.558791"/><use x="374.838977" xlink:href="#l" y="304.558791"/><use x="377.634191" xlink:href="#u" y="304.558791"/><use x="379.500828" xlink:href="#o" y="304.558791"/><use x="384.172105" xlink:href="#v" y="304.558791"/><use x="259.098988" xlink:href="#v" y="314.163924"/><use x="263.770204" xlink:href="#P" y="314.163924"/><use x="270.767724" xlink:href="#m" y="314.163924"/><use x="275.439" xlink:href="#l" y="314.163924"/><use x="278.234214" xlink:href="#u" y="314.163924"/><use x="280.100851" xlink:href="#p" y="314.163924"/><use x="284.303097" xlink:href="#v" y="314.163924"/><use x="288.974313" xlink:href="#o" y="314.163924"/><use x="293.645589" xlink:href="#v" y="314.163924"/><use x="298.316805" xlink:href="#W" y="314.163924"/><use x="303.916658" xlink:href="#m" y="314.163924"/><use x="308.587934" xlink:href="#m" y="314.163924"/><use x="313.25921" xlink:href="#w" y="314.163924"/><use x="317.930426" xlink:href="#z" y="314.163924"/><use x="322.132672" xlink:href="#ab" y="314.163924"/></g><g clip-path="url(#i)"><path d="m-.839844-5.808594h126.667969v2535.757813h-126.667969zm0 0" fill="#eaecf0"/></g><g fill="#0645ad"><use x="5.76361" xlink:href="#n" y="9.801278"/><use x="8.089854" xlink:href="#C" y="9.801278"/><use x="12.76107" xlink:href="#x" y="9.801278"/><use x="17.432346" xlink:href="#o" y="9.801278"/><use x="22.103622" xlink:href="#w" y="9.801278"/><use x="26.774838" xlink:href="#k" y="9.801278"/><use x="29.101082" xlink:href="#u" y="9.801278"/><use x="30.967719" xlink:href="#o" y="9.801278"/><use x="35.638935" xlink:href="#k" y="9.801278"/><use x="37.965178" xlink:href="#s" y="9.801278"/><use x="40.291421" xlink:href="#v" y="9.801278"/><use x="44.962698" xlink:href="#R" y="9.801278"/><use x="49.164943" xlink:href="#C" y="9.801278"/><use x="53.836159" xlink:href="#o" y="9.801278"/></g></svg>