<svg xmlns="http://www.w3.org/2000/svg" xmlns:xlink="http://www.w3.org/1999/xlink" viewBox="0 0 544.843 317.788"><defs><path id="reuse-0" fill="#fff" d="M0 0h544.843v317.788H0z"/></defs><defs><symbol id="b" overflow="visible"><path d="M.781-4.156v-.578c.54-.051.914-.133 1.125-.25.207-.125.364-.414.469-.875h.578V0h-.781v-4.156zm0 0"/></symbol><symbol id="d" overflow="visible"><path d="M.547-4.39h.703v.75c.05-.145.191-.32.422-.532.226-.207.488-.316.781-.328.008 0 .031.008.063.016.03 0 .086.007.171.015v.782c-.054-.008-.093-.016-.124-.016a.516.516 0 00-.126-.016c-.374 0-.664.121-.859.36a1.26 1.26 0 00-.297.828V0H.547zm0 0"/></symbol><symbol id="e" overflow="visible"><path d="M2.375-4.5c.313.012.613.086.906.219.29.148.516.34.672.578.145.219.242.476.297.765.04.211.063.532.063.97h-3.22c.009.46.114.82.313 1.077.188.274.489.407.907.407.382 0 .695-.125.937-.375.125-.157.21-.329.266-.516h.734a1.743 1.743 0 01-.188.531c-.117.211-.242.371-.375.485a1.769 1.769 0 01-.828.453c-.18.039-.382.062-.609.062A1.856 1.856 0 01.86-.438C.483-.832.296-1.39.296-2.109c0-.707.191-1.282.578-1.72.375-.437.875-.66 1.5-.671zm1.172 1.953c-.031-.32-.102-.578-.203-.765-.211-.352-.547-.532-1.016-.532a1.14 1.14 0 00-.86.36c-.23.25-.35.562-.359.937zm0 0"/></symbol><symbol id="f" overflow="visible"><path d="M.719-5.063c.02-.3.078-.523.172-.671.164-.25.5-.375 1-.375h.14c.051 0 .11.007.172.015v.672c-.086-.008-.14-.016-.172-.016h-.094c-.23 0-.367.06-.406.172-.043.125-.062.422-.062.891h.734v.578h-.75V0H.72v-3.797h-.61v-.578h.61zm0 0"/></symbol><symbol id="g" overflow="visible"><path d="M.531-4.39h.703v.624c.196-.257.414-.445.657-.562.226-.102.488-.16.78-.172.614 0 1.032.219 1.25.656.126.242.188.586.188 1.031V0h-.75v-2.766c0-.27-.043-.488-.125-.656-.125-.27-.359-.406-.703-.406-.18 0-.324.015-.437.047a1.07 1.07 0 00-.531.36 1.122 1.122 0 00-.235.452c-.043.156-.062.383-.062.672V0H.53zm0 0"/></symbol><symbol id="h" overflow="visible"><path d="M2.219-4.516c.5 0 .906.121 1.219.36.3.242.484.652.546 1.234h-.718a1.31 1.31 0 00-.297-.672c-.156-.176-.406-.265-.75-.265-.469 0-.805.23-1 .687-.137.305-.203.672-.203 1.11 0 .437.093.808.28 1.109.177.305.47.453.876.453.3 0 .547-.094.734-.281.176-.188.297-.446.36-.781h.718C3.91-.97 3.707-.54 3.375-.282c-.336.274-.758.407-1.266.407C1.535.125 1.08-.082.734-.5.391-.926.22-1.453.22-2.078c0-.77.187-1.367.562-1.797.375-.426.852-.64 1.438-.64zm0 0"/></symbol><symbol id="i" overflow="visible"><path d="M.719-6.031h4.39v.734H1.516v1.844h3.328v.687H1.516v2.047h3.656V0H.719zm0 0"/></symbol><symbol id="j" overflow="visible"><path d="M3.281-4.39h.828c-.117.28-.351.921-.703 1.921a41.435 41.435 0 01-.672 1.844c-.43 1.125-.73 1.813-.906 2.063-.18.238-.476.359-.89.359h-.25a9.794 9.794 0 01-.204-.047v-.672c.125.031.22.05.282.063.05.007.101.015.156.015a.514.514 0 00.297-.078.594.594 0 00.156-.156c.008-.024.063-.137.156-.344L1.72.125.094-4.391h.828L2.109-.812zm0 0"/></symbol><symbol id="k" overflow="visible"><path d="M.688-5.625h.75v1.234h.703v.594h-.704v2.875c0 .156.051.262.157.313.05.023.144.03.281.03.04.013.082.013.125 0h.14V0c-.093.02-.183.035-.265.047-.094.02-.195.023-.297.015C1.234.063 1-.023.875-.203.75-.367.687-.593.687-.875v-2.922H.095v-.594h.594zm0 0"/></symbol><symbol id="l" overflow="visible"><path d="M.531-6.047h.735v2.25c.175-.226.332-.383.468-.469.239-.156.536-.234.891-.234.633 0 1.066.227 1.297.672.125.242.187.578.187 1.015V0h-.765v-2.766c0-.32-.04-.562-.11-.718-.148-.239-.402-.36-.765-.36-.305 0-.578.106-.828.313-.25.219-.375.62-.375 1.203V0H.53zm0 0"/></symbol><symbol id="m" overflow="visible"><path d="M.531-4.375h.75V0h-.75zm0-1.656h.75v.843h-.75zm0 0"/></symbol><symbol id="n" overflow="visible"><path d="M1.094-1.172c0 .219.078.387.234.5a.845.845 0 00.547.188c.258 0 .516-.055.766-.172.406-.196.609-.524.609-.985v-.593c-.094.062-.21.109-.344.14-.148.043-.289.07-.422.078l-.453.063c-.261.043-.46.101-.594.172-.23.125-.343.328-.343.61zm1.781-1.484c.164-.02.281-.094.344-.219a.653.653 0 00.047-.281c0-.25-.09-.43-.266-.547-.18-.113-.434-.172-.766-.172-.386 0-.664.105-.828.313-.086.117-.14.289-.172.515H.547c.008-.539.187-.922.531-1.14.332-.208.723-.313 1.172-.313.508 0 .93.102 1.266.297.312.2.468.508.468.922V-.75c0 .074.02.133.063.172.02.055.082.078.187.078a.408.408 0 00.11-.016.67.67 0 00.14-.015v.547c-.117.03-.203.05-.265.062a2.018 2.018 0 01-.25.016c-.25 0-.434-.09-.547-.266a1.064 1.064 0 01-.14-.406c-.15.2-.36.371-.641.515a2.17 2.17 0 01-.938.204c-.406.007-.742-.11-1-.36a1.272 1.272 0 01-.375-.937c0-.407.125-.723.375-.953.25-.22.582-.352 1-.407zm0 0"/></symbol><symbol id="o" overflow="visible"><path d="M1.016-2.14c-.012.468.086.859.296 1.171.196.324.516.485.954.485.343 0 .625-.149.843-.454.22-.28.329-.703.329-1.265 0-.55-.11-.961-.329-1.235a1.093 1.093 0 00-.843-.39c-.375 0-.68.14-.907.422-.242.293-.355.715-.343 1.265zM2.125-4.47c.332 0 .613.07.844.203.125.086.273.23.453.438v-2.219h.703V0h-.672v-.61c-.168.274-.371.465-.61.579-.23.125-.495.187-.796.187-.5 0-.93-.207-1.281-.625C.41-.875.234-1.422.234-2.109c0-.633.16-1.188.485-1.657.32-.468.789-.703 1.406-.703zm0 0"/></symbol><symbol id="p" overflow="visible"><path d="M1.281-4.39v2.906c0 .23.035.418.11.562.125.262.367.39.734.39.508 0 .86-.226 1.047-.687.101-.25.156-.586.156-1.015v-2.157h.735V0h-.704l.016-.656c-.094.18-.215.324-.36.437a1.594 1.594 0 01-1.03.344C1.358.125.93-.085.702-.515c-.117-.22-.172-.516-.172-.891v-2.985zm0 0"/></symbol><symbol id="q" overflow="visible"><path d="M.547-6.031h.734V0H.547zm0 0"/></symbol><symbol id="r" overflow="visible"><path d="M.969-1.375c.02.242.082.43.187.563.176.242.5.359.969.359.27 0 .508-.063.719-.188a.58.58 0 00.312-.546.496.496 0 00-.25-.438c-.105-.05-.32-.117-.64-.203l-.579-.14c-.375-.095-.652-.196-.828-.313-.324-.196-.484-.473-.484-.828 0-.414.148-.754.453-1.016.3-.258.703-.39 1.203-.39.664 0 1.145.199 1.438.593.176.25.265.516.265.797h-.703a.942.942 0 00-.172-.469c-.168-.187-.46-.281-.875-.281-.28 0-.496.055-.64.156a.49.49 0 00-.219.422c0 .2.094.352.281.453.114.074.274.137.485.188l.5.125c.52.125.875.25 1.062.375.29.187.438.484.438.89 0 .387-.153.72-.454 1-.304.29-.757.438-1.359.438C1.422.172.957.02.688-.281.413-.571.27-.937.25-1.375zm0 0"/></symbol><symbol id="B" overflow="visible"><path d="M3.734-2.469L2.813-5.14l-.97 2.672zM2.391-6.03h.921L5.5 0h-.89L4-1.813H1.61L.952 0H.125zm0 0"/></symbol><symbol id="C" overflow="visible"><path d="M.531-6.031h.703v3.5l1.891-1.86h.953L2.391-2.75 4.17 0H3.22l-1.36-2.219-.625.563V0H.531zm0 0"/></symbol><symbol id="D" overflow="visible"><path d="M2.281-.469c.489 0 .828-.187 1.016-.562.176-.364.265-.774.265-1.235 0-.406-.062-.738-.187-1-.219-.406-.578-.609-1.078-.609-.45 0-.777.172-.985.516-.21.343-.312.761-.312 1.25 0 .468.102.859.313 1.171.195.313.519.47.968.47zm.031-4.047c.57 0 1.051.188 1.438.563.383.375.582.93.594 1.656 0 .719-.172 1.309-.516 1.766-.355.469-.89.695-1.61.687-.605 0-1.085-.203-1.437-.61C.414-.858.234-1.41.234-2.108c0-.727.188-1.313.563-1.75.375-.438.879-.657 1.515-.657zm0 0"/></symbol><symbol id="E" overflow="visible"><path d="M.344-2.719h2.062v.75H.344zm0 0"/></symbol><symbol id="F" overflow="visible"><path d="M2.906-3.484c.344 0 .61-.047.797-.141.3-.145.453-.414.453-.813 0-.394-.156-.66-.468-.796-.188-.07-.461-.11-.813-.11H1.422v1.86zm.281 2.78c.5.013.852-.132 1.063-.437a1.06 1.06 0 00.203-.656c0-.437-.2-.734-.594-.89-.21-.083-.48-.126-.812-.126H1.422v2.11zM.626-6.03h2.578c.707 0 1.211.215 1.516.64.176.25.265.54.265.86 0 .375-.109.687-.328.937a1.658 1.658 0 01-.484.344c.3.125.531.262.687.406.27.262.407.621.407 1.078 0 .399-.121.75-.36 1.063C4.54-.234 3.961 0 3.172 0H.625zm0 0"/></symbol><symbol id="G" overflow="visible"><path d="M2.078-4.469c.344 0 .645.086.906.25.133.094.274.235.422.422v-.562h.688v4c0 .562-.086 1.004-.25 1.328-.313.594-.89.89-1.735.89-.48 0-.882-.105-1.203-.312-.324-.211-.5-.543-.531-1h.75c.031.195.098.348.203.453.164.164.43.25.797.25.563 0 .93-.2 1.11-.594.1-.242.148-.66.14-1.265-.148.23-.324.398-.531.5-.211.113-.485.164-.828.156a1.72 1.72 0 01-1.25-.5C.41-.785.234-1.343.234-2.125c0-.738.18-1.316.547-1.734.352-.407.785-.61 1.297-.61zm1.328 2.25c0-.539-.11-.941-.328-1.203a1.086 1.086 0 00-.86-.406c-.53 0-.89.246-1.077.734-.106.262-.153.606-.141 1.031 0 .493.098.868.297 1.126.195.261.469.39.812.39.532 0 .907-.238 1.125-.719.114-.27.172-.586.172-.953zm0 0"/></symbol><symbol id="H" overflow="visible"><path d="M.719-6.031h2.719c.53 0 .96.152 1.296.453.32.305.485.73.485 1.281 0 .469-.149.875-.438 1.219-.293.355-.742.531-1.343.531H1.53V0H.72zM4.39-4.297c0-.437-.164-.738-.485-.906-.187-.082-.437-.125-.75-.125H1.531v2.094h1.625c.364 0 .664-.079.906-.235.22-.156.329-.43.329-.828zm0 0"/></symbol><symbol id="I" overflow="visible"><path d="M5.031-6.031v.718H3V0h-.828v-5.313H.14v-.718zm0 0"/></symbol><symbol id="J" overflow="visible"><path d="M3.188-6.188c.757 0 1.347.2 1.765.594.426.407.66.867.703 1.375H4.86a1.768 1.768 0 00-.53-.922c-.274-.226-.653-.343-1.141-.343-.594 0-1.075.21-1.438.625-.367.418-.547 1.058-.547 1.921 0 .711.164 1.282.5 1.72.32.437.813.655 1.469.655.601 0 1.062-.226 1.375-.687.164-.25.289-.57.375-.969h.797c-.074.637-.309 1.168-.703 1.594-.48.523-1.125.781-1.938.781-.71 0-1.297-.21-1.765-.64C.675-1.047.363-1.91.375-3.078c-.012-.883.223-1.613.703-2.188.508-.613 1.211-.921 2.11-.921zm0 0"/></symbol><symbol id="K" overflow="visible"><path d="M.719-.89h.86V0h-.86zm0 0"/></symbol><symbol id="L" overflow="visible"><path d="M1.11-1.422c.019.406.18.688.484.844a.96.96 0 00.5.125c.351 0 .656-.145.906-.438.25-.289.426-.89.531-1.796-.168.261-.37.445-.61.546-.241.106-.5.157-.78.157-.575 0-1.024-.176-1.344-.532-.336-.343-.5-.796-.5-1.359 0-.531.16-1 .484-1.406.32-.407.805-.61 1.453-.61.852 0 1.442.387 1.766 1.157.176.43.266.96.266 1.593 0 .73-.106 1.371-.313 1.922-.367.93-.976 1.39-1.828 1.39C1.551.172 1.113.02.812-.28.508-.582.363-.961.376-1.421zm1.124-1.203c.29 0 .563-.098.813-.297.238-.187.36-.52.36-1 0-.437-.11-.758-.329-.969a1.225 1.225 0 00-.828-.328c-.367 0-.652.121-.86.36-.218.25-.327.578-.327.984 0 .387.093.688.28.906.188.23.485.344.891.344zm0 0"/></symbol><symbol id="M" overflow="visible"><path d="M1.016-1.5c.05.43.25.719.593.875.176.086.38.125.61.125.437 0 .758-.14.969-.422.207-.27.312-.578.312-.922 0-.406-.125-.722-.375-.953a1.285 1.285 0 00-.89-.344c-.262 0-.481.055-.657.157-.187.093-.344.23-.469.406L.47-2.61l.453-3.172h3.047v.718h-2.5l-.25 1.625c.133-.093.265-.171.39-.234a2.17 2.17 0 01.766-.125c.531 0 .984.172 1.36.516.374.355.562.797.562 1.328 0 .555-.168 1.043-.5 1.469C3.44-.066 2.89.14 2.14.14 1.66.14 1.238.004.875-.266.508-.523.301-.937.25-1.5zm0 0"/></symbol><symbol id="N" overflow="visible"><path d="M4.375-5.781v.64c-.188.188-.438.512-.75.97-.313.448-.59.937-.828 1.468a10.12 10.12 0 00-.547 1.39c-.074.274-.172.711-.297 1.313h-.828c.188-1.113.598-2.227 1.234-3.344A9.927 9.927 0 013.547-5.03H.297v-.75zm0 0"/></symbol><symbol id="O" overflow="visible"><path d="M2.438-5.906c.656 0 1.113.172 1.374.515.258.344.391.696.391 1.047H3.47a1.443 1.443 0 00-.203-.547c-.18-.238-.45-.359-.813-.359-.418 0-.746.188-.984.563-.242.386-.375.933-.407 1.64.165-.25.38-.43.641-.547.227-.113.492-.172.797-.172.488 0 .914.157 1.281.47.364.323.547.792.547 1.405 0 .543-.172 1.016-.516 1.422-.355.418-.851.625-1.484.625-.555 0-1.027-.207-1.422-.625C.5-.883.296-1.586.296-2.579c0-.726.087-1.347.267-1.858.343-.97.968-1.458 1.875-1.47zM2.39-.5c.382 0 .675-.133.875-.406.187-.25.28-.555.28-.922a1.7 1.7 0 00-.25-.86c-.179-.269-.491-.406-.937-.406-.324 0-.605.106-.843.313-.243.219-.36.539-.36.953 0 .375.11.687.328.937.22.262.52.391.907.391zm0 0"/></symbol><symbol id="P" overflow="visible"><path d="M2.281-3.422c.32.012.578-.078.766-.265a.9.9 0 00.281-.657c0-.207-.09-.406-.265-.593-.18-.188-.446-.282-.797-.282-.368 0-.625.094-.782.282a.975.975 0 00-.234.64c0 .274.102.484.313.64.207.157.445.235.718.235zM2.328-.5c.344 0 .629-.094.86-.281.218-.188.328-.461.328-.828 0-.375-.118-.66-.344-.86a1.376 1.376 0 00-.89-.297c-.356 0-.641.102-.86.297-.23.2-.344.477-.344.828 0 .313.102.579.313.797.195.23.507.344.937.344zM1.281-3.125a1.526 1.526 0 01-.484-.313C.578-3.655.469-3.94.469-4.296c0-.437.16-.812.484-1.125.313-.312.758-.469 1.344-.469.562 0 1.004.149 1.328.438.32.305.484.652.484 1.047 0 .367-.093.664-.28.89-.106.125-.267.25-.485.375.238.118.43.246.578.391.258.273.39.625.39 1.063 0 .523-.18.96-.53 1.312-.345.367-.837.547-1.47.547C1.739.172 1.254.016.86-.297.461-.609.266-1.063.266-1.657c0-.343.086-.64.265-.89.164-.25.414-.441.75-.578zm0 0"/></symbol><symbol id="R" overflow="visible"><path d="M.531-4.39h.719v.624c.176-.218.336-.379.484-.484a1.43 1.43 0 01.829-.25c.343 0 .624.09.843.266.114.093.223.242.328.437a1.65 1.65 0 01.579-.531 1.96 1.96 0 01.75-.172c.593 0 .992.215 1.203.64.113.231.171.544.171.938V0h-.765v-3.047c0-.289-.074-.492-.219-.61a.849.849 0 00-.531-.171c-.293.012-.543.11-.75.297-.211.199-.313.523-.313.969V0h-.75v-2.875c-.011-.29-.046-.504-.109-.64-.117-.208-.324-.313-.625-.313-.281 0-.54.11-.766.328-.23.219-.343.61-.343 1.172V0H.53zm0 0"/></symbol><symbol id="T" overflow="visible"><path d="M2.188.156c-.7 0-1.204-.191-1.516-.578-.313-.375-.469-.836-.469-1.39H.97c.031.386.101.664.219.828.187.312.53.468 1.03.468.395 0 .708-.101.938-.312a1.01 1.01 0 00.36-.797c0-.406-.125-.691-.375-.86-.25-.156-.594-.234-1.032-.234H1.812v-.64c.07 0 .133.007.188.015h.172c.27 0 .492-.047.672-.14.312-.145.469-.414.469-.813 0-.289-.106-.516-.313-.672a1.14 1.14 0 00-.719-.25c-.492 0-.836.168-1.031.5-.105.188-.164.446-.172.766H.344c0-.426.086-.797.265-1.11.301-.539.832-.816 1.594-.828.594 0 1.055.137 1.39.407.321.273.485.656.485 1.156 0 .367-.094.656-.281.875a1.112 1.112 0 01-.469.328c.3.094.54.262.719.5.176.242.266.54.266.89 0 .563-.188 1.016-.563 1.36-.367.355-.887.531-1.563.531zm0 0"/></symbol><symbol id="V" overflow="visible"><path d="M.11-4.39h.953l1.015 1.546L3.094-4.39 4-4.375 2.516-2.25 4.062 0H3.11L2.031-1.656.97 0H.03l1.547-2.25zm0 0"/></symbol><symbol id="W" overflow="visible"><path d="M2.39-.5c.352 0 .645-.145.876-.438.218-.28.328-.707.328-1.28 0-.352-.047-.657-.14-.907-.2-.488-.556-.734-1.063-.734-.512 0-.86.257-1.047.765-.106.281-.157.633-.157 1.047 0 .344.051.637.157.875.195.45.547.672 1.047.672zM.485-4.375h.72v.578a1.65 1.65 0 01.484-.453c.25-.164.539-.25.875-.25.5 0 .921.188 1.265.563.352.386.531.933.531 1.64 0 .961-.25 1.649-.75 2.063A1.77 1.77 0 012.5.14c-.336 0-.617-.07-.844-.203A1.98 1.98 0 011.22-.5v2.25H.484zm0 0"/></symbol><symbol id="X" overflow="visible"><path d="M.625-6.031h1.172L3.516-.938 5.234-6.03h1.172V0h-.781v-3.563-.609c.008-.281.016-.582.016-.906L3.92 0H3.11L1.375-5.078v.172c0 .156.004.383.016.672 0 .312.004.539.015.671V0H.625zm0 0"/></symbol><symbol id="Z" overflow="visible"><path d="M1.094-6.031l1.734 5.14 1.719-5.14h.906L3.266 0H2.39L.203-6.031zm0 0"/></symbol><symbol id="aa" overflow="visible"><path d="M.813-6.031h.828V0H.812zm0 0"/></symbol><symbol id="ab" overflow="visible"><path d="M1.172-1.953c.02.344.101.625.25.844.258.398.734.593 1.422.593.312 0 .594-.039.844-.125.488-.164.734-.472.734-.921 0-.32-.106-.551-.313-.688-.21-.133-.539-.254-.984-.36l-.813-.187c-.53-.113-.906-.25-1.124-.406C.8-3.453.609-3.828.609-4.328c0-.54.188-.984.563-1.328.375-.352.906-.532 1.594-.532.625 0 1.16.157 1.609.47.438.304.656.788.656 1.452h-.765C4.223-4.586 4.133-4.832 4-5c-.25-.313-.672-.469-1.266-.469-.48 0-.824.102-1.03.297-.212.211-.313.445-.313.703 0 .305.117.524.359.657.156.085.52.195 1.094.328l.844.187c.406.094.722.219.953.375.375.293.566.703.578 1.235 0 .667-.246 1.148-.735 1.437-.492.281-1.054.422-1.687.422-.762 0-1.352-.188-1.766-.563-.43-.382-.636-.906-.625-1.562zm0 0"/></symbol><symbol id="ad" overflow="visible"><path d="M.64-6.031h.97l3.046 4.89v-4.89h.766V0h-.906L1.422-4.875V0H.64zm0 0"/></symbol><symbol id="ae" overflow="visible"><path d="M.703.86c.188-.032.317-.169.39-.407.04-.117.063-.23.063-.344V.047c0-.012-.008-.027-.015-.047H.703v-.89h.875v.828c0 .32-.07.609-.203.859-.125.238-.352.39-.672.453zm0 0"/></symbol><symbol id="af" overflow="visible"><path d="M2.953-.703c.27 0 .5-.024.688-.078.312-.102.57-.313.78-.625.157-.239.27-.547.345-.922.039-.227.062-.442.062-.64 0-.739-.148-1.317-.437-1.735-.305-.414-.782-.625-1.438-.625H1.5v4.625zM.672-6.031h2.453c.82 0 1.46.297 1.922.89.406.532.61 1.211.61 2.032 0 .648-.122 1.226-.36 1.734C4.867-.457 4.14 0 3.109 0H.672zm0 0"/></symbol><symbol id="ag" overflow="visible"><path d="M.89-4.39L2.063-.814l1.22-3.578h.812L2.437 0h-.78L.03-4.39zm0 0"/></symbol><symbol id="ah" overflow="visible"><path d="M.328-3.61v-.656h1.578V-6.03h.797v1.765h1.594v.657H2.703v4.953h-.797V-3.61zm0 0"/></symbol><symbol id="t" overflow="visible"><path d="M.906-1.281c.02.23.078.406.172.531.176.219.477.328.906.328.25 0 .473-.055.672-.172.188-.101.281-.27.281-.5a.449.449 0 00-.234-.406c-.094-.05-.289-.113-.578-.188l-.547-.14c-.355-.082-.61-.18-.766-.297C.508-2.313.36-2.566.36-2.891c0-.382.141-.695.422-.937.281-.238.656-.36 1.125-.36.614 0 1.055.184 1.328.547.164.23.25.477.25.735h-.656a.785.785 0 00-.156-.422c-.156-.176-.434-.266-.828-.266-.25 0-.446.047-.578.14a.473.473 0 00-.204.392c0 .187.086.335.266.437.102.063.254.117.453.156l.453.11c.489.125.817.246.985.359.258.168.39.438.39.813 0 .375-.136.695-.406.953-.281.257-.7.39-1.25.39C1.336.156.906.016.656-.266.406-.536.27-.875.25-1.28zm0 0"/></symbol><symbol id="u" overflow="visible"><path d="M.64-5.219h.688v1.14h.656v.563h-.656v2.657c0 .148.05.242.156.28.04.032.13.048.266.048h.094a.67.67 0 00.14-.016V0a3.1 3.1 0 01-.25.047 2.858 2.858 0 01-.265.015c-.324 0-.543-.082-.657-.25C.696-.344.641-.55.641-.813v-2.703H.094v-.562H.64zm0 0"/></symbol><symbol id="v" overflow="visible"><path d="M1.031-1.078c0 .2.07.355.219.469a.85.85 0 00.516.156c.226 0 .457-.05.687-.156.383-.188.578-.489.578-.907v-.562a.905.905 0 01-.328.14 5.752 5.752 0 01-.39.079l-.407.046c-.25.032-.437.086-.562.157-.211.117-.313.308-.313.578zm1.657-1.39c.156-.02.257-.087.312-.204a.599.599 0 00.047-.265c0-.227-.086-.395-.25-.5-.168-.102-.402-.157-.703-.157-.367 0-.621.094-.766.281-.086.118-.14.278-.172.485h-.64c.007-.508.175-.863.5-1.063a2.055 2.055 0 011.078-.28c.476 0 .867.089 1.172.265.3.187.453.476.453.86v2.343c0 .074.015.133.047.172.02.043.078.062.171.062h.11c.039 0 .082-.004.125-.015v.5a2.55 2.55 0 01-.25.062 1.492 1.492 0 01-.219.016c-.242 0-.414-.086-.515-.25a.885.885 0 01-.126-.39 1.853 1.853 0 01-.593.484 1.972 1.972 0 01-.875.203C1.219.14.91.023.672-.203a1.127 1.127 0 01-.36-.86c0-.382.118-.68.36-.89.226-.195.535-.32.922-.375zm0 0"/></symbol><symbol id="w" overflow="visible"><path d="M2.203-4.172c.29 0 .57.07.844.203.27.137.473.313.61.531.144.211.238.45.28.72.04.187.063.491.063.905H1.016c.007.407.101.735.28.985.188.25.474.375.86.375.352 0 .633-.113.844-.344a1.31 1.31 0 00.266-.484h.671a1.555 1.555 0 01-.171.5 1.79 1.79 0 01-.344.453c-.211.21-.465.344-.766.406-.168.05-.355.07-.562.063-.512 0-.946-.18-1.297-.547C.44-.77.27-1.286.28-1.953c0-.656.176-1.192.531-1.61.352-.406.817-.609 1.391-.609zm1.094 1.813c-.031-.301-.102-.54-.203-.72-.188-.331-.5-.5-.938-.5a1.147 1.147 0 00-.797.345c-.21.23-.32.523-.328.875zm0 0"/></symbol><symbol id="x" overflow="visible"><path d="M.938-1.984c0 .437.093.804.28 1.093.188.293.485.438.891.438.313 0 .57-.133.782-.406.195-.27.296-.66.296-1.172 0-.52-.105-.906-.312-1.156a1 1 0 00-.781-.36c-.344 0-.621.133-.828.39-.22.262-.329.653-.329 1.173zm1.03-2.172c.313 0 .571.07.782.203.125.074.266.21.422.406v-2.062h.656V0h-.625v-.563c-.156.25-.344.434-.562.547a1.762 1.762 0 01-.75.157C1.43.148 1.039-.04.719-.438c-.336-.374-.5-.878-.5-1.515 0-.594.148-1.11.453-1.547.3-.438.734-.656 1.297-.656zm0 0"/></symbol><symbol id="z" overflow="visible"><path d="M.5-4.063h.703V0H.5zm0-1.53h.703v.78H.5zm0 0"/></symbol><symbol id="A" overflow="visible"><path d="M.5-4.078h.656v.578c.188-.238.39-.41.61-.516.218-.101.457-.156.718-.156.582 0 .973.203 1.172.61.114.218.172.539.172.953V0h-.703v-2.563c0-.25-.04-.453-.11-.609-.117-.25-.335-.375-.656-.375a1.43 1.43 0 00-.406.047.964.964 0 00-.484.328 1.088 1.088 0 00-.235.422 3.102 3.102 0 00-.046.61V0H.5zm0 0"/></symbol><clipPath id="a"><path d="M0 73h544.844v1H0zm0 0"/></clipPath><clipPath id="s"><path d="M142.395 34.313h402.449v26.414h-402.45zm0 0"/></clipPath><clipPath id="Q"><path d="M0 152h544.844v2H0zm0 0"/></clipPath><clipPath id="S"><path d="M142.395 113.555h402.449v26.414h-402.45zm0 0"/></clipPath><clipPath id="U"><path d="M142.395 192.797h402.449v26.414h-402.45zm0 0"/></clipPath><clipPath id="Y"><path d="M142.395 223.414h402.449v36.02h-402.45zm0 0"/></clipPath><clipPath id="ac"><path d="M142.395 263.637h402.449v54.152h-402.45zm0 0"/></clipPath><clipPath id="ai"><path d="M0 0h126v317.79H0zm0 0"/></clipPath></defs><path fill="#f6f6f6" d="M0 0h544.843v317.788H0z"/><use xlink:href="#reuse-0"/><use xlink:href="#reuse-0"/><g clip-path="url(#a)"><path fill="#eaecf0" d="M-.484 73.332h546.293v.602H-.484zm0 0"/></g><use x="142.393" y="30.111" fill="#72777d" xlink:href="#b"/><use x="147.064" y="30.111" fill="#72777d" xlink:href="#c"/><use x="149.39" y="30.111" fill="#72777d" xlink:href="#d"/><use x="152.186" y="30.111" fill="#72777d" xlink:href="#e"/><use x="156.857" y="30.111" fill="#72777d" xlink:href="#f"/><use x="159.183" y="30.111" fill="#72777d" xlink:href="#e"/><use x="163.854" y="30.111" fill="#72777d" xlink:href="#d"/><use x="166.65" y="30.111" fill="#72777d" xlink:href="#e"/><use x="171.321" y="30.111" fill="#72777d" xlink:href="#g"/><use x="175.992" y="30.111" fill="#72777d" xlink:href="#h"/><use x="180.194" y="30.111" fill="#72777d" xlink:href="#e"/><use x="141.192" y="9.7" fill="#0645ad" xlink:href="#i"/><use x="146.792" y="9.7" fill="#0645ad" xlink:href="#d"/><use x="149.587" y="9.7" fill="#0645ad" xlink:href="#j"/><use x="153.79" y="9.7" fill="#0645ad" xlink:href="#k"/><use x="156.116" y="9.7" fill="#0645ad" xlink:href="#l"/><use x="160.787" y="9.7" fill="#0645ad" xlink:href="#d"/><use x="163.582" y="9.7" fill="#0645ad" xlink:href="#m"/><use x="165.449" y="9.7" fill="#0645ad" xlink:href="#g"/><use x="170.12" y="9.7" fill="#0645ad" xlink:href="#n"/><use x="174.792" y="9.7" fill="#0645ad" xlink:href="#c"/><use x="177.118" y="9.7" fill="#0645ad" xlink:href="#e"/><use x="181.789" y="9.7" fill="#0645ad" xlink:href="#o"/><use x="186.46" y="9.7" fill="#0645ad" xlink:href="#p"/><use x="191.131" y="9.7" fill="#0645ad" xlink:href="#q"/><use x="192.998" y="9.7" fill="#0645ad" xlink:href="#m"/><use x="194.865" y="9.7" fill="#0645ad" xlink:href="#r"/><g clip-path="url(#s)"><path fill="#f8f9fa" d="M142.395 34.313h403.414v26.414H142.395zm0 0"/></g><use x="148.396" y="45.719" fill="#0645ad" xlink:href="#t"/><use x="152.298" y="45.719" fill="#0645ad" xlink:href="#u"/><use x="154.465" y="45.719" fill="#0645ad" xlink:href="#v"/><use x="158.799" y="45.719" fill="#0645ad" xlink:href="#u"/><use x="160.965" y="45.719" fill="#0645ad" xlink:href="#w"/><use x="165.299" y="45.719" fill="#0645ad" xlink:href="#x"/><use x="169.633" y="45.719" fill="#0645ad" xlink:href="#y"/><use x="171.799" y="45.719" fill="#0645ad" xlink:href="#z"/><use x="173.525" y="45.719" fill="#0645ad" xlink:href="#A"/><use x="258.855" y="46.319" fill="#0645ad" xlink:href="#B"/><use x="264.455" y="46.319" fill="#0645ad" xlink:href="#q"/><use x="266.322" y="46.319" fill="#0645ad" xlink:href="#C"/><use x="270.524" y="46.319" fill="#0645ad" xlink:href="#n"/><use x="275.195" y="46.319" fill="#0645ad" xlink:href="#q"/><use x="277.062" y="46.319" fill="#0645ad" xlink:href="#D"/><use x="281.733" y="46.319" fill="#0645ad" xlink:href="#m"/><use x="283.6" y="46.319" fill="#0645ad" xlink:href="#o"/><use x="288.271" y="46.319" fill="#0645ad" xlink:href="#E"/><use x="291.066" y="46.319" fill="#0645ad" xlink:href="#F"/><use x="296.666" y="46.319" fill="#0645ad" xlink:href="#e"/><use x="301.337" y="46.319" fill="#0645ad" xlink:href="#n"/><use x="306.009" y="46.319" fill="#0645ad" xlink:href="#d"/><use x="308.804" y="46.319" fill="#0645ad" xlink:href="#m"/><use x="310.67" y="46.319" fill="#0645ad" xlink:href="#g"/><use x="315.342" y="46.319" fill="#0645ad" xlink:href="#G"/><use x="320.013" y="46.319" fill="#0645ad" xlink:href="#c"/><use x="322.339" y="46.319" fill="#0645ad" xlink:href="#H"/><use x="327.939" y="46.319" fill="#0645ad" xlink:href="#q"/><use x="329.806" y="46.319" fill="#0645ad" xlink:href="#n"/><use x="334.477" y="46.319" fill="#0645ad" xlink:href="#g"/><use x="339.148" y="46.319" fill="#0645ad" xlink:href="#k"/><use x="341.474" y="46.319" fill="#0645ad" xlink:href="#r"/><use x="345.677" y="46.319" fill="#0645ad" xlink:href="#c"/><use x="348.003" y="46.319" fill="#0645ad" xlink:href="#n"/><use x="352.674" y="46.319" fill="#0645ad" xlink:href="#g"/><use x="357.345" y="46.319" fill="#0645ad" xlink:href="#o"/><use x="362.017" y="46.319" fill="#0645ad" xlink:href="#c"/><use x="364.343" y="46.319" fill="#0645ad" xlink:href="#I"/><use x="369.474" y="46.319" fill="#0645ad" xlink:href="#l"/><use x="374.145" y="46.319" fill="#0645ad" xlink:href="#e"/><use x="378.816" y="46.319" fill="#0645ad" xlink:href="#m"/><use x="380.683" y="46.319" fill="#0645ad" xlink:href="#d"/><use x="258.855" y="55.924" fill="#0645ad" xlink:href="#J"/><use x="264.924" y="55.924" fill="#0645ad" xlink:href="#D"/><use x="269.595" y="55.924" fill="#0645ad" xlink:href="#g"/><use x="274.267" y="55.924" fill="#0645ad" xlink:href="#k"/><use x="276.593" y="55.924" fill="#0645ad" xlink:href="#n"/><use x="281.264" y="55.924" fill="#0645ad" xlink:href="#m"/><use x="283.131" y="55.924" fill="#0645ad" xlink:href="#g"/><use x="287.802" y="55.924" fill="#0645ad" xlink:href="#e"/><use x="292.473" y="55.924" fill="#0645ad" xlink:href="#o"/><use x="297.144" y="55.924" fill="#0645ad" xlink:href="#c"/><use x="299.471" y="55.924" fill="#0645ad" xlink:href="#B"/><use x="305.071" y="55.924" fill="#0645ad" xlink:href="#q"/><use x="306.937" y="55.924" fill="#0645ad" xlink:href="#C"/><use x="311.139" y="55.924" fill="#0645ad" xlink:href="#n"/><use x="315.811" y="55.924" fill="#0645ad" xlink:href="#q"/><use x="317.677" y="55.924" fill="#0645ad" xlink:href="#D"/><use x="322.348" y="55.924" fill="#0645ad" xlink:href="#m"/><use x="324.215" y="55.924" fill="#0645ad" xlink:href="#o"/><use x="328.886" y="55.924" fill="#0645ad" xlink:href="#r"/><use x="333.089" y="55.924" fill="#0645ad" xlink:href="#K"/><use x="335.415" y="55.924" fill="#0645ad" xlink:href="#c"/><use x="337.741" y="55.924" fill="#0645ad" xlink:href="#b"/><use x="342.412" y="55.924" fill="#0645ad" xlink:href="#L"/><use x="347.084" y="55.924" fill="#0645ad" xlink:href="#M"/><use x="351.755" y="55.924" fill="#0645ad" xlink:href="#N"/><use x="356.426" y="55.924" fill="#0645ad" xlink:href="#E"/><use x="359.221" y="55.924" fill="#0645ad" xlink:href="#b"/><use x="363.893" y="55.924" fill="#0645ad" xlink:href="#L"/><use x="368.564" y="55.924" fill="#0645ad" xlink:href="#O"/><use x="373.235" y="55.924" fill="#0645ad" xlink:href="#P"/><g clip-path="url(#Q)"><path fill="#eaecf0" d="M-.484 152.574h546.293v.602H-.484zm0 0"/></g><use x="142.393" y="109.353" fill="#72777d" xlink:href="#b"/><use x="147.064" y="109.353" fill="#72777d" xlink:href="#c"/><use x="149.39" y="109.353" fill="#72777d" xlink:href="#d"/><use x="152.186" y="109.353" fill="#72777d" xlink:href="#e"/><use x="156.857" y="109.353" fill="#72777d" xlink:href="#f"/><use x="159.183" y="109.353" fill="#72777d" xlink:href="#e"/><use x="163.854" y="109.353" fill="#72777d" xlink:href="#d"/><use x="166.65" y="109.353" fill="#72777d" xlink:href="#e"/><use x="171.321" y="109.353" fill="#72777d" xlink:href="#g"/><use x="175.992" y="109.353" fill="#72777d" xlink:href="#h"/><use x="180.194" y="109.353" fill="#72777d" xlink:href="#e"/><use x="141.192" y="88.942" fill="#0645ad" xlink:href="#i"/><use x="146.792" y="88.942" fill="#0645ad" xlink:href="#d"/><use x="149.587" y="88.942" fill="#0645ad" xlink:href="#j"/><use x="153.79" y="88.942" fill="#0645ad" xlink:href="#k"/><use x="156.116" y="88.942" fill="#0645ad" xlink:href="#l"/><use x="160.787" y="88.942" fill="#0645ad" xlink:href="#d"/><use x="163.582" y="88.942" fill="#0645ad" xlink:href="#m"/><use x="165.449" y="88.942" fill="#0645ad" xlink:href="#g"/><use x="170.12" y="88.942" fill="#0645ad" xlink:href="#n"/><use x="174.792" y="88.942" fill="#0645ad" xlink:href="#c"/><use x="177.118" y="88.942" fill="#0645ad" xlink:href="#r"/><use x="181.32" y="88.942" fill="#0645ad" xlink:href="#R"/><use x="188.317" y="88.942" fill="#0645ad" xlink:href="#m"/><use x="190.184" y="88.942" fill="#0645ad" xlink:href="#k"/><use x="192.51" y="88.942" fill="#0645ad" xlink:href="#l"/><use x="197.182" y="88.942" fill="#0645ad" xlink:href="#m"/><use x="199.048" y="88.942" fill="#0645ad" xlink:href="#n"/><use x="203.719" y="88.942" fill="#0645ad" xlink:href="#g"/><use x="208.391" y="88.942" fill="#0645ad" xlink:href="#n"/><g clip-path="url(#S)"><path fill="#f8f9fa" d="M142.395 113.555h403.414v26.414H142.395zm0 0"/></g><use x="148.396" y="124.961" fill="#0645ad" xlink:href="#t"/><use x="152.298" y="124.961" fill="#0645ad" xlink:href="#u"/><use x="154.465" y="124.961" fill="#0645ad" xlink:href="#v"/><use x="158.799" y="124.961" fill="#0645ad" xlink:href="#u"/><use x="160.965" y="124.961" fill="#0645ad" xlink:href="#w"/><use x="165.299" y="124.961" fill="#0645ad" xlink:href="#x"/><use x="169.633" y="124.961" fill="#0645ad" xlink:href="#y"/><use x="171.799" y="124.961" fill="#0645ad" xlink:href="#z"/><use x="173.525" y="124.961" fill="#0645ad" xlink:href="#A"/><use x="258.855" y="125.562" fill="#0645ad" xlink:href="#B"/><use x="264.455" y="125.562" fill="#0645ad" xlink:href="#q"/><use x="266.322" y="125.562" fill="#0645ad" xlink:href="#C"/><use x="270.524" y="125.562" fill="#0645ad" xlink:href="#n"/><use x="275.195" y="125.562" fill="#0645ad" xlink:href="#q"/><use x="277.062" y="125.562" fill="#0645ad" xlink:href="#D"/><use x="281.733" y="125.562" fill="#0645ad" xlink:href="#m"/><use x="283.6" y="125.562" fill="#0645ad" xlink:href="#o"/><use x="288.271" y="125.562" fill="#0645ad" xlink:href="#E"/><use x="291.066" y="125.562" fill="#0645ad" xlink:href="#F"/><use x="296.666" y="125.562" fill="#0645ad" xlink:href="#e"/><use x="301.337" y="125.562" fill="#0645ad" xlink:href="#n"/><use x="306.009" y="125.562" fill="#0645ad" xlink:href="#d"/><use x="308.804" y="125.562" fill="#0645ad" xlink:href="#m"/><use x="310.67" y="125.562" fill="#0645ad" xlink:href="#g"/><use x="315.342" y="125.562" fill="#0645ad" xlink:href="#G"/><use x="320.013" y="125.562" fill="#0645ad" xlink:href="#c"/><use x="322.339" y="125.562" fill="#0645ad" xlink:href="#H"/><use x="327.939" y="125.562" fill="#0645ad" xlink:href="#q"/><use x="329.806" y="125.562" fill="#0645ad" xlink:href="#n"/><use x="334.477" y="125.562" fill="#0645ad" xlink:href="#g"/><use x="339.148" y="125.562" fill="#0645ad" xlink:href="#k"/><use x="341.474" y="125.562" fill="#0645ad" xlink:href="#r"/><use x="345.677" y="125.562" fill="#0645ad" xlink:href="#c"/><use x="348.003" y="125.562" fill="#0645ad" xlink:href="#n"/><use x="352.674" y="125.562" fill="#0645ad" xlink:href="#g"/><use x="357.345" y="125.562" fill="#0645ad" xlink:href="#o"/><use x="362.017" y="125.562" fill="#0645ad" xlink:href="#c"/><use x="364.343" y="125.562" fill="#0645ad" xlink:href="#I"/><use x="369.474" y="125.562" fill="#0645ad" xlink:href="#l"/><use x="374.145" y="125.562" fill="#0645ad" xlink:href="#e"/><use x="378.816" y="125.562" fill="#0645ad" xlink:href="#m"/><use x="380.683" y="125.562" fill="#0645ad" xlink:href="#d"/><use x="258.855" y="135.167" fill="#0645ad" xlink:href="#J"/><use x="264.924" y="135.167" fill="#0645ad" xlink:href="#D"/><use x="269.595" y="135.167" fill="#0645ad" xlink:href="#g"/><use x="274.267" y="135.167" fill="#0645ad" xlink:href="#k"/><use x="276.593" y="135.167" fill="#0645ad" xlink:href="#n"/><use x="281.264" y="135.167" fill="#0645ad" xlink:href="#m"/><use x="283.131" y="135.167" fill="#0645ad" xlink:href="#g"/><use x="287.802" y="135.167" fill="#0645ad" xlink:href="#e"/><use x="292.473" y="135.167" fill="#0645ad" xlink:href="#o"/><use x="297.144" y="135.167" fill="#0645ad" xlink:href="#c"/><use x="299.471" y="135.167" fill="#0645ad" xlink:href="#B"/><use x="305.071" y="135.167" fill="#0645ad" xlink:href="#q"/><use x="306.937" y="135.167" fill="#0645ad" xlink:href="#C"/><use x="311.139" y="135.167" fill="#0645ad" xlink:href="#n"/><use x="315.811" y="135.167" fill="#0645ad" xlink:href="#q"/><use x="317.677" y="135.167" fill="#0645ad" xlink:href="#D"/><use x="322.348" y="135.167" fill="#0645ad" xlink:href="#m"/><use x="324.215" y="135.167" fill="#0645ad" xlink:href="#o"/><use x="328.886" y="135.167" fill="#0645ad" xlink:href="#r"/><use x="333.089" y="135.167" fill="#0645ad" xlink:href="#K"/><use x="335.415" y="135.167" fill="#0645ad" xlink:href="#c"/><use x="337.741" y="135.167" fill="#0645ad" xlink:href="#b"/><use x="342.412" y="135.167" fill="#0645ad" xlink:href="#L"/><use x="347.084" y="135.167" fill="#0645ad" xlink:href="#M"/><use x="351.755" y="135.167" fill="#0645ad" xlink:href="#N"/><use x="356.426" y="135.167" fill="#0645ad" xlink:href="#E"/><use x="359.221" y="135.167" fill="#0645ad" xlink:href="#b"/><use x="363.893" y="135.167" fill="#0645ad" xlink:href="#L"/><use x="368.564" y="135.167" fill="#0645ad" xlink:href="#O"/><use x="373.235" y="135.167" fill="#0645ad" xlink:href="#P"/><use x="142.393" y="188.595" fill="#72777d" xlink:href="#T"/><use x="147.064" y="188.595" fill="#72777d" xlink:href="#c"/><use x="149.39" y="188.595" fill="#72777d" xlink:href="#d"/><use x="152.186" y="188.595" fill="#72777d" xlink:href="#e"/><use x="156.857" y="188.595" fill="#72777d" xlink:href="#f"/><use x="159.183" y="188.595" fill="#72777d" xlink:href="#e"/><use x="163.854" y="188.595" fill="#72777d" xlink:href="#d"/><use x="166.65" y="188.595" fill="#72777d" xlink:href="#e"/><use x="171.321" y="188.595" fill="#72777d" xlink:href="#g"/><use x="175.992" y="188.595" fill="#72777d" xlink:href="#h"/><use x="180.194" y="188.595" fill="#72777d" xlink:href="#e"/><use x="184.866" y="188.595" fill="#72777d" xlink:href="#r"/><use x="141.192" y="168.184" fill="#0645ad" xlink:href="#i"/><use x="146.792" y="168.184" fill="#0645ad" xlink:href="#d"/><use x="149.587" y="168.184" fill="#0645ad" xlink:href="#j"/><use x="153.79" y="168.184" fill="#0645ad" xlink:href="#k"/><use x="156.116" y="168.184" fill="#0645ad" xlink:href="#l"/><use x="160.787" y="168.184" fill="#0645ad" xlink:href="#d"/><use x="163.582" y="168.184" fill="#0645ad" xlink:href="#m"/><use x="165.449" y="168.184" fill="#0645ad" xlink:href="#g"/><use x="170.12" y="168.184" fill="#0645ad" xlink:href="#n"/><use x="174.792" y="168.184" fill="#0645ad" xlink:href="#c"/><use x="177.118" y="168.184" fill="#0645ad" xlink:href="#n"/><use x="181.789" y="168.184" fill="#0645ad" xlink:href="#R"/><use x="188.786" y="168.184" fill="#0645ad" xlink:href="#e"/><use x="193.458" y="168.184" fill="#0645ad" xlink:href="#d"/><use x="196.253" y="168.184" fill="#0645ad" xlink:href="#m"/><use x="198.12" y="168.184" fill="#0645ad" xlink:href="#h"/><use x="202.322" y="168.184" fill="#0645ad" xlink:href="#n"/><use x="206.993" y="168.184" fill="#0645ad" xlink:href="#g"/><use x="211.664" y="168.184" fill="#0645ad" xlink:href="#n"/><g clip-path="url(#U)"><path fill="#f8f9fa" d="M142.395 192.797h403.414v26.414H142.395zm0 0"/></g><use x="148.396" y="204.204" fill="#0645ad" xlink:href="#t"/><use x="152.298" y="204.204" fill="#0645ad" xlink:href="#u"/><use x="154.465" y="204.204" fill="#0645ad" xlink:href="#v"/><use x="158.799" y="204.204" fill="#0645ad" xlink:href="#u"/><use x="160.965" y="204.204" fill="#0645ad" xlink:href="#w"/><use x="165.299" y="204.204" fill="#0645ad" xlink:href="#x"/><use x="169.633" y="204.204" fill="#0645ad" xlink:href="#y"/><use x="171.799" y="204.204" fill="#0645ad" xlink:href="#z"/><use x="173.525" y="204.204" fill="#0645ad" xlink:href="#A"/><use x="258.855" y="204.804" fill="#0645ad" xlink:href="#B"/><use x="264.455" y="204.804" fill="#0645ad" xlink:href="#q"/><use x="266.322" y="204.804" fill="#0645ad" xlink:href="#C"/><use x="270.524" y="204.804" fill="#0645ad" xlink:href="#n"/><use x="275.195" y="204.804" fill="#0645ad" xlink:href="#q"/><use x="277.062" y="204.804" fill="#0645ad" xlink:href="#D"/><use x="281.733" y="204.804" fill="#0645ad" xlink:href="#m"/><use x="283.6" y="204.804" fill="#0645ad" xlink:href="#o"/><use x="288.271" y="204.804" fill="#0645ad" xlink:href="#r"/><use x="292.473" y="204.804" fill="#0645ad" xlink:href="#c"/><use x="294.799" y="204.804" fill="#0645ad" xlink:href="#f"/><use x="297.126" y="204.804" fill="#0645ad" xlink:href="#d"/><use x="299.921" y="204.804" fill="#0645ad" xlink:href="#D"/><use x="304.592" y="204.804" fill="#0645ad" xlink:href="#R"/><use x="311.59" y="204.804" fill="#0645ad" xlink:href="#c"/><use x="313.916" y="204.804" fill="#0645ad" xlink:href="#r"/><use x="318.118" y="204.804" fill="#0645ad" xlink:href="#m"/><use x="319.985" y="204.804" fill="#0645ad" xlink:href="#V"/><use x="324.187" y="204.804" fill="#0645ad" xlink:href="#c"/><use x="326.513" y="204.804" fill="#0645ad" xlink:href="#i"/><use x="332.113" y="204.804" fill="#0645ad" xlink:href="#d"/><use x="334.908" y="204.804" fill="#0645ad" xlink:href="#j"/><use x="339.111" y="204.804" fill="#0645ad" xlink:href="#k"/><use x="341.437" y="204.804" fill="#0645ad" xlink:href="#l"/><use x="346.108" y="204.804" fill="#0645ad" xlink:href="#d"/><use x="348.903" y="204.804" fill="#0645ad" xlink:href="#m"/><use x="350.77" y="204.804" fill="#0645ad" xlink:href="#g"/><use x="355.441" y="204.804" fill="#0645ad" xlink:href="#n"/><use x="360.112" y="204.804" fill="#0645ad" xlink:href="#c"/><use x="362.439" y="204.804" fill="#0645ad" xlink:href="#r"/><use x="366.641" y="204.804" fill="#0645ad" xlink:href="#W"/><use x="371.312" y="204.804" fill="#0645ad" xlink:href="#e"/><use x="375.983" y="204.804" fill="#0645ad" xlink:href="#h"/><use x="380.186" y="204.804" fill="#0645ad" xlink:href="#m"/><use x="382.052" y="204.804" fill="#0645ad" xlink:href="#e"/><use x="386.724" y="204.804" fill="#0645ad" xlink:href="#r"/><use x="258.855" y="214.409" fill="#0645ad" xlink:href="#e"/><use x="263.526" y="214.409" fill="#0645ad" xlink:href="#g"/><use x="268.198" y="214.409" fill="#0645ad" xlink:href="#o"/><use x="272.869" y="214.409" fill="#0645ad" xlink:href="#e"/><use x="277.54" y="214.409" fill="#0645ad" xlink:href="#R"/><use x="284.538" y="214.409" fill="#0645ad" xlink:href="#m"/><use x="286.404" y="214.409" fill="#0645ad" xlink:href="#h"/><use x="290.607" y="214.409" fill="#0645ad" xlink:href="#c"/><use x="292.933" y="214.409" fill="#0645ad" xlink:href="#k"/><use x="295.259" y="214.409" fill="#0645ad" xlink:href="#D"/><use x="299.93" y="214.409" fill="#0645ad" xlink:href="#c"/><use x="302.257" y="214.409" fill="#0645ad" xlink:href="#X"/><use x="309.254" y="214.409" fill="#0645ad" xlink:href="#e"/><use x="313.925" y="214.409" fill="#0645ad" xlink:href="#V"/><use x="318.128" y="214.409" fill="#0645ad" xlink:href="#m"/><use x="319.994" y="214.409" fill="#0645ad" xlink:href="#h"/><use x="324.196" y="214.409" fill="#0645ad" xlink:href="#D"/><g clip-path="url(#Y)"><path fill="#f8f9fa" d="M142.395 223.414h403.414v36.02H142.395zm0 0"/></g><use x="148.396" y="234.82" fill="#0645ad" xlink:href="#t"/><use x="152.298" y="234.82" fill="#0645ad" xlink:href="#u"/><use x="154.465" y="234.82" fill="#0645ad" xlink:href="#v"/><use x="158.799" y="234.82" fill="#0645ad" xlink:href="#u"/><use x="160.965" y="234.82" fill="#0645ad" xlink:href="#w"/><use x="165.299" y="234.82" fill="#0645ad" xlink:href="#x"/><use x="169.633" y="234.82" fill="#0645ad" xlink:href="#y"/><use x="171.799" y="234.82" fill="#0645ad" xlink:href="#z"/><use x="173.525" y="234.82" fill="#0645ad" xlink:href="#A"/><use x="258.855" y="235.42" fill="#0645ad" xlink:href="#i"/><use x="264.455" y="235.42" fill="#0645ad" xlink:href="#d"/><use x="267.25" y="235.42" fill="#0645ad" xlink:href="#j"/><use x="271.453" y="235.42" fill="#0645ad" xlink:href="#k"/><use x="273.779" y="235.42" fill="#0645ad" xlink:href="#l"/><use x="278.45" y="235.42" fill="#0645ad" xlink:href="#d"/><use x="281.245" y="235.42" fill="#0645ad" xlink:href="#m"/><use x="283.112" y="235.42" fill="#0645ad" xlink:href="#g"/><use x="287.783" y="235.42" fill="#0645ad" xlink:href="#n"/><use x="292.454" y="235.42" fill="#0645ad" xlink:href="#c"/><use x="294.781" y="235.42" fill="#0645ad" xlink:href="#B"/><use x="300.381" y="235.42" fill="#0645ad" xlink:href="#q"/><use x="302.247" y="235.42" fill="#0645ad" xlink:href="#C"/><use x="306.449" y="235.42" fill="#0645ad" xlink:href="#n"/><use x="311.121" y="235.42" fill="#0645ad" xlink:href="#q"/><use x="312.987" y="235.42" fill="#0645ad" xlink:href="#D"/><use x="317.658" y="235.42" fill="#0645ad" xlink:href="#m"/><use x="319.525" y="235.42" fill="#0645ad" xlink:href="#o"/><use x="324.196" y="235.42" fill="#0645ad" xlink:href="#r"/><use x="328.399" y="235.42" fill="#0645ad" xlink:href="#K"/><use x="330.725" y="235.42" fill="#0645ad" xlink:href="#c"/><use x="333.051" y="235.42" fill="#0645ad" xlink:href="#Z"/><use x="338.651" y="235.42" fill="#0645ad" xlink:href="#aa"/><use x="340.977" y="235.42" fill="#0645ad" xlink:href="#aa"/><use x="343.303" y="235.42" fill="#0645ad" xlink:href="#aa"/><use x="345.63" y="235.42" fill="#0645ad" xlink:href="#K"/><use x="347.956" y="235.42" fill="#0645ad" xlink:href="#c"/><use x="350.282" y="235.42" fill="#0645ad" xlink:href="#ab"/><use x="355.882" y="235.42" fill="#0645ad" xlink:href="#k"/><use x="358.208" y="235.42" fill="#0645ad" xlink:href="#p"/><use x="362.879" y="235.42" fill="#0645ad" xlink:href="#o"/><use x="367.551" y="235.42" fill="#0645ad" xlink:href="#m"/><use x="369.417" y="235.42" fill="#0645ad" xlink:href="#e"/><use x="374.089" y="235.42" fill="#0645ad" xlink:href="#r"/><use x="378.291" y="235.42" fill="#0645ad" xlink:href="#c"/><use x="380.617" y="235.42" fill="#0645ad" xlink:href="#D"/><use x="385.288" y="235.42" fill="#0645ad" xlink:href="#g"/><use x="258.855" y="245.026" fill="#0645ad" xlink:href="#k"/><use x="261.181" y="245.026" fill="#0645ad" xlink:href="#l"/><use x="265.853" y="245.026" fill="#0645ad" xlink:href="#e"/><use x="270.524" y="245.026" fill="#0645ad" xlink:href="#c"/><use x="272.85" y="245.026" fill="#0645ad" xlink:href="#J"/><use x="278.919" y="245.026" fill="#0645ad" xlink:href="#D"/><use x="283.59" y="245.026" fill="#0645ad" xlink:href="#g"/><use x="288.262" y="245.026" fill="#0645ad" xlink:href="#r"/><use x="292.464" y="245.026" fill="#0645ad" xlink:href="#k"/><use x="294.79" y="245.026" fill="#0645ad" xlink:href="#m"/><use x="296.657" y="245.026" fill="#0645ad" xlink:href="#k"/><use x="298.983" y="245.026" fill="#0645ad" xlink:href="#p"/><use x="303.654" y="245.026" fill="#0645ad" xlink:href="#k"/><use x="305.98" y="245.026" fill="#0645ad" xlink:href="#m"/><use x="307.847" y="245.026" fill="#0645ad" xlink:href="#D"/><use x="312.518" y="245.026" fill="#0645ad" xlink:href="#g"/><use x="317.19" y="245.026" fill="#0645ad" xlink:href="#c"/><use x="319.516" y="245.026" fill="#0645ad" xlink:href="#D"/><use x="324.187" y="245.026" fill="#0645ad" xlink:href="#f"/><use x="326.513" y="245.026" fill="#0645ad" xlink:href="#c"/><use x="328.839" y="245.026" fill="#0645ad" xlink:href="#i"/><use x="334.439" y="245.026" fill="#0645ad" xlink:href="#d"/><use x="337.235" y="245.026" fill="#0645ad" xlink:href="#j"/><use x="341.437" y="245.026" fill="#0645ad" xlink:href="#k"/><use x="343.763" y="245.026" fill="#0645ad" xlink:href="#l"/><use x="348.434" y="245.026" fill="#0645ad" xlink:href="#d"/><use x="351.23" y="245.026" fill="#0645ad" xlink:href="#n"/><use x="355.901" y="245.026" fill="#0645ad" xlink:href="#R"/><use x="362.898" y="245.026" fill="#0645ad" xlink:href="#m"/><use x="364.765" y="245.026" fill="#0645ad" xlink:href="#g"/><use x="369.436" y="245.026" fill="#0645ad" xlink:href="#e"/><use x="374.107" y="245.026" fill="#0645ad" xlink:href="#c"/><use x="376.434" y="245.026" fill="#0645ad" xlink:href="#n"/><use x="381.105" y="245.026" fill="#0645ad" xlink:href="#g"/><use x="385.776" y="245.026" fill="#0645ad" xlink:href="#o"/><use x="258.855" y="254.631" fill="#0645ad" xlink:href="#i"/><use x="264.455" y="254.631" fill="#0645ad" xlink:href="#d"/><use x="267.25" y="254.631" fill="#0645ad" xlink:href="#j"/><use x="271.453" y="254.631" fill="#0645ad" xlink:href="#k"/><use x="273.779" y="254.631" fill="#0645ad" xlink:href="#l"/><use x="278.45" y="254.631" fill="#0645ad" xlink:href="#d"/><use x="281.245" y="254.631" fill="#0645ad" xlink:href="#n"/><use x="285.917" y="254.631" fill="#0645ad" xlink:href="#q"/><use x="287.783" y="254.631" fill="#0645ad" xlink:href="#m"/><use x="289.65" y="254.631" fill="#0645ad" xlink:href="#g"/><use x="294.321" y="254.631" fill="#0645ad" xlink:href="#e"/><g clip-path="url(#ac)"><path fill="#f8f9fa" d="M142.395 263.637h403.414v55.226H142.395zm0 0"/></g><use x="148.396" y="275.042" fill="#0645ad" xlink:href="#t"/><use x="152.298" y="275.042" fill="#0645ad" xlink:href="#u"/><use x="154.465" y="275.042" fill="#0645ad" xlink:href="#v"/><use x="158.799" y="275.042" fill="#0645ad" xlink:href="#u"/><use x="160.965" y="275.042" fill="#0645ad" xlink:href="#w"/><use x="165.299" y="275.042" fill="#0645ad" xlink:href="#x"/><use x="169.633" y="275.042" fill="#0645ad" xlink:href="#y"/><use x="171.799" y="275.042" fill="#0645ad" xlink:href="#z"/><use x="173.525" y="275.042" fill="#0645ad" xlink:href="#A"/><use x="258.855" y="275.642" fill="#0645ad" xlink:href="#Z"/><use x="264.455" y="275.642" fill="#0645ad" xlink:href="#n"/><use x="269.126" y="275.642" fill="#0645ad" xlink:href="#d"/><use x="271.922" y="275.642" fill="#0645ad" xlink:href="#m"/><use x="273.788" y="275.642" fill="#0645ad" xlink:href="#n"/><use x="278.459" y="275.642" fill="#0645ad" xlink:href="#k"/><use x="280.786" y="275.642" fill="#0645ad" xlink:href="#m"/><use x="282.652" y="275.642" fill="#0645ad" xlink:href="#D"/><use x="287.324" y="275.642" fill="#0645ad" xlink:href="#g"/><use x="291.995" y="275.642" fill="#0645ad" xlink:href="#c"/><use x="294.321" y="275.642" fill="#0645ad" xlink:href="#D"/><use x="298.992" y="275.642" fill="#0645ad" xlink:href="#f"/><use x="301.319" y="275.642" fill="#0645ad" xlink:href="#c"/><use x="303.645" y="275.642" fill="#0645ad" xlink:href="#I"/><use x="308.776" y="275.642" fill="#0645ad" xlink:href="#D"/><use x="313.447" y="275.642" fill="#0645ad" xlink:href="#k"/><use x="315.773" y="275.642" fill="#0645ad" xlink:href="#n"/><use x="320.444" y="275.642" fill="#0645ad" xlink:href="#q"/><use x="322.311" y="275.642" fill="#0645ad" xlink:href="#c"/><use x="324.637" y="275.642" fill="#0645ad" xlink:href="#ad"/><use x="330.706" y="275.642" fill="#0645ad" xlink:href="#m"/><use x="332.573" y="275.642" fill="#0645ad" xlink:href="#k"/><use x="334.899" y="275.642" fill="#0645ad" xlink:href="#d"/><use x="337.694" y="275.642" fill="#0645ad" xlink:href="#D"/><use x="342.365" y="275.642" fill="#0645ad" xlink:href="#G"/><use x="347.037" y="275.642" fill="#0645ad" xlink:href="#e"/><use x="351.708" y="275.642" fill="#0645ad" xlink:href="#g"/><use x="356.379" y="275.642" fill="#0645ad" xlink:href="#ae"/><use x="358.705" y="275.642" fill="#0645ad" xlink:href="#c"/><use x="361.032" y="275.642" fill="#0645ad" xlink:href="#ad"/><use x="367.101" y="275.642" fill="#0645ad" xlink:href="#D"/><use x="371.772" y="275.642" fill="#0645ad" xlink:href="#g"/><use x="376.443" y="275.642" fill="#0645ad" xlink:href="#E"/><use x="258.855" y="285.247" fill="#0645ad" xlink:href="#W"/><use x="263.526" y="285.247" fill="#0645ad" xlink:href="#d"/><use x="266.322" y="285.247" fill="#0645ad" xlink:href="#D"/><use x="270.993" y="285.247" fill="#0645ad" xlink:href="#k"/><use x="273.319" y="285.247" fill="#0645ad" xlink:href="#e"/><use x="277.99" y="285.247" fill="#0645ad" xlink:href="#m"/><use x="279.857" y="285.247" fill="#0645ad" xlink:href="#g"/><use x="284.528" y="285.247" fill="#0645ad" xlink:href="#c"/><use x="286.855" y="285.247" fill="#0645ad" xlink:href="#ad"/><use x="292.923" y="285.247" fill="#0645ad" xlink:href="#m"/><use x="294.79" y="285.247" fill="#0645ad" xlink:href="#k"/><use x="297.116" y="285.247" fill="#0645ad" xlink:href="#d"/><use x="299.911" y="285.247" fill="#0645ad" xlink:href="#D"/><use x="304.583" y="285.247" fill="#0645ad" xlink:href="#G"/><use x="309.254" y="285.247" fill="#0645ad" xlink:href="#e"/><use x="313.925" y="285.247" fill="#0645ad" xlink:href="#g"/><use x="318.596" y="285.247" fill="#0645ad" xlink:href="#c"/><use x="320.923" y="285.247" fill="#0645ad" xlink:href="#J"/><use x="326.992" y="285.247" fill="#0645ad" xlink:href="#D"/><use x="331.663" y="285.247" fill="#0645ad" xlink:href="#g"/><use x="336.334" y="285.247" fill="#0645ad" xlink:href="#k"/><use x="338.66" y="285.247" fill="#0645ad" xlink:href="#e"/><use x="343.332" y="285.247" fill="#0645ad" xlink:href="#g"/><use x="348.003" y="285.247" fill="#0645ad" xlink:href="#k"/><use x="350.329" y="285.247" fill="#0645ad" xlink:href="#ae"/><use x="352.655" y="285.247" fill="#0645ad" xlink:href="#c"/><use x="354.982" y="285.247" fill="#0645ad" xlink:href="#n"/><use x="359.653" y="285.247" fill="#0645ad" xlink:href="#g"/><use x="364.324" y="285.247" fill="#0645ad" xlink:href="#o"/><use x="258.855" y="294.852" fill="#0645ad" xlink:href="#I"/><use x="263.986" y="294.852" fill="#0645ad" xlink:href="#j"/><use x="268.188" y="294.852" fill="#0645ad" xlink:href="#W"/><use x="272.86" y="294.852" fill="#0645ad" xlink:href="#e"/><use x="277.531" y="294.852" fill="#0645ad" xlink:href="#r"/><use x="281.733" y="294.852" fill="#0645ad" xlink:href="#c"/><use x="284.059" y="294.852" fill="#0645ad" xlink:href="#D"/><use x="288.731" y="294.852" fill="#0645ad" xlink:href="#f"/><use x="291.057" y="294.852" fill="#0645ad" xlink:href="#c"/><use x="293.383" y="294.852" fill="#0645ad" xlink:href="#B"/><use x="298.983" y="294.852" fill="#0645ad" xlink:href="#q"/><use x="300.849" y="294.852" fill="#0645ad" xlink:href="#C"/><use x="305.052" y="294.852" fill="#0645ad" xlink:href="#n"/><use x="309.723" y="294.852" fill="#0645ad" xlink:href="#q"/><use x="311.59" y="294.852" fill="#0645ad" xlink:href="#D"/><use x="316.261" y="294.852" fill="#0645ad" xlink:href="#m"/><use x="318.128" y="294.852" fill="#0645ad" xlink:href="#o"/><use x="322.799" y="294.852" fill="#0645ad" xlink:href="#r"/><use x="329.327" y="294.852" fill="#0645ad" xlink:href="#n"/><use x="333.998" y="294.852" fill="#0645ad" xlink:href="#k"/><use x="336.325" y="294.852" fill="#0645ad" xlink:href="#c"/><use x="338.651" y="294.852" fill="#0645ad" xlink:href="#af"/><use x="344.72" y="294.852" fill="#0645ad" xlink:href="#m"/><use x="346.586" y="294.852" fill="#0645ad" xlink:href="#f"/><use x="348.913" y="294.852" fill="#0645ad" xlink:href="#f"/><use x="351.239" y="294.852" fill="#0645ad" xlink:href="#e"/><use x="355.91" y="294.852" fill="#0645ad" xlink:href="#d"/><use x="358.705" y="294.852" fill="#0645ad" xlink:href="#e"/><use x="363.377" y="294.852" fill="#0645ad" xlink:href="#g"/><use x="368.048" y="294.852" fill="#0645ad" xlink:href="#k"/><use x="258.855" y="304.457" fill="#0645ad" xlink:href="#ab"/><use x="264.455" y="304.457" fill="#0645ad" xlink:href="#k"/><use x="266.781" y="304.457" fill="#0645ad" xlink:href="#n"/><use x="271.453" y="304.457" fill="#0645ad" xlink:href="#G"/><use x="276.124" y="304.457" fill="#0645ad" xlink:href="#e"/><use x="280.795" y="304.457" fill="#0645ad" xlink:href="#r"/><use x="284.997" y="304.457" fill="#0645ad" xlink:href="#c"/><use x="287.324" y="304.457" fill="#0645ad" xlink:href="#D"/><use x="291.995" y="304.457" fill="#0645ad" xlink:href="#f"/><use x="294.321" y="304.457" fill="#0645ad" xlink:href="#c"/><use x="296.647" y="304.457" fill="#0645ad" xlink:href="#af"/><use x="302.716" y="304.457" fill="#0645ad" xlink:href="#e"/><use x="307.387" y="304.457" fill="#0645ad" xlink:href="#ag"/><use x="311.59" y="304.457" fill="#0645ad" xlink:href="#e"/><use x="316.261" y="304.457" fill="#0645ad" xlink:href="#q"/><use x="318.128" y="304.457" fill="#0645ad" xlink:href="#D"/><use x="322.799" y="304.457" fill="#0645ad" xlink:href="#W"/><use x="327.47" y="304.457" fill="#0645ad" xlink:href="#R"/><use x="334.467" y="304.457" fill="#0645ad" xlink:href="#e"/><use x="339.139" y="304.457" fill="#0645ad" xlink:href="#g"/><use x="343.81" y="304.457" fill="#0645ad" xlink:href="#k"/><use x="346.136" y="304.457" fill="#0645ad" xlink:href="#c"/><use x="348.462" y="304.457" fill="#0645ad" xlink:href="#m"/><use x="350.329" y="304.457" fill="#0645ad" xlink:href="#g"/><use x="355" y="304.457" fill="#0645ad" xlink:href="#i"/><use x="360.6" y="304.457" fill="#0645ad" xlink:href="#d"/><use x="363.395" y="304.457" fill="#0645ad" xlink:href="#j"/><use x="367.598" y="304.457" fill="#0645ad" xlink:href="#k"/><use x="369.924" y="304.457" fill="#0645ad" xlink:href="#l"/><use x="374.595" y="304.457" fill="#0645ad" xlink:href="#d"/><use x="377.39" y="304.457" fill="#0645ad" xlink:href="#m"/><use x="379.257" y="304.457" fill="#0645ad" xlink:href="#g"/><use x="383.928" y="304.457" fill="#0645ad" xlink:href="#n"/><use x="258.855" y="314.062" fill="#0645ad" xlink:href="#n"/><use x="263.526" y="314.062" fill="#0645ad" xlink:href="#R"/><use x="270.524" y="314.062" fill="#0645ad" xlink:href="#e"/><use x="275.195" y="314.062" fill="#0645ad" xlink:href="#d"/><use x="277.99" y="314.062" fill="#0645ad" xlink:href="#m"/><use x="279.857" y="314.062" fill="#0645ad" xlink:href="#h"/><use x="284.059" y="314.062" fill="#0645ad" xlink:href="#n"/><use x="288.731" y="314.062" fill="#0645ad" xlink:href="#g"/><use x="293.402" y="314.062" fill="#0645ad" xlink:href="#n"/><use x="298.073" y="314.062" fill="#0645ad" xlink:href="#ab"/><use x="303.673" y="314.062" fill="#0645ad" xlink:href="#e"/><use x="308.344" y="314.062" fill="#0645ad" xlink:href="#e"/><use x="313.015" y="314.062" fill="#0645ad" xlink:href="#o"/><use x="317.687" y="314.062" fill="#0645ad" xlink:href="#r"/><use x="321.889" y="314.062" fill="#0645ad" xlink:href="#ah"/><g clip-path="url(#ai)"><path fill="#eaecf0" d="M-1.082-5.91h126.668v2535.758H-1.082zm0 0"/></g><use x="5.52" y="9.7" fill="#0645ad" xlink:href="#f"/><use x="7.846" y="9.7" fill="#0645ad" xlink:href="#D"/><use x="12.517" y="9.7" fill="#0645ad" xlink:href="#p"/><use x="17.189" y="9.7" fill="#0645ad" xlink:href="#g"/><use x="21.86" y="9.7" fill="#0645ad" xlink:href="#o"/><use x="26.531" y="9.7" fill="#0645ad" xlink:href="#c"/><use x="28.857" y="9.7" fill="#0645ad" xlink:href="#m"/><use x="30.724" y="9.7" fill="#0645ad" xlink:href="#g"/><use x="35.395" y="9.7" fill="#0645ad" xlink:href="#c"/><use x="37.721" y="9.7" fill="#0645ad" xlink:href="#k"/><use x="40.048" y="9.7" fill="#0645ad" xlink:href="#n"/><use x="44.719" y="9.7" fill="#0645ad" xlink:href="#V"/><use x="48.921" y="9.7" fill="#0645ad" xlink:href="#D"/><use x="53.592" y="9.7" fill="#0645ad" xlink:href="#g"/></svg>