<svg xmlns="http://www.w3.org/2000/svg" xmlns:xlink="http://www.w3.org/1999/xlink" viewBox="0 0 1920 1080">
  <defs/>
  <symbol id="a" overflow="visible">
    <path d="M8.297-19.531v-10.907h9.125c.988 0 1.922.06 2.797.172.883.118 1.66.368 2.328.75a4.131 4.131 0 011.594 1.641c.382.7.578 1.652.578 2.86 0 1.835-.57 3.21-1.703 4.124-1.137.907-3 1.36-5.594 1.36zM3.75-34.266V0h16.547c1.695 0 3.191-.281 4.484-.844 1.301-.562 2.39-1.297 3.266-2.203a9.185 9.185 0 002-3.14c.445-1.188.672-2.407.672-3.657 0-2.113-.563-3.906-1.688-5.375-1.117-1.469-2.73-2.426-4.843-2.875v-.093c1.632-.645 2.89-1.63 3.765-2.954.883-1.332 1.328-2.91 1.328-4.734 0-1.727-.398-3.18-1.187-4.36-.782-1.187-1.73-2.117-2.844-2.796-.512-.313-1.133-.547-1.86-.703a17.441 17.441 0 00-2.328-.36 29.513 29.513 0 00-2.515-.14c-.844-.02-1.637-.032-2.375-.032zM8.297-3.844v-11.86h10.422c.957 0 1.883.09 2.781.267.895.18 1.688.484 2.375.921a4.82 4.82 0 011.656 1.75c.414.743.625 1.668.625 2.782 0 1.918-.57 3.421-1.703 4.515-1.137 1.086-2.71 1.625-4.719 1.625zm0 0"/>
  </symbol>
  <symbol id="b" overflow="visible">
    <path d="M7.39-29.281v-4.985H3.314v4.985zm-4.077 4.468V0H7.39v-24.813zm0 0"/>
  </symbol>
  <symbol id="c" overflow="visible">
    <path d="M6.047-12.39c0-1.5.195-2.833.594-4 .406-1.165.957-2.15 1.656-2.954a7.155 7.155 0 012.469-1.828 7.446 7.446 0 013.015-.625c1.051 0 2.047.211 2.985.625a7.012 7.012 0 012.468 1.828c.707.805 1.258 1.79 1.657 2.953.406 1.168.609 2.5.609 4 0 1.512-.203 2.852-.61 4.016-.398 1.168-.949 2.148-1.656 2.938a7.119 7.119 0 01-2.468 1.796 7.43 7.43 0 01-2.985.61 7.565 7.565 0 01-3.015-.61 7.266 7.266 0 01-2.47-1.796c-.698-.79-1.25-1.77-1.655-2.938-.399-1.164-.594-2.504-.594-4.016zm-4.313 0c0 1.835.254 3.538.766 5.109.508 1.562 1.273 2.93 2.297 4.093C5.828-2.02 7.094-1.108 8.594-.453S11.82.53 13.78.53c1.977 0 3.711-.328 5.203-.984 1.489-.656 2.743-1.567 3.766-2.735 1.02-1.164 1.785-2.53 2.297-4.093.52-1.57.781-3.274.781-5.11 0-1.82-.262-3.523-.781-5.109-.512-1.582-1.277-2.957-2.297-4.125-1.023-1.164-2.277-2.082-3.766-2.75-1.492-.676-3.226-1.016-5.203-1.016-1.96 0-3.687.34-5.187 1.016-1.5.668-2.766 1.586-3.797 2.75-1.024 1.168-1.79 2.543-2.297 4.125-.512 1.586-.766 3.29-.766 5.11zm0 0"/>
  </symbol>
  <symbol id="d" overflow="visible">
    <path d="M3.313-34.266V0H7.39v-34.266zm0 0"/>
  </symbol>
  <symbol id="e" overflow="visible">
    <path d="M24.484-2.11v-22.703h-3.843v3.547h-.047c-.742-1.375-1.766-2.406-3.078-3.093s-2.75-1.032-4.313-1.032c-2.148 0-3.96.414-5.437 1.235-1.47.812-2.653 1.851-3.547 3.11a12.271 12.271 0 00-1.922 4.218 19.358 19.358 0 00-.563 4.547c0 1.687.227 3.293.688 4.812.469 1.524 1.164 2.852 2.094 3.985.925 1.136 2.078 2.043 3.453 2.718 1.375.668 2.988 1 4.843 1 1.602 0 3.114-.359 4.532-1.078 1.426-.719 2.492-1.844 3.203-3.375h.094v1.625c0 1.375-.137 2.633-.407 3.781-.273 1.157-.714 2.141-1.328 2.954a6.304 6.304 0 01-2.297 1.921c-.93.47-2.062.704-3.406.704-.68 0-1.387-.075-2.125-.22a7.417 7.417 0 01-2.031-.687 5.304 5.304 0 01-1.594-1.25c-.43-.511-.656-1.136-.687-1.875H2.687c.063 1.344.41 2.477 1.047 3.407a7.707 7.707 0 002.422 2.25c.977.582 2.067 1 3.266 1.25 1.207.257 2.383.39 3.531.39 3.969 0 6.879-1.011 8.735-3.031 1.863-2.012 2.796-5.047 2.796-9.11zM13.062-3.312c-1.343 0-2.464-.273-3.359-.828a6.557 6.557 0 01-2.172-2.218 9.689 9.689 0 01-1.156-3.047 17.545 17.545 0 01-.328-3.36c0-1.187.133-2.32.406-3.406.27-1.094.703-2.05 1.297-2.875a6.6 6.6 0 012.281-2c.926-.5 2.047-.75 3.36-.75 1.28 0 2.367.262 3.265.781.895.512 1.625 1.188 2.188 2.032s.968 1.797 1.218 2.859c.258 1.055.391 2.125.391 3.219 0 1.148-.14 2.297-.422 3.453-.273 1.148-.695 2.18-1.265 3.094a6.67 6.67 0 01-2.282 2.218c-.937.555-2.078.829-3.422.829zm0 0"/>
  </symbol>
  <symbol id="f" overflow="visible">
    <path d="M19.922-16.844h4.219c-.157-1.476-.543-2.75-1.157-3.812a8.595 8.595 0 00-2.328-2.672c-.937-.707-2.027-1.227-3.265-1.563-1.23-.332-2.547-.5-3.953-.5-1.95 0-3.665.344-5.141 1.032-1.469.687-2.695 1.632-3.672 2.828-.969 1.199-1.695 2.61-2.172 4.234-.48 1.617-.719 3.352-.719 5.203 0 1.856.243 3.559.735 5.11.5 1.554 1.234 2.89 2.203 4.015.976 1.117 2.195 1.98 3.656 2.594 1.457.602 3.129.906 5.016.906 3.164 0 5.664-.832 7.5-2.5 1.843-1.664 2.988-4.035 3.437-7.11H20.11c-.25 1.93-.949 3.419-2.093 4.47-1.137 1.054-2.711 1.578-4.72 1.578-1.28 0-2.386-.254-3.312-.766A6.49 6.49 0 017.72-5.828c-.574-.852-.996-1.82-1.266-2.906a13.78 13.78 0 01-.406-3.36c0-1.25.125-2.457.375-3.625.258-1.164.687-2.195 1.281-3.094a6.593 6.593 0 012.375-2.156c.988-.55 2.223-.828 3.703-.828 1.727 0 3.102.434 4.125 1.297 1.02.867 1.692 2.086 2.016 3.656zm0 0"/>
  </symbol>
  <symbol id="g" overflow="visible">
    <path d="M25.063-.094c-.711.414-1.688.625-2.938.625-1.055 0-1.89-.297-2.516-.89s-.937-1.563-.937-2.907C17.547-1.922 16.238-.953 14.75-.359c-1.48.593-3.086.89-4.813.89-1.124 0-2.195-.133-3.203-.39-1-.25-1.87-.645-2.609-1.188-.73-.55-1.313-1.266-1.75-2.14-.43-.883-.64-1.954-.64-3.204 0-1.406.238-2.554.718-3.453a6.186 6.186 0 011.89-2.172c.782-.562 1.677-.988 2.688-1.28 1.008-.29 2.04-.532 3.094-.72a34.591 34.591 0 013.188-.5c1.007-.113 1.898-.273 2.671-.484.77-.207 1.38-.508 1.829-.906.445-.406.671-.989.671-1.75 0-.907-.172-1.63-.515-2.172a3.384 3.384 0 00-1.297-1.235 5.109 5.109 0 00-1.766-.578 12.776 12.776 0 00-1.953-.156c-1.719 0-3.156.328-4.312.985s-1.782 1.898-1.875 3.718H2.687c.063-1.531.38-2.82.954-3.875a7.329 7.329 0 012.312-2.578c.957-.656 2.05-1.125 3.281-1.406a17.428 17.428 0 013.97-.438c1.112 0 2.222.086 3.327.25a8.591 8.591 0 013 .985 5.701 5.701 0 012.157 2.078c.55.898.828 2.062.828 3.5v12.765c0 .961.05 1.665.156 2.11.113.45.492.672 1.14.672.352 0 .77-.078 1.25-.235zm-6.625-12.719c-.524.387-1.2.668-2.032.844a34.08 34.08 0 01-2.61.422c-.905.117-1.827.246-2.765.39-.93.15-1.761.384-2.5.704a4.499 4.499 0 00-1.797 1.36c-.46.593-.687 1.402-.687 2.421 0 .68.133 1.25.406 1.719.27.46.617.836 1.047 1.125.438.281.941.484 1.516.61a8.686 8.686 0 001.828.187c1.344 0 2.492-.18 3.453-.547.969-.363 1.754-.828 2.36-1.39.6-.563 1.05-1.173 1.343-1.829.29-.656.438-1.27.438-1.844zm0 0"/>
  </symbol>
  <symbol id="i" overflow="visible">
    <path d="M11.516-30.438V0h4.562v-30.438H27.5v-3.828H.094v3.828zm0 0"/>
  </symbol>
  <symbol id="j" overflow="visible">
    <path d="M9.75-13.063L.437 0h4.938l6.906-10.266L19.203 0h5.235l-9.61-13.39 8.547-11.422h-4.89l-6.204 8.687-5.937-8.688H1.109zm0 0"/>
  </symbol>
  <symbol id="k" overflow="visible">
    <path d="M3.078-24.813V0h4.078v-14.016c0-1.125.149-2.156.453-3.093.301-.946.754-1.77 1.36-2.47a6.185 6.185 0 012.281-1.64c.914-.383 2-.578 3.25-.578 1.563 0 2.79.45 3.688 1.344.894.898 1.343 2.117 1.343 3.656V0h4.078v-16.313c0-1.351-.136-2.578-.406-3.671-.273-1.102-.746-2.055-1.422-2.86-.668-.8-1.547-1.426-2.64-1.875-1.086-.445-2.438-.672-4.063-.672-3.687 0-6.375 1.508-8.062 4.516h-.11v-3.938zm0 0"/>
  </symbol>
  <symbol id="l" overflow="visible">
    <path d="M27.844-23.953h4.562c-.261-1.82-.808-3.426-1.64-4.813-.836-1.394-1.875-2.554-3.125-3.484-1.243-.926-2.664-1.629-4.266-2.11a17.42 17.42 0 00-5.094-.734c-2.617 0-4.945.477-6.984 1.422-2.031.95-3.73 2.242-5.094 3.875-1.355 1.625-2.387 3.54-3.094 5.735-.699 2.187-1.046 4.527-1.046 7.015 0 2.5.328 4.84.984 7.016.656 2.18 1.64 4.07 2.953 5.672 1.313 1.593 2.957 2.851 4.938 3.765 1.988.906 4.312 1.36 6.968 1.36 4.383 0 7.836-1.196 10.36-3.594 2.53-2.406 4.02-5.766 4.468-10.078h-4.562a13.151 13.151 0 01-.86 3.937 9.535 9.535 0 01-2 3.14 9.165 9.165 0 01-3.015 2.063c-1.168.493-2.508.735-4.016.735-2.043 0-3.804-.38-5.281-1.14-1.469-.77-2.68-1.802-3.625-3.095-.938-1.3-1.633-2.82-2.078-4.562-.45-1.75-.672-3.598-.672-5.547 0-1.79.223-3.52.672-5.188.445-1.664 1.14-3.144 2.078-4.437a10.496 10.496 0 013.61-3.094c1.456-.77 3.206-1.156 5.25-1.156 2.406 0 4.476.61 6.218 1.828 1.75 1.219 2.879 3.043 3.39 5.469zm0 0"/>
  </symbol>
  <symbol id="m" overflow="visible">
    <path d="M3.078-34.266V0h4.078v-14.016c0-1.125.149-2.156.453-3.093.301-.946.754-1.77 1.36-2.47a6.185 6.185 0 012.281-1.64c.914-.383 2-.578 3.25-.578 1.563 0 2.79.45 3.688 1.344.894.898 1.343 2.117 1.343 3.656V0h4.078v-16.313c0-1.351-.136-2.578-.406-3.671-.273-1.102-.746-2.055-1.422-2.86-.668-.8-1.547-1.426-2.64-1.875-1.086-.445-2.438-.672-4.063-.672-.742 0-1.508.086-2.297.25-.781.157-1.531.403-2.25.735a7.445 7.445 0 00-1.937 1.297 5.55 5.55 0 00-1.344 1.937h-.094v-13.094zm0 0"/>
  </symbol>
  <symbol id="n" overflow="visible">
    <path d="M20.297-14.781H6.047c.062-.957.27-1.86.625-2.703a7.196 7.196 0 011.437-2.235 6.639 6.639 0 012.188-1.515c.844-.375 1.797-.563 2.86-.563 1.019 0 1.952.188 2.796.563.852.367 1.594.859 2.219 1.484s1.117 1.371 1.484 2.234c.364.868.578 1.778.64 2.735zm3.937 6.906h-4.03c-.345 1.637-1.071 2.855-2.173 3.656-1.105.793-2.523 1.188-4.25 1.188-1.344 0-2.515-.223-3.515-.672C9.273-4.148 8.457-4.75 7.812-5.5a7.055 7.055 0 01-1.39-2.578 10.14 10.14 0 01-.375-3.11h18.578c.063-1.5-.074-3.082-.406-4.75a13.696 13.696 0 00-1.828-4.609c-.875-1.406-2.043-2.562-3.5-3.469-1.461-.914-3.293-1.375-5.5-1.375-1.7 0-3.262.325-4.688.97a10.913 10.913 0 00-3.687 2.687c-1.043 1.148-1.852 2.507-2.422 4.078-.574 1.562-.86 3.289-.86 5.172.063 1.898.336 3.648.829 5.25.5 1.593 1.242 2.968 2.234 4.125.988 1.148 2.21 2.043 3.672 2.687 1.457.633 3.176.953 5.156.953 2.82 0 5.16-.703 7.016-2.11 1.851-1.413 3.05-3.515 3.593-6.296zm0 0"/>
  </symbol>
  <symbol id="o" overflow="visible">
    <path d="M3.078-24.813V0h4.078v-15.453c0-.477.117-1.078.36-1.797a6.853 6.853 0 011.14-2.094c.531-.676 1.219-1.254 2.063-1.734.851-.477 1.875-.719 3.062-.719.926 0 1.68.14 2.266.422a3.493 3.493 0 011.422 1.156c.351.492.601 1.074.75 1.75.144.668.218 1.403.218 2.203V0h4.079v-15.453c0-1.926.57-3.461 1.718-4.61 1.157-1.156 2.739-1.734 4.75-1.734 1 0 1.813.149 2.438.438.625.293 1.11.687 1.453 1.187.352.492.594 1.074.719 1.75.133.668.203 1.387.203 2.156V0h4.078v-18.188c0-1.28-.203-2.375-.61-3.28-.398-.915-.953-1.66-1.671-2.235-.719-.582-1.586-1.008-2.594-1.281-1.012-.27-2.14-.407-3.39-.407-1.626 0-3.122.371-4.485 1.11a8.61 8.61 0 00-3.281 3.11c-.512-1.532-1.39-2.614-2.64-3.25-1.25-.645-2.642-.97-4.173-.97-3.492 0-6.164 1.407-8.015 4.22h-.11v-3.642zm0 0"/>
  </symbol>
  <symbol id="p" overflow="visible">
    <path d="M23.563-24.234h4.328c-.063-1.895-.422-3.52-1.078-4.875a9.545 9.545 0 00-2.688-3.391c-1.137-.895-2.46-1.55-3.969-1.969-1.5-.414-3.133-.625-4.89-.625-1.575 0-3.106.203-4.594.61-1.48.398-2.809 1.007-3.985 1.828a9.209 9.209 0 00-2.812 3.125c-.7 1.261-1.047 2.75-1.047 4.468 0 1.575.313 2.883.938 3.922a7.566 7.566 0 002.5 2.547c1.039.657 2.218 1.184 3.53 1.578a60.7 60.7 0 004 1.063c1.364.305 2.704.601 4.017.89 1.312.282 2.484.657 3.515 1.126 1.04.46 1.875 1.058 2.5 1.796.625.73.938 1.688.938 2.875 0 1.25-.258 2.278-.766 3.079a5.614 5.614 0 01-2.016 1.906c-.836.46-1.773.781-2.812.968a17.458 17.458 0 01-3.094.282c-1.281 0-2.531-.156-3.75-.469-1.21-.32-2.273-.816-3.187-1.484a7.762 7.762 0 01-2.204-2.579c-.562-1.039-.843-2.28-.843-3.718H1.78c0 2.086.375 3.886 1.125 5.406.75 1.523 1.77 2.773 3.063 3.75 1.3.969 2.804 1.695 4.515 2.172 1.72.476 3.536.719 5.454.719 1.562 0 3.132-.188 4.718-.563C22.25-.16 23.68-.75 24.953-1.563a9.972 9.972 0 003.14-3.156c.821-1.3 1.235-2.863 1.235-4.687 0-1.696-.312-3.102-.937-4.219a8.262 8.262 0 00-2.5-2.781c-1.032-.739-2.203-1.32-3.516-1.75a47.308 47.308 0 00-4.016-1.14c-1.367-.321-2.703-.618-4.015-.892-1.305-.269-2.477-.613-3.516-1.03-1.043-.415-1.875-.954-2.5-1.61s-.937-1.508-.937-2.563c0-1.125.21-2.062.64-2.812A5.132 5.132 0 019.766-30a7.43 7.43 0 012.468-.953 13.75 13.75 0 012.844-.297c2.363 0 4.305.555 5.828 1.656 1.52 1.106 2.407 2.89 2.657 5.36zm0 0"/>
  </symbol>
  <symbol id="q" overflow="visible">
    <path d="M8.734-24.813v-7.437H4.656v7.438H.438v3.593h4.218v15.797c0 1.149.11 2.074.328 2.781.227.711.57 1.258 1.032 1.641.468.375 1.078.637 1.828.781C8.594-.07 9.5 0 10.562 0h3.126v-3.594h-1.876c-.648 0-1.171-.023-1.578-.078-.398-.05-.71-.156-.937-.312a1.188 1.188 0 01-.453-.672c-.074-.29-.11-.676-.11-1.157v-15.406h4.954v-3.593zm0 0"/>
  </symbol>
  <symbol id="r" overflow="visible">
    <path d="M2.922-24.813V0h4.094v-11.047c0-1.594.156-3.004.468-4.234.32-1.239.832-2.29 1.532-3.156.707-.864 1.632-1.52 2.78-1.97 1.157-.445 2.552-.671 4.188-.671v-4.313c-2.21-.062-4.03.387-5.468 1.344-1.438.961-2.657 2.45-3.657 4.469h-.093v-5.235zm0 0"/>
  </symbol>
  <symbol id="s" overflow="visible">
    <path d="M23.61 0v-24.813H19.53v14.016c0 1.117-.152 2.149-.453 3.094a7.01 7.01 0 01-1.375 2.484c-.605.7-1.367 1.242-2.281 1.625-.906.375-1.985.563-3.235.563-1.562 0-2.792-.446-3.687-1.344-.898-.895-1.344-2.11-1.344-3.64v-16.797H3.078V-8.5c0 1.344.133 2.57.406 3.672.27 1.105.739 2.058 1.407 2.86.675.804 1.554 1.421 2.64 1.859 1.094.425 2.453.64 4.078.64 1.832 0 3.422-.36 4.766-1.078s2.445-1.848 3.313-3.39h.093V0zm0 0"/>
  </symbol>
  <symbol id="t" overflow="visible">
    <path d="M3.75-34.266V0h4.547v-14.64h11.14c1.125 0 2.02.171 2.688.515.676.336 1.223.781 1.64 1.344.415.554.72 1.203.907 1.953s.348 1.543.484 2.375c.157.836.25 1.683.282 2.547.03.867.062 1.672.093 2.422s.102 1.433.219 2.046c.113.606.332 1.086.656 1.438h5.078a5.748 5.748 0 01-1.078-1.984c-.242-.758-.43-1.551-.562-2.375a22.595 22.595 0 01-.235-2.547 66.306 66.306 0 00-.14-2.547 21.913 21.913 0 00-.407-2.406c-.18-.77-.449-1.461-.812-2.079a5.233 5.233 0 00-1.484-1.609c-.625-.445-1.434-.77-2.422-.969v-.093c2.07-.57 3.578-1.641 4.515-3.203.946-1.57 1.422-3.399 1.422-5.485 0-2.781-.922-4.969-2.765-6.562-1.836-1.602-4.383-2.407-7.641-2.407zm14.063 15.782H8.296v-11.953h11.328c2.145 0 3.695.546 4.656 1.64.969 1.086 1.453 2.492 1.453 4.219 0 1.25-.218 2.265-.656 3.047a5.136 5.136 0 01-1.734 1.875c-.719.468-1.559.781-2.516.937-.96.157-1.965.235-3.015.235zm0 0"/>
  </symbol>
  <symbol id="u" overflow="visible">
    <path d="M4.75-21.219V0h4.078v-21.219h4.797v-3.593H8.828v-3.454c0-1.093.27-1.832.813-2.218.55-.383 1.32-.578 2.312-.578.352 0 .738.027 1.156.078.414.054.797.14 1.141.265v-3.547c-.375-.132-.813-.234-1.313-.297s-.945-.093-1.328-.093c-2.242 0-3.945.523-5.109 1.562-1.168 1.043-1.75 2.57-1.75 4.578v3.703H.578v3.594zm0 0"/>
  </symbol>
  <symbol id="v" overflow="visible">
    <path d="M31.11-12.39v-21.876h-4.563v21.875c0 3.075-.762 5.403-2.281 6.985-1.524 1.586-3.743 2.375-6.657 2.375-3.062 0-5.414-.79-7.047-2.375-1.636-1.582-2.453-3.91-2.453-6.985v-21.875H3.547v21.875c0 4.586 1.238 7.922 3.719 10.016C9.742-.281 13.19.765 17.609.765c4.32 0 7.649-1.093 9.985-3.28 2.343-2.196 3.515-5.489 3.515-9.876zm0 0"/>
  </symbol>
  <symbol id="w" overflow="visible">
    <path d="M5.563-7.828H1.484c.063 1.543.38 2.851.954 3.922C3.02-2.832 3.788-1.97 4.75-1.312 5.707-.664 6.813-.196 8.063.093S10.624.53 12 .53c1.25 0 2.504-.12 3.766-.36 1.257-.237 2.394-.66 3.406-1.265A7.41 7.41 0 0021.625-3.5c.625-.988.938-2.238.938-3.75 0-1.188-.235-2.176-.704-2.969a6.179 6.179 0 00-1.828-2c-.75-.531-1.617-.953-2.593-1.265a28.662 28.662 0 00-2.985-.813 172.61 172.61 0 00-2.89-.656c-.961-.207-1.825-.461-2.594-.766-.762-.3-1.39-.68-1.89-1.14-.493-.47-.735-1.055-.735-1.766 0-.633.156-1.148.468-1.547a3.42 3.42 0 011.25-.969 6.144 6.144 0 011.704-.5 11.481 11.481 0 011.843-.156c.676 0 1.344.074 2 .219a6.2 6.2 0 011.797.703c.54.313.989.734 1.344 1.266.352.53.563 1.199.625 2h4.078c-.094-1.508-.414-2.766-.953-3.766-.543-1.008-1.273-1.813-2.188-2.406-.917-.594-1.968-1.008-3.156-1.25-1.18-.239-2.469-.36-3.875-.36-1.094 0-2.195.137-3.297.407a9.993 9.993 0 00-2.968 1.25 6.987 6.987 0 00-2.157 2.187c-.562.899-.843 1.965-.843 3.203 0 1.606.398 2.856 1.203 3.75.8.899 1.8 1.594 3 2.094 1.195.492 2.5.875 3.906 1.156a51.56 51.56 0 013.906.906c1.207.336 2.207.778 3 1.329.801.543 1.203 1.34 1.203 2.39 0 .774-.195 1.407-.578 1.907-.375.492-.86.867-1.453 1.125a7.586 7.586 0 01-1.953.515c-.7.094-1.371.14-2.016.14-.836 0-1.64-.077-2.421-.234s-1.485-.414-2.11-.78a4.42 4.42 0 01-1.516-1.5c-.386-.626-.593-1.384-.625-2.282zm0 0"/>
  </symbol>
  <symbol id="x" overflow="visible">
    <path d="M6.047-12.188c0-1.218.125-2.398.375-3.546.258-1.157.676-2.18 1.25-3.079a6.56 6.56 0 012.312-2.156c.957-.55 2.125-.828 3.5-.828 1.407 0 2.602.266 3.594.797 1 .531 1.813 1.23 2.438 2.094.625.867 1.078 1.867 1.359 3 .29 1.136.438 2.308.438 3.515 0 1.157-.137 2.297-.407 3.422a8.919 8.919 0 01-1.328 3 6.97 6.97 0 01-2.344 2.125c-.96.543-2.125.813-3.5.813-1.312 0-2.46-.254-3.437-.766A6.734 6.734 0 017.89-5.859 9.029 9.029 0 016.5-8.813a12.599 12.599 0 01-.453-3.374zM25.25 0v-34.266h-4.078V-21.5h-.094c-.45-.738-1-1.352-1.656-1.844a9.285 9.285 0 00-2.094-1.203 10.017 10.017 0 00-2.219-.656 12.188 12.188 0 00-2.046-.188c-1.899 0-3.56.344-4.985 1.032-1.418.687-2.601 1.617-3.547 2.78-.937 1.169-1.64 2.54-2.11 4.11-.46 1.563-.687 3.227-.687 4.985 0 1.761.239 3.43.72 5C2.93-5.922 3.64-4.547 4.577-3.36c.945 1.187 2.129 2.136 3.547 2.843C9.551.18 11.227.531 13.156.531c1.727 0 3.313-.304 4.75-.906 1.438-.613 2.492-1.61 3.172-2.984h.094V0zm0 0"/>
  </symbol>
  <symbol id="y" overflow="visible">
    <path d="M3.984-5.328V0h2.829c.03.383.003.8-.079 1.25a4.337 4.337 0 01-.453 1.313 4.491 4.491 0 01-.89 1.203 3.75 3.75 0 01-1.36.843v2.407C5.883 6.46 7.227 5.53 8.063 4.219c.832-1.313 1.25-2.883 1.25-4.703v-4.844zm0 0"/>
  </symbol>
  <symbol id="z" overflow="visible">
    <path d="M12.813 3.313c-.481 1.218-.954 2.238-1.422 3.062-.461.832-.97 1.516-1.532 2.047a5.116 5.116 0 01-1.875 1.156c-.687.238-1.48.36-2.375.36-.48 0-.96-.032-1.437-.094a6.41 6.41 0 01-1.39-.344V5.766c.35.156.757.289 1.218.406.469.113.863.172 1.188.172.832 0 1.523-.203 2.078-.61.562-.398.988-.964 1.28-1.703L10.22-.14.39-24.813h4.593l7.25 20.297h.11l6.953-20.297h4.312zm0 0"/>
  </symbol>
  <symbol id="A" overflow="visible">
    <path d="M9.64-14.156l5.813-15.985h.094l5.719 15.985zm3.422-20.11L-.28 0h4.656l3.828-10.313h14.5L26.453 0h5.031l-13.39-34.266zm0 0"/>
  </symbol>
  <symbol id="B" overflow="visible">
    <path d="M14.25 0l9.078-24.813h-4.265L12.28-4.125h-.094L5.234-24.813H.672L9.89 0zm0 0"/>
  </symbol>
  <symbol id="C" overflow="visible">
    <path d="M3.219-34.266V0h4.078v-3.313h.094c.445.743 1 1.36 1.656 1.86a8.93 8.93 0 002.078 1.172 11.65 11.65 0 002.234.61 12.02 12.02 0 002.047.202c1.883 0 3.54-.336 4.969-1 1.426-.676 2.61-1.597 3.547-2.765.945-1.164 1.648-2.536 2.11-4.11.468-1.57.702-3.238.702-5 0-1.75-.242-3.41-.718-4.984-.48-1.57-1.196-2.957-2.141-4.156-.938-1.196-2.121-2.145-3.547-2.844-1.43-.707-3.101-1.063-5.015-1.063-1.731 0-3.313.313-4.75.938s-2.497 1.625-3.172 3h-.094v-12.813zm19.203 21.641c0 1.219-.133 2.406-.39 3.563-.262 1.148-.68 2.167-1.25 3.062A6.46 6.46 0 0118.5-3.844c-.938.543-2.117.813-3.531.813-1.406 0-2.606-.258-3.594-.781a7.003 7.003 0 01-2.422-2.094c-.625-.864-1.086-1.864-1.375-3a14.617 14.617 0 01-.422-3.531 14.2 14.2 0 01.407-3.391c.269-1.125.707-2.125 1.312-3a7.062 7.062 0 012.36-2.14c.956-.552 2.124-.829 3.5-.829 1.312 0 2.453.262 3.421.781a6.846 6.846 0 012.407 2.063A9.185 9.185 0 0121.953-16c.313 1.094.469 2.219.469 3.375zm0 0"/>
  </symbol>
  <symbol id="D" overflow="visible">
    <path d="M3.703-34.266V0h4.313v-27.5h.093L26.016 0h5v-34.266h-4.328v27.782h-.094L8.547-34.266zm0 0"/>
  </symbol>
  <symbol id="E" overflow="visible">
    <path d="M8.297-17.86v-12.578h8.937c2.594 0 4.489.54 5.688 1.61 1.195 1.074 1.797 2.637 1.797 4.687 0 2.043-.602 3.61-1.797 4.703-1.2 1.086-3.094 1.61-5.688 1.579zM3.75-34.265V0h4.547v-14.016h10.469c3.457.032 6.07-.847 7.843-2.64 1.782-1.79 2.672-4.285 2.672-7.485 0-3.195-.89-5.68-2.672-7.453-1.773-1.781-4.386-2.672-7.843-2.672zm0 0"/>
  </symbol>
  <symbol id="F" overflow="visible">
    <path d="M8.297-3.844v-26.593h7.687c2.114 0 3.891.296 5.329.89s2.609 1.461 3.515 2.594c.914 1.137 1.57 2.512 1.969 4.125.406 1.617.61 3.45.61 5.5 0 2.117-.22 3.918-.657 5.406-.43 1.48-.98 2.719-1.656 3.719-.668.992-1.43 1.777-2.282 2.36-.843.573-1.699 1.011-2.562 1.312-.867.304-1.684.496-2.453.578-.762.074-1.399.11-1.906.11zM3.75-34.266V0H15.5c2.852 0 5.316-.398 7.39-1.203 2.083-.8 3.797-1.957 5.141-3.469 1.344-1.52 2.332-3.39 2.969-5.61.645-2.226.969-4.784.969-7.671 0-5.5-1.43-9.594-4.282-12.281-2.843-2.688-6.906-4.032-12.187-4.032zm0 0"/>
  </symbol>
  <path fill="#fff" d="M0 0h1920v1080H0z"/>
  <path fill="#900" d="M1550.95 591.617h8.82v-151.18h-8.82zm18.226 0h27.043v-151.18h-27.043zm35.863-151.18v151.176h27.04V440.437zm0 0"/>
  <path fill="#396" d="M1768.531 591.629h8.82V440.438h-8.82zm18.23-151.191v151.19h8.817v-151.19zm-145.57 151.19h8.82v-151.19h-8.82zm18.227-151.19V591.62h8.82V440.437zm0 0"/>
  <path fill="#069" d="M1677.348 591.629h27.047V440.438h-27.047zm35.863 0h9.402V440.438h-9.402zm18.223-151.191V591.62h27.043V440.437zm0 0"/>
  <path fill="#484848" d="M1782.145 608.27l13.914 31.351h-8.395l-2.582-6.191h-14.023l-2.336 6.191h-8.282l12.633-31.351zm.628 19.683l-5.05-12.187-4.602 12.187zm-18.226-19.683v5.746h-11.356v25.605h-7.808v-25.605h-11.356v-5.746zm-40.395 0l13.914 31.351h-8.394l-2.578-6.191h-14.028l-2.336 6.191h-8.28l12.636-31.351zm.63 19.683l-5.052-12.187-4.601 12.187zm-53.391-19.683h13.824c5.34 0 9.558 1.464 12.656 4.398 3.113 2.918 4.668 6.695 4.668 11.336 0 4.86-1.578 8.684-4.734 11.465-3.145 2.77-7.63 4.152-13.465 4.152h-12.95zm7.808 5.746v19.859h5.094c3.309 0 5.836-.902 7.586-2.715 1.75-1.824 2.625-4.226 2.625-7.203 0-3.082-.89-5.504-2.668-7.27-1.766-1.78-4.309-2.671-7.633-2.671zm-15.035-5.746v31.351h-7.812V608.27zm-14.793 0l-10.21 14.722 13.847 16.63h-9.785l-12.41-14.7v14.7h-7.81V608.27h7.81v14.117l9.964-14.117zm-33.594 0v31.351h-7.808V608.27zm-38.464 11.312l-9.696 20.445h-3.367l-13.781-31.757h8.281l7.383 17.324 8.058-17.324h6.286l8.054 17.324 7.34-17.324h8.281l-13.734 31.757h-3.367z"/>
  <path fill="none" stroke="#929292" stroke-dasharray=".006 18" stroke-dashoffset=".5" stroke-linecap="round" stroke-linejoin="round" stroke-width="6" d="M1424.992 540h56.465"/>
  <path fill="#929292" d="M1478.46 552l24-12-24-12zm0 0M1417.32 528l12 12-12 12zm0 0"/>
  <path fill="none" stroke="#929292" stroke-dasharray=".006 18" stroke-dashoffset=".5" stroke-linecap="round" stroke-linejoin="round" stroke-width="6" d="M458.875 540h56.465"/>
  <path fill="#929292" d="M512.34 552l24-12-24-12zm0 0M451.203 528l12 12-12 12zm0 0"/>
  <g fill="#900">
    <use x="607.046" y="553.959" xlink:href="#a"/>
    <use x="639.926" y="553.959" xlink:href="#b"/>
    <use x="650.582" y="553.959" xlink:href="#c"/>
    <use x="678.134" y="553.959" xlink:href="#d"/>
    <use x="688.79" y="553.959" xlink:href="#c"/>
    <use x="716.342" y="553.959" xlink:href="#e"/>
    <use x="743.894" y="553.959" xlink:href="#b"/>
    <use x="754.55" y="553.959" xlink:href="#f"/>
    <use x="780.326" y="553.959" xlink:href="#g"/>
    <use x="806.102" y="553.959" xlink:href="#d"/>
    <use x="816.758" y="553.959" xlink:href="#h"/>
    <use x="648.35" y="605.394" xlink:href="#i"/>
    <use x="670.574" y="605.394" xlink:href="#g"/>
    <use x="696.35" y="605.394" xlink:href="#j"/>
    <use x="721.214" y="605.394" xlink:href="#c"/>
    <use x="748.766" y="605.394" xlink:href="#k"/>
  </g>
  <g fill="#069">
    <use x="1126.289" y="553.959" xlink:href="#l"/>
    <use x="1160.945" y="553.959" xlink:href="#m"/>
    <use x="1187.633" y="553.959" xlink:href="#n"/>
    <use x="1213.409" y="553.959" xlink:href="#o"/>
    <use x="1254.353" y="553.959" xlink:href="#b"/>
    <use x="1265.009" y="553.959" xlink:href="#f"/>
    <use x="1290.785" y="553.959" xlink:href="#g"/>
    <use x="1316.561" y="553.959" xlink:href="#d"/>
    <use x="1327.217" y="553.959" xlink:href="#h"/>
    <use x="1128.065" y="605.394" xlink:href="#p"/>
    <use x="1159.169" y="605.394" xlink:href="#q"/>
    <use x="1174.289" y="605.394" xlink:href="#r"/>
    <use x="1190.273" y="605.394" xlink:href="#s"/>
    <use x="1216.961" y="605.394" xlink:href="#f"/>
    <use x="1242.737" y="605.394" xlink:href="#q"/>
    <use x="1257.857" y="605.394" xlink:href="#s"/>
    <use x="1284.545" y="605.394" xlink:href="#r"/>
    <use x="1299.665" y="605.394" xlink:href="#n"/>
  </g>
  <g fill="#396">
    <path d="M1011.219 498.758L972.71 513.84l-.059.012c-3.472 1.55-6.02 4.304-7.574 8.168-1.39 3.46-1.5 6.707-1.5 7.62v1.801l63.977-24.722-3.024-1.477-56.023 21.656c1.703-2.312 4.469-4.332 8.27-6.027l44.05-17.43-3-1.464-41.98 16.605-.043.02c-4.153 1.851-7.235 4.097-9.203 6.718.777-3.175 2.628-7.23 7.027-9.203l40.598-15.894zm-98.739.012l-3.023 1.464 40.55 15.883c4.4 1.973 6.25 6.028 7.032 9.203-1.973-2.62-5.05-4.87-9.203-6.718l-41.992-16.614-3.008 1.465 44.023 17.418c3.805 1.695 6.57 3.715 8.274 6.027l-56.004-21.644-3.031 1.476 63.96 24.711v-1.8c0-.914-.105-4.16-1.5-7.621-1.554-3.864-4.097-6.618-7.574-8.168zm-25.015 11.05v99.157l60.289 23.609V533.44zm148.722 0l-60.292 23.621v99.145l60.293-23.61zm-84.515 26.082v100.555h20.308V535.902zm0 0"/>
    <use x="851.112" y="698.55" xlink:href="#t"/>
    <use x="883.992" y="698.55" xlink:href="#n"/>
    <use x="909.768" y="698.55" xlink:href="#u"/>
    <use x="923.976" y="698.55" xlink:href="#n"/>
    <use x="949.752" y="698.55" xlink:href="#r"/>
    <use x="964.872" y="698.55" xlink:href="#n"/>
    <use x="990.648" y="698.55" xlink:href="#k"/>
    <use x="1017.336" y="698.55" xlink:href="#f"/>
    <use x="1043.112" y="698.55" xlink:href="#n"/>
  </g>
  <path fill="none" stroke="#929292" stroke-width="6" d="M910.89 422.934h98.22"/>
  <path fill="#929292" d="M1006.11 434.934l24-12-24-12zm0 0M913.89 410.934l-24 12 24 12zm0 0"/>
  <path fill="#900" d="M712.191 371.492c-5.687 9.828-9.449 19.106-11.738 27.79a85.55 85.55 0 017.977 7.94c.554-1.109 3.761-7.35 3.761-7.35s3.223 6.241 3.778 7.35a76.978 76.978 0 017.976-7.94c-2.328-8.684-6.066-17.962-11.754-27.79zm-32.023 17.074c-.59 7.649-.375 14.551.437 20.793.04 0 2.668 7.575 10.278 14.188 1.957 1.734 5.129 4.8 7.64 8.312.446-1.55 2.844-10.53 8.715-22.316-6.316-7.426-15.027-14.66-27.07-20.977zm64.012 0c-12.043 6.317-20.79 13.551-27.07 20.977 5.874 11.82 8.273 20.766 8.714 22.316 2.512-3.511 5.688-6.578 7.645-8.312 7.61-6.649 10.273-14.188 10.273-14.188.813-6.242 1.031-13.144.438-20.793zm-86.996 11.926c.48 5.692 1.035 13.078 6.097 20.871 2.88 1.149 6.653 3.078 9.535 4.852 1.106-9.422 4.5-16.856 4.5-16.856-6.945-2.992-12.003-2.289-20.132-8.867zm109.98 0c-8.125 6.578-13.187 5.875-20.133 8.867 0 0 3.395 7.434 4.504 16.856 2.883-1.774 6.653-3.703 9.535-4.852 5.063-7.793 5.614-15.18 6.094-20.87zm-54.973 4.434c-17.914 34.613-14.992 49.469-9.12 58.148 4.581 6.762 13.671 6.762 18.253 0 5.871-8.68 8.785-23.535-9.133-58.148zm-33.164 6.695c-3.879 10.16-10.687 36.086 8.817 50.863 4.101 3.141 8.945 2.996 12.308.301-3.18-5.43-5.804-13.187-2.367-27.89-7.46-10.715-12.96-10.786-18.758-23.274zm66.262 0c-5.762 12.524-11.262 12.559-18.723 23.274 3.434 14.703.809 22.46-2.367 27.89 3.399 2.66 8.203 2.84 12.305-.3 19.469-14.813 12.7-40.704 8.785-50.864zm31.77 8.602c-9.301.324-17.93 4.011-25.188 8.609.957 10.27-.558 22.457-9.723 31.875 1.07-.035 2.18-.184 3.325-.402 23.199-4.399 14.71-22.387 41.086-39.196a37.104 37.104 0 00-9.5-.886zm-129.735.035a37.03 37.03 0 00-9.488.887c26.375 16.773 17.875 34.796 41.074 39.195 1.145.219 2.254.34 3.324.414-9.16-9.457-10.68-21.652-9.718-31.887-7.262-4.625-15.891-8.297-25.192-8.61zm9.086 24.531c-4.726.219-10.226 1.66-16.324 5.356 5.062 3.066 9.715 4.582 13.89 5.136-3.472 1.957-9.124 5.84-10.898 11.418 4.652-2.363 10.75-2.148 14.188-1.742-2.438 2.363-4.84 5.363-7.02 9.129 11.008 1.625 18.758-.774 24.117-4.246-1.035 2.992-3.875 6.758-10.82 8.531 10.531 3.285 22.5 2.293 30.664-2.066 2.586 7.496 9.672 12.847 18.02 12.847 8.347 0 15.445-5.386 18.03-12.847 8.165 4.36 20.134 5.351 30.665 2.066-6.91-1.773-9.797-5.578-10.832-8.531 5.36 3.508 13.12 5.87 24.129 4.246-2.215-3.766-4.582-6.766-7.02-9.129 3.438-.406 9.535-.621 14.188 1.742-1.809-5.578-7.426-9.496-10.899-11.418 4.14-.554 8.793-2.07 13.89-5.136-6.171-3.696-11.675-5.137-16.405-5.356-4.098 7.645-9.79 18.106-28.41 18.367-4.102 3.914-10.372 5.973-16.579 1.801-2.586 3.398-6.468 5.54-10.793 5.54-4.32 0-8.195-2.142-10.78-5.54-6.208 4.172-12.528 2.113-16.59-1.8-18.657-.262-24.348-10.723-28.41-18.368zm0 0"/>
  <path fill="#069" d="M1171.86 365.71c-3.317 0-6.676.853-9.755 2.634-9.312 5.398-12.48 17.32-7.082 26.636 3.618 6.235 10.157 9.715 16.883 9.715 1.614 0 3.239-.195 4.836-.61l7.328 12.645a19.427 19.427 0 00-5.527 13.594c0 5.285 2.11 10.078 5.527 13.59l-7.328 12.656a19.46 19.46 0 00-4.836-.62c-6.726 0-13.265 3.48-16.883 9.718-5.398 9.312-2.23 21.246 7.082 26.644a19.37 19.37 0 009.754 2.622c6.727 0 13.266-3.477 16.883-9.715 4.48-7.735 3.051-17.266-2.894-23.367l7.332-12.645a19.5 19.5 0 004.855.61c8.942 0 16.469-6.02 18.77-14.227h19.89c2.297 8.207 9.828 14.226 18.766 14.226 1.676 0 3.305-.21 4.86-.609l7.327 12.645c-5.945 6.101-7.375 15.632-2.89 23.367 3.613 6.238 10.156 9.715 16.879 9.715a19.37 19.37 0 009.754-2.621c9.312-5.399 12.492-17.333 7.093-26.645-3.617-6.238-10.156-9.719-16.882-9.719-1.614 0-3.235.211-4.832.621l-7.344-12.656a19.425 19.425 0 005.527-13.59c0-5.289-2.11-10.082-5.527-13.594l7.344-12.644c1.597.414 3.218.61 4.832.61 6.726 0 13.265-3.481 16.882-9.716 5.399-9.316 2.22-21.238-7.093-26.636a19.424 19.424 0 00-9.754-2.633c-6.723 0-13.266 3.48-16.88 9.715-4.484 7.734-3.054 17.265 2.891 23.37l-7.328 12.642a19.554 19.554 0 00-4.86-.606c-8.937 0-16.468 6.02-18.765 14.223h-19.89c-2.301-8.203-9.828-14.223-18.77-14.223a19.5 19.5 0 00-4.855.606l-7.332-12.641c5.949-6.106 7.375-15.637 2.894-23.371-3.617-6.235-10.156-9.715-16.883-9.715zm.011 10.536a8.993 8.993 0 017.762 4.461 8.925 8.925 0 01.902 6.8 8.888 8.888 0 01-4.156 5.446 8.797 8.797 0 01-4.473 1.207c-3.195 0-6.176-1.707-7.773-4.46a8.925 8.925 0 01-.903-6.802 8.888 8.888 0 014.157-5.445 8.84 8.84 0 014.484-1.207zm109.766 0c1.582 0 3.086.402 4.472 1.207a8.892 8.892 0 014.168 5.445 8.911 8.911 0 01-.914 6.801 8.988 8.988 0 01-7.761 4.461 8.773 8.773 0 01-4.47-1.207 8.892 8.892 0 01-4.167-5.445 8.91 8.91 0 01.91-6.801 8.993 8.993 0 017.762-4.46zm-109.73 90.242c1.581 0 3.085.403 4.472 1.203 2.07 1.2 3.539 3.145 4.156 5.457a8.893 8.893 0 01-.902 6.79 8.995 8.995 0 01-7.762 4.472 8.851 8.851 0 01-4.484-1.219 8.88 8.88 0 01-4.157-5.441 8.903 8.903 0 01.903-6.793 9.019 9.019 0 017.773-4.469zm109.695 0a8.995 8.995 0 017.761 4.469 8.872 8.872 0 01.914 6.793 8.884 8.884 0 01-4.168 5.441 8.797 8.797 0 01-4.472 1.207 8.984 8.984 0 01-7.762-4.46 8.878 8.878 0 01-.91-6.79 8.915 8.915 0 014.168-5.457 8.808 8.808 0 014.469-1.203zm0 0"/>
  <path fill="none" stroke="#929292" stroke-dasharray=".006 18" stroke-dashoffset=".5" stroke-linecap="round" stroke-linejoin="round" stroke-width="6" d="M961.984 433.063v55.742"/>
  <path fill="#929292" d="M949.984 485.805l12 24 12-24zm0 0M973.984 425.39l-12 12-12-12zm0 0"/>
  <use x="68.306" y="801.465" xlink:href="#v"/>
  <use x="102.962" y="801.465" xlink:href="#k"/>
  <use x="129.65" y="801.465" xlink:href="#w"/>
  <use x="153.65" y="801.465" xlink:href="#q"/>
  <use x="168.77" y="801.465" xlink:href="#r"/>
  <use x="184.754" y="801.465" xlink:href="#s"/>
  <use x="211.442" y="801.465" xlink:href="#f"/>
  <use x="237.218" y="801.465" xlink:href="#q"/>
  <use x="252.338" y="801.465" xlink:href="#s"/>
  <use x="279.026" y="801.465" xlink:href="#r"/>
  <use x="294.146" y="801.465" xlink:href="#n"/>
  <use x="319.922" y="801.465" xlink:href="#x"/>
  <use x="348.386" y="801.465" xlink:href="#y"/>
  <use x="361.73" y="801.465" xlink:href="#h"/>
  <use x="58.49" y="852.899" xlink:href="#r"/>
  <use x="73.61" y="852.899" xlink:href="#n"/>
  <use x="99.386" y="852.899" xlink:href="#x"/>
  <use x="127.85" y="852.899" xlink:href="#s"/>
  <use x="154.538" y="852.899" xlink:href="#k"/>
  <use x="181.226" y="852.899" xlink:href="#x"/>
  <use x="209.69" y="852.899" xlink:href="#g"/>
  <use x="235.466" y="852.899" xlink:href="#k"/>
  <use x="262.154" y="852.899" xlink:href="#q"/>
  <use x="277.274" y="852.899" xlink:href="#h"/>
  <use x="290.618" y="852.899" xlink:href="#g"/>
  <use x="316.394" y="852.899" xlink:href="#k"/>
  <use x="343.082" y="852.899" xlink:href="#x"/>
  <use x="371.546" y="852.899" xlink:href="#h"/>
  <use x="104.33" y="904.333" xlink:href="#k"/>
  <use x="131.018" y="904.333" xlink:href="#c"/>
  <use x="158.57" y="904.333" xlink:href="#b"/>
  <use x="169.226" y="904.333" xlink:href="#w"/>
  <use x="193.226" y="904.333" xlink:href="#z"/>
  <use x="217.226" y="904.333" xlink:href="#h"/>
  <use x="230.57" y="904.333" xlink:href="#x"/>
  <use x="259.034" y="904.333" xlink:href="#g"/>
  <use x="284.81" y="904.333" xlink:href="#q"/>
  <use x="299.93" y="904.333" xlink:href="#g"/>
  <g fill="#929292">
    <path d="M219.207 428.055c-13.238 0-25.7 1.828-35.035 5.18-8.8 3.144-13.848 7.324-13.848 11.46 0 4.133 5.047 8.325 13.848 11.47 9.336 3.323 21.797 5.175 35.035 5.175 13.242 0 25.695-1.828 35.027-5.176 8.805-3.144 13.848-7.336 13.848-11.469 0-4.136-5.043-8.316-13.848-11.46-9.332-3.325-21.785-5.18-35.027-5.18zm-50.098 20.984v6.563c0 9.867 22.446 17.882 50.145 17.882 27.7 0 50.098-7.992 50.098-17.882v-6.563c-2.157 3.625-7.024 6.918-14.254 9.48-9.614 3.422-22.348 5.301-35.868 5.301s-26.277-1.879-35.867-5.3c-7.23-2.59-12.097-5.856-14.254-9.48zm-.054 13.11v4.488c0 9.867 22.453 17.883 50.152 17.883s50.145-7.993 50.145-17.883v-4.489a17.003 17.003 0 01-2.332 2.364c-2.739 2.332-6.622 4.383-11.516 6.133-9.742 3.476-22.625 5.375-36.297 5.375s-26.562-1.899-36.305-5.375c-4.894-1.75-8.742-3.801-11.507-6.133a17.078 17.078 0 01-2.34-2.364zm0 11.035v4.484c0 9.867 22.453 17.883 50.152 17.883s50.145-7.989 50.145-17.883v-4.484a17.003 17.003 0 01-2.332 2.363c-2.739 2.332-6.622 4.383-11.516 6.133-9.742 3.476-22.625 5.375-36.297 5.375s-26.562-1.899-36.305-5.375c-4.894-1.75-8.742-3.801-11.507-6.133a17.078 17.078 0 01-2.34-2.363zm0 11.035v4.484c0 9.867 22.453 17.883 50.152 17.883s50.145-7.992 50.145-17.883v-4.484a17.2 17.2 0 01-2.332 2.36c-2.739 2.335-6.622 4.386-11.516 6.136-9.742 3.473-22.625 5.375-36.297 5.375s-26.562-1.902-36.305-5.375c-4.894-1.75-8.742-3.8-11.507-6.137a17.277 17.277 0 01-2.34-2.36zm0 11.031v4.488c0 9.867 22.453 17.883 50.152 17.883s50.145-7.992 50.145-17.883v-4.488a17.003 17.003 0 01-2.332 2.363c-2.739 2.332-6.622 4.383-11.516 6.137-9.742 3.473-22.625 5.371-36.297 5.371s-26.562-1.898-36.305-5.371c-4.894-1.754-8.742-3.805-11.507-6.137a17.078 17.078 0 01-2.34-2.363zm0 11.035v4.485c0 9.867 22.453 17.882 50.152 17.882s50.145-8.015 50.145-17.882v-4.485a17.003 17.003 0 01-2.332 2.363c-2.739 2.332-6.622 4.383-11.516 6.133-9.742 3.477-22.625 5.375-36.297 5.375s-26.562-1.898-36.305-5.375c-4.894-1.75-8.742-3.8-11.507-6.133a17.078 17.078 0 01-2.34-2.363zm0 0"/>
    <use x="39.204" y="586.771" xlink:href="#A"/>
    <use x="69.444" y="586.771" xlink:href="#B"/>
    <use x="93.444" y="586.771" xlink:href="#g"/>
    <use x="119.22" y="586.771" xlink:href="#b"/>
    <use x="129.876" y="586.771" xlink:href="#d"/>
    <use x="140.532" y="586.771" xlink:href="#g"/>
    <use x="166.308" y="586.771" xlink:href="#C"/>
    <use x="194.772" y="586.771" xlink:href="#d"/>
    <use x="205.428" y="586.771" xlink:href="#n"/>
    <use x="231.204" y="586.771" xlink:href="#h"/>
    <use x="244.548" y="586.771" xlink:href="#D"/>
    <use x="279.204" y="586.771" xlink:href="#g"/>
    <use x="304.98" y="586.771" xlink:href="#q"/>
    <use x="320.1" y="586.771" xlink:href="#s"/>
    <use x="346.788" y="586.771" xlink:href="#r"/>
    <use x="362.772" y="586.771" xlink:href="#g"/>
    <use x="388.548" y="586.771" xlink:href="#d"/>
    <use x="399.204" y="586.771" xlink:href="#h"/>
    <use x="77.388" y="638.206" xlink:href="#E"/>
    <use x="108.492" y="638.206" xlink:href="#r"/>
    <use x="123.612" y="638.206" xlink:href="#c"/>
    <use x="151.164" y="638.206" xlink:href="#x"/>
    <use x="179.628" y="638.206" xlink:href="#s"/>
    <use x="206.316" y="638.206" xlink:href="#f"/>
    <use x="232.092" y="638.206" xlink:href="#q"/>
    <use x="247.212" y="638.206" xlink:href="#h"/>
    <use x="260.556" y="638.206" xlink:href="#F"/>
    <use x="294.348" y="638.206" xlink:href="#g"/>
    <use x="320.124" y="638.206" xlink:href="#q"/>
    <use x="335.244" y="638.206" xlink:href="#g"/>
    <path d="M97.945 428.055c-13.242 0-25.703 1.828-35.035 5.18-8.805 3.144-13.847 7.324-13.847 11.46 0 4.133 5.042 8.325 13.847 11.47 9.332 3.323 21.793 5.175 35.035 5.175 13.239 0 25.692-1.828 35.028-5.176 8.8-3.144 13.847-7.336 13.847-11.469 0-4.136-5.047-8.316-13.847-11.46-9.336-3.325-21.79-5.18-35.028-5.18zm-50.097 20.984v6.563c0 9.867 22.445 17.882 50.144 17.882 27.7 0 50.098-7.992 50.098-17.882v-6.563c-2.156 3.625-7.024 6.918-14.254 9.48-9.613 3.422-22.348 5.301-35.867 5.301s-26.281-1.879-35.867-5.3c-7.23-2.59-12.098-5.856-14.254-9.48zm-.055 13.11v4.488c0 9.867 22.453 17.883 50.152 17.883 27.7 0 50.145-7.993 50.145-17.883v-4.489a17.003 17.003 0 01-2.332 2.364c-2.738 2.332-6.621 4.383-11.516 6.133-9.742 3.476-22.625 5.375-36.297 5.375-13.672 0-26.566-1.899-36.304-5.375-4.895-1.75-8.746-3.801-11.512-6.133a17.262 17.262 0 01-2.336-2.364zm0 11.035v4.484c0 9.867 22.453 17.883 50.152 17.883 27.7 0 50.145-7.989 50.145-17.883v-4.484a17.003 17.003 0 01-2.332 2.363c-2.738 2.332-6.621 4.383-11.516 6.133-9.742 3.476-22.625 5.375-36.297 5.375-13.672 0-26.566-1.899-36.304-5.375-4.895-1.75-8.746-3.801-11.512-6.133a17.262 17.262 0 01-2.336-2.363zm0 11.035v4.484c0 9.867 22.453 17.883 50.152 17.883 27.7 0 50.145-7.992 50.145-17.883v-4.484a17.2 17.2 0 01-2.332 2.36c-2.738 2.335-6.621 4.386-11.516 6.136-9.742 3.473-22.625 5.375-36.297 5.375-13.672 0-26.566-1.902-36.304-5.375-4.895-1.75-8.746-3.8-11.512-6.137a17.466 17.466 0 01-2.336-2.36zm0 11.031v4.488c0 9.867 22.453 17.883 50.152 17.883 27.7 0 50.145-7.992 50.145-17.883v-4.488a17.003 17.003 0 01-2.332 2.363c-2.738 2.332-6.621 4.383-11.516 6.137-9.742 3.473-22.625 5.371-36.297 5.371-13.672 0-26.566-1.898-36.304-5.371-4.895-1.754-8.746-3.805-11.512-6.137a17.262 17.262 0 01-2.336-2.363zm0 11.035v4.485c0 9.867 22.453 17.882 50.152 17.882 27.7 0 50.145-8.015 50.145-17.882v-4.485a17.003 17.003 0 01-2.332 2.363c-2.738 2.332-6.621 4.383-11.516 6.133-9.742 3.477-22.625 5.375-36.297 5.375-13.672 0-26.566-1.898-36.304-5.375-4.895-1.75-8.746-3.8-11.512-6.133a17.262 17.262 0 01-2.336-2.363zm0 0M340.473 428.055c-13.243 0-25.703 1.828-35.04 5.18-8.8 3.144-13.847 7.324-13.847 11.46 0 4.133 5.047 8.325 13.848 11.47 9.336 3.323 21.796 5.175 35.039 5.175 13.238 0 25.691-1.828 35.027-5.176 8.8-3.144 13.848-7.336 13.848-11.469 0-4.136-5.047-8.316-13.848-11.46-9.336-3.325-21.79-5.18-35.027-5.18zm-50.098 20.984v6.563c0 9.867 22.445 17.882 50.145 17.882s50.093-7.992 50.093-17.882v-6.563c-2.152 3.625-7.02 6.918-14.25 9.48-9.613 3.422-22.347 5.301-35.867 5.301-13.52 0-26.281-1.879-35.871-5.3-7.227-2.59-12.094-5.856-14.25-9.48zm-.055 13.11v4.488c0 9.867 22.453 17.883 50.153 17.883 27.699 0 50.14-7.993 50.14-17.883v-4.489a16.751 16.751 0 01-2.328 2.364c-2.738 2.332-6.62 4.383-11.52 6.133-9.738 3.476-22.62 5.375-36.292 5.375s-26.567-1.899-36.305-5.375c-4.895-1.75-8.746-3.801-11.512-6.133a17.262 17.262 0 01-2.336-2.364zm0 11.035v4.484c0 9.867 22.453 17.883 50.153 17.883 27.699 0 50.14-7.989 50.14-17.883v-4.484a16.751 16.751 0 01-2.328 2.363c-2.738 2.332-6.62 4.383-11.52 6.133-9.738 3.476-22.62 5.375-36.292 5.375s-26.567-1.899-36.305-5.375c-4.895-1.75-8.746-3.801-11.512-6.133a17.262 17.262 0 01-2.336-2.363zm0 11.035v4.484c0 9.867 22.453 17.883 50.153 17.883 27.699 0 50.14-7.992 50.14-17.883v-4.484a16.943 16.943 0 01-2.328 2.36c-2.738 2.335-6.62 4.386-11.52 6.136-9.738 3.473-22.62 5.375-36.292 5.375s-26.567-1.902-36.305-5.375c-4.895-1.75-8.746-3.8-11.512-6.137a17.466 17.466 0 01-2.336-2.36zm0 11.031v4.488c0 9.867 22.453 17.883 50.153 17.883 27.699 0 50.14-7.992 50.14-17.883v-4.488a16.751 16.751 0 01-2.328 2.363c-2.738 2.332-6.62 4.383-11.52 6.137-9.738 3.473-22.62 5.371-36.292 5.371s-26.567-1.898-36.305-5.371c-4.895-1.754-8.746-3.805-11.512-6.137a17.262 17.262 0 01-2.336-2.363zm0 11.035v4.485c0 9.867 22.453 17.882 50.153 17.882 27.699 0 50.14-8.015 50.14-17.882v-4.485a16.751 16.751 0 01-2.328 2.363c-2.738 2.332-6.62 4.383-11.52 6.133-9.738 3.477-22.62 5.375-36.292 5.375s-26.567-1.898-36.305-5.375c-4.895-1.75-8.746-3.8-11.512-6.133a17.262 17.262 0 01-2.336-2.363zm0 0"/>
  </g>
  <use x="823.968" y="827.182" xlink:href="#l"/>
  <use x="858.624" y="827.182" xlink:href="#d"/>
  <use x="869.28" y="827.182" xlink:href="#n"/>
  <use x="895.056" y="827.182" xlink:href="#g"/>
  <use x="920.832" y="827.182" xlink:href="#k"/>
  <use x="947.52" y="827.182" xlink:href="#n"/>
  <use x="973.296" y="827.182" xlink:href="#x"/>
  <use x="1001.76" y="827.182" xlink:href="#h"/>
  <use x="1015.104" y="827.182" xlink:href="#g"/>
  <use x="1040.88" y="827.182" xlink:href="#k"/>
  <use x="1067.568" y="827.182" xlink:href="#x"/>
  <use x="1096.032" y="827.182" xlink:href="#h"/>
  <use x="770.136" y="878.616" xlink:href="#x"/>
  <use x="798.6" y="878.616" xlink:href="#c"/>
  <use x="826.152" y="878.616" xlink:href="#f"/>
  <use x="851.928" y="878.616" xlink:href="#s"/>
  <use x="878.616" y="878.616" xlink:href="#o"/>
  <use x="919.56" y="878.616" xlink:href="#n"/>
  <use x="945.336" y="878.616" xlink:href="#k"/>
  <use x="972.024" y="878.616" xlink:href="#q"/>
  <use x="987.144" y="878.616" xlink:href="#n"/>
  <use x="1012.92" y="878.616" xlink:href="#x"/>
  <use x="1041.384" y="878.616" xlink:href="#h"/>
  <use x="1054.728" y="878.616" xlink:href="#x"/>
  <use x="1083.192" y="878.616" xlink:href="#g"/>
  <use x="1108.968" y="878.616" xlink:href="#q"/>
  <use x="1124.088" y="878.616" xlink:href="#g"/>
  <use x="1515.308" y="801.465" xlink:href="#l"/>
  <use x="1549.964" y="801.465" xlink:href="#c"/>
  <use x="1577.516" y="801.465" xlink:href="#d"/>
  <use x="1588.172" y="801.465" xlink:href="#d"/>
  <use x="1598.828" y="801.465" xlink:href="#g"/>
  <use x="1624.604" y="801.465" xlink:href="#C"/>
  <use x="1653.068" y="801.465" xlink:href="#c"/>
  <use x="1680.62" y="801.465" xlink:href="#r"/>
  <use x="1696.604" y="801.465" xlink:href="#g"/>
  <use x="1722.38" y="801.465" xlink:href="#q"/>
  <use x="1737.5" y="801.465" xlink:href="#b"/>
  <use x="1748.156" y="801.465" xlink:href="#B"/>
  <use x="1772.156" y="801.465" xlink:href="#n"/>
  <use x="1797.932" y="801.465" xlink:href="#d"/>
  <use x="1808.588" y="801.465" xlink:href="#z"/>
  <use x="1832.588" y="801.465" xlink:href="#h"/>
  <use x="1545.02" y="852.899" xlink:href="#f"/>
  <use x="1570.796" y="852.899" xlink:href="#s"/>
  <use x="1597.484" y="852.899" xlink:href="#r"/>
  <use x="1613.468" y="852.899" xlink:href="#g"/>
  <use x="1639.244" y="852.899" xlink:href="#q"/>
  <use x="1654.364" y="852.899" xlink:href="#n"/>
  <use x="1680.14" y="852.899" xlink:href="#x"/>
  <use x="1708.604" y="852.899" xlink:href="#h"/>
  <use x="1721.948" y="852.899" xlink:href="#g"/>
  <use x="1747.724" y="852.899" xlink:href="#k"/>
  <use x="1774.412" y="852.899" xlink:href="#x"/>
  <use x="1802.876" y="852.899" xlink:href="#h"/>
  <use x="1510.34" y="904.333" xlink:href="#w"/>
  <use x="1534.34" y="904.333" xlink:href="#q"/>
  <use x="1549.46" y="904.333" xlink:href="#r"/>
  <use x="1565.444" y="904.333" xlink:href="#s"/>
  <use x="1592.132" y="904.333" xlink:href="#f"/>
  <use x="1617.908" y="904.333" xlink:href="#q"/>
  <use x="1633.028" y="904.333" xlink:href="#s"/>
  <use x="1659.716" y="904.333" xlink:href="#r"/>
  <use x="1674.836" y="904.333" xlink:href="#n"/>
  <use x="1700.612" y="904.333" xlink:href="#x"/>
  <use x="1729.076" y="904.333" xlink:href="#h"/>
  <use x="1742.42" y="904.333" xlink:href="#x"/>
  <use x="1770.884" y="904.333" xlink:href="#g"/>
  <use x="1796.66" y="904.333" xlink:href="#q"/>
  <use x="1811.78" y="904.333" xlink:href="#g"/>
</svg>
